<svg width="24" height="24" viewBox="0 0 24 24" fill="none" xmlns="http://www.w3.org/2000/svg">
<g clip-path="url(#clip0_161_80)">
<path d="M23.094 9.91358L13.3046 9.91312C12.8723 9.91312 12.5219 10.2635 12.5219 10.6957V13.823C12.5219 14.2552 12.8723 14.6056 13.3045 14.6056H18.8173C18.2137 16.1722 17.087 17.4842 15.6495 18.3178L18.0001 22.387C21.7709 20.2063 24.0001 16.3799 24.0001 12.0966C24.0001 11.4867 23.9552 11.0507 23.8653 10.5598C23.7969 10.1868 23.4731 9.91358 23.094 9.91358Z" fill="#167EE6"/>
<path d="M11.9999 19.3042C9.30203 19.3042 6.94684 17.8302 5.68192 15.6489L1.61288 17.9943C3.68359 21.5831 7.56268 23.9998 11.9999 23.9998C14.1766 23.9998 16.2305 23.4138 17.9999 22.3924V22.3868L15.6492 18.3176C14.574 18.9412 13.3298 19.3042 11.9999 19.3042Z" fill="#12B347"/>
<path d="M18 22.3926V22.387L15.6494 18.3178C14.5741 18.9414 13.33 19.3044 12 19.3044V24C14.1767 24 16.2308 23.4139 18 22.3926Z" fill="#0F993E"/>
<path d="M4.69566 11.9998C4.69566 10.6701 5.05856 9.42594 5.68205 8.35077L1.61302 6.00543C0.586031 7.7692 0 9.81754 0 11.9998C0 14.1822 0.586031 16.2305 1.61302 17.9943L5.68205 15.6489C5.05856 14.5738 4.69566 13.3296 4.69566 11.9998Z" fill="#FFD500"/>
<path d="M11.9999 4.69566C13.7591 4.69566 15.3751 5.32078 16.6373 6.36061C16.9487 6.61711 17.4013 6.59859 17.6865 6.31336L19.9023 4.09758C20.2259 3.77395 20.2029 3.24422 19.8572 2.94431C17.7424 1.10967 14.9908 0 11.9999 0C7.56268 0 3.68359 2.41673 1.61288 6.00558L5.68192 8.35092C6.94684 6.16969 9.30203 4.69566 11.9999 4.69566Z" fill="#FF4B26"/>
<path d="M16.6374 6.36061C16.9488 6.61711 17.4015 6.59859 17.6866 6.31336L19.9024 4.09758C20.226 3.77395 20.2029 3.24422 19.8573 2.94431C17.7425 1.10963 14.991 0 12 0V4.69566C13.7592 4.69566 15.3752 5.32078 16.6374 6.36061Z" fill="#D93F21"/>
</g>
<defs>
<clipPath id="clip0_161_80">
<rect width="24" height="24" fill="white"/>
</clipPath>
</defs>
</svg>
