<svg width="429" height="444" viewBox="0 0 429 444" fill="none" xmlns="http://www.w3.org/2000/svg">
<g clip-path="url(#clip0_435_132)">
<mask id="mask0_435_132" style="mask-type:luminance" maskUnits="userSpaceOnUse" x="0" y="0" width="429" height="444">
<path d="M428.1 0H0V443.1H428.1V0Z" fill="white"/>
</mask>
<g mask="url(#mask0_435_132)">
<path d="M395.7 88.3002C400.3 86.4002 403.6 81.6002 403.6 76.0002C403.6 68.7002 398.1 62.7002 391.2 62.7002C384.3 62.7002 378.7 68.6002 378.7 75.9002C378.7 81.6002 382 86.4002 386.6 88.3002C367.4 91.2002 368.3 112 368.3 112L413.6 112.2C413.7 112.3 414.7 91.2002 395.7 88.3002Z" fill="#F5F5F5"/>
<path d="M127.9 10.5L98.2999 0L68.8999 10.3C65.1999 12 61.8999 13.1 61.8999 16.5V33.6C61.8999 45.5 65.0999 57.3 71.5999 67.6C77.0999 76.3 85.4999 85.4 98.5999 91.1C110.6 87.3 119.5 77 125 68.3C131.5 57.9 134.7 46.1 134.7 34.3V18.9C134.6 14 132 11.7 127.9 10.5Z" fill="#F5F5F5"/>
<path d="M108.1 38.1004C108.1 33.6004 104.4 29.9004 99.8997 29.9004C95.3997 29.9004 91.6997 33.6004 91.6997 38.1004C91.6997 41.8004 94.1997 45.0004 97.6997 46.0004V58.3004H102.2V45.9004C105.6 45.0004 108.1 41.8004 108.1 38.1004Z" fill="#EBEBEB"/>
<path d="M379.8 169.1L384.9 171.8L382.6 175.6L377.5 172.6L377.6 178.2H373.2V172.5L368.1 175.6L365.9 171.8L371 169.1L365.9 166.3L368.1 162.5L373.2 165.6V159.9H377.6L377.5 165.6L382.6 162.5L384.9 166.3L379.8 169.1Z" fill="#EBEBEB"/>
<path d="M400.9 169.1L406 171.8L403.7 175.6L398.6 172.6L398.7 178.2H394.3V172.5L389.2 175.6L387 171.8L392.1 169.1L387 166.3L389.2 162.5L394.3 165.6V159.9H398.7L398.6 165.6L403.7 162.5L406 166.3L400.9 169.1Z" fill="#EBEBEB"/>
<path d="M421.9 169.1L427 171.8L424.7 175.6L419.6 172.6L419.7 178.2H415.3V172.5L410.2 175.6L408 171.8L413.1 169.1L408 166.3L410.2 162.5L415.3 165.6V159.9H419.7L419.6 165.6L424.7 162.5L427 166.3L421.9 169.1Z" fill="#EBEBEB"/>
<path d="M207.8 408.4V439.5H253.2H303.3V408.4H207.8Z" fill="#F5F5F5"/>
<path d="M203.8 399.7V408.4H306.7V399.7H253.2H203.8Z" fill="#EBEBEB"/>
<path d="M255.2 439.5H303.3V408.4H306.7V399.7H253.2V407.6L255.2 439.5Z" fill="#EBEBEB"/>
<path d="M240.6 413.4H221.2V418.1H240.6V413.4Z" fill="#E0E0E0"/>
<path d="M243.6 423.9H218.7V433.8H243.6V423.9Z" fill="white"/>
<path d="M222.5 368.7V399.8H267.9H318V368.7H222.5Z" fill="#F5F5F5"/>
<path d="M218.5 360V368.7H321.4V360H267.9H218.5Z" fill="#EBEBEB"/>
<path d="M269.9 399.8H318V368.7H321.4V360H267.9V367.9L269.9 399.8Z" fill="#EBEBEB"/>
<path d="M255.3 373.7H235.9V378.4H255.3V373.7Z" fill="#E0E0E0"/>
<path d="M258.3 384.2H233.4V394.1H258.3V384.2Z" fill="white"/>
<path d="M428.1 439.7C428.1 439.8 332.3 440 214 440C95.8 440 0 439.9 0 439.7C0 439.5 95.8 439.4 214.1 439.4C332.3 439.5 428.1 439.6 428.1 439.7Z" fill="#242E34"/>
<path d="M339.8 196.3H161.1C157.5 196.3 154.5 193.4 154.5 189.7V25.3998C154.5 21.7998 157.4 18.7998 161.1 18.7998H339.7C343.3 18.7998 346.3 21.6998 346.3 25.3998V189.7C346.3 193.4 343.4 196.3 339.8 196.3Z" fill="white"/>
<path d="M339.8 196.3C339.8 196.3 340 196.3 340.3 196.3C340.6 196.3 341.1 196.2 341.7 196C342.3 195.8 343 195.5 343.7 195C344.4 194.5 345.2 193.7 345.7 192.6C346.3 191.5 346.4 190.2 346.3 188.7C346.3 187.2 346.3 185.6 346.3 183.8C346.3 180.3 346.3 176.2 346.3 171.6C346.3 153.2 346.3 126.6 346.2 93.6998C346.2 77.2998 346.2 59.1998 346.2 39.8998C346.2 35.0998 346.2 30.1998 346.2 25.1998C346.1 22.7998 344.4 20.4998 342.1 19.6998C341 19.1998 339.7 19.2998 338.4 19.2998C337.1 19.2998 335.8 19.2998 334.6 19.2998C324.3 19.2998 313.7 19.2998 302.8 19.2998C259.3 19.2998 211.5 19.2998 161.3 19.2998C159.8 19.2998 158.3 19.8998 157.2 20.7998C156.1 21.7998 155.3 23.1998 155.1 24.6998C155 25.3998 155 26.1998 155 26.9998V29.2998C155 30.8998 155 32.3998 155 33.9998C155 40.1998 155 46.3998 155 52.4998C155 64.6998 155 76.7998 155 88.5998C155 112.3 155 135.1 155 156.9C155 167.8 155 178.4 155 188.7C155 189.3 155 190 155 190.6C155.1 191.2 155.2 191.8 155.4 192.4C155.9 193.5 156.7 194.5 157.7 195.2C158.7 195.9 159.9 196.3 161.1 196.3C162.4 196.3 163.6 196.3 164.9 196.3C169.9 196.3 174.8 196.3 179.7 196.3C199 196.3 217.1 196.3 233.5 196.3C266.4 196.3 293 196.4 311.4 196.4C320.6 196.4 327.7 196.4 332.6 196.4C335 196.4 336.9 196.4 338.1 196.4C339.1 196.3 339.8 196.3 339.8 196.3C339.8 196.3 339.2 196.3 337.9 196.3C336.7 196.3 334.8 196.3 332.4 196.3C327.6 196.3 320.4 196.3 311.2 196.3C292.8 196.3 266.2 196.3 233.3 196.4C216.9 196.4 198.8 196.4 179.5 196.4C174.7 196.4 169.7 196.4 164.7 196.4C163.4 196.4 162.2 196.4 160.9 196.4C159.6 196.4 158.3 195.9 157.2 195.2C156.1 194.5 155.3 193.4 154.8 192.2C154.5 191.6 154.4 190.9 154.3 190.3C154.3 189.6 154.3 189 154.3 188.4C154.3 178.1 154.3 167.5 154.3 156.6C154.3 134.8 154.3 112 154.3 88.2998C154.3 76.4998 154.3 64.3998 154.3 52.1998C154.3 46.0998 154.3 39.8998 154.3 33.6998C154.3 32.1998 154.3 30.5998 154.3 28.9998V26.6998C154.3 25.8998 154.3 25.0998 154.4 24.2998C154.6 22.6998 155.4 21.1998 156.7 20.0998C157.9 18.9998 159.5 18.3998 161.2 18.3998C211.4 18.3998 259.2 18.3998 302.7 18.3998C313.6 18.3998 324.2 18.3998 334.5 18.3998C335.8 18.3998 337.1 18.3998 338.3 18.3998C339.6 18.3998 340.9 18.2998 342.1 18.7998C344.6 19.6998 346.4 22.0998 346.5 24.6998C346.5 29.6998 346.5 34.5998 346.5 39.4998C346.5 58.7998 346.5 76.8998 346.5 93.2998C346.5 126.2 346.4 152.8 346.4 171.2C346.4 175.8 346.4 179.9 346.4 183.4C346.4 185.2 346.4 186.8 346.4 188.3C346.4 189.8 346.3 191.2 345.7 192.3C345.2 193.4 344.4 194.2 343.7 194.8C343 195.4 342.2 195.6 341.6 195.8C341 196 340.5 196 340.2 196C339.9 196.3 339.8 196.3 339.8 196.3Z" fill="#242E34"/>
<path d="M169.1 31.0998C169.1 32.8998 167.6 34.3998 165.8 34.3998C164 34.3998 162.5 32.8998 162.5 31.0998C162.5 29.2998 164 27.7998 165.8 27.7998C167.6 27.7998 169.1 29.2998 169.1 31.0998Z" fill="#242E34"/>
<path d="M175.4 34.3998C177.222 34.3998 178.7 32.9223 178.7 31.0998C178.7 29.2773 177.222 27.7998 175.4 27.7998C173.577 27.7998 172.1 29.2773 172.1 31.0998C172.1 32.9223 173.577 34.3998 175.4 34.3998Z" fill="#242E34"/>
<path d="M185.1 34.3998C186.922 34.3998 188.4 32.9223 188.4 31.0998C188.4 29.2773 186.922 27.7998 185.1 27.7998C183.277 27.7998 181.8 29.2773 181.8 31.0998C181.8 32.9223 183.277 34.3998 185.1 34.3998Z" fill="#242E34"/>
<path d="M277.5 107.4C277.5 107.4 277.6 107.3 277.7 107.1C277.7 107 277.8 107 277.8 106.9C277.8 106.8 277.9 106.8 277.9 106.7C278 106.5 278.1 106.4 278.2 106.1C278.2 106 278.3 105.9 278.3 105.7C278.3 105.6 278.4 105.4 278.4 105.3C278.4 105.2 278.5 105 278.5 104.8C278.5 104.6 278.6 104.5 278.6 104.3C278.7 103.6 278.6 102.7 278.5 101.8C278.2 99.8996 277.4 97.6996 276.2 95.3996C275 92.9996 273.3 90.3996 271.3 87.7996C269.3 85.0996 266.8 82.3996 264 79.5996C261.2 76.7996 258 73.9996 254.4 71.3996C252.6 70.0996 250.7 68.7996 248.7 67.5996C246.7 66.3996 244.6 65.2996 242.4 64.2996C240.2 63.2996 237.8 62.4996 235.4 62.0996C234.2 61.8996 232.9 61.7996 231.7 61.9996C231.1 62.0996 230.5 62.2996 229.9 62.4996C229.3 62.7996 228.8 63.0996 228.4 63.5996C228 64.0996 227.7 64.5996 227.5 65.1996C227.3 65.7996 227.2 66.3996 227.2 67.0996C227.2 68.3996 227.4 69.5996 227.7 70.7996C228.4 73.1996 229.5 75.3996 230.7 77.4996C231.9 79.5996 233.3 81.4996 234.7 83.3996C236.1 85.1996 237.6 86.9996 239.1 88.5996C242.1 91.8996 245.3 94.6996 248.3 97.1996C251.4 99.6996 254.4 101.8 257.3 103.5C260.2 105.2 262.9 106.6 265.4 107.5C267.9 108.4 270.2 109 272.1 109C273 109 273.9 109 274.6 108.8C274.8 108.8 274.9 108.7 275.1 108.7C275.3 108.7 275.4 108.6 275.6 108.6C275.7 108.5 275.9 108.5 276 108.4C276.1 108.3 276.2 108.3 276.3 108.2C276.5 108.1 276.7 108 276.8 107.8C276.9 107.7 276.9 107.7 277 107.6C277.1 107.5 277.1 107.5 277.2 107.5C277.4 107.5 277.5 107.4 277.5 107.4C277.5 107.4 277.4 107.5 277.2 107.7C277.2 107.7 277.1 107.8 277 107.9C276.9 108 276.9 108 276.8 108.1C276.6 108.2 276.5 108.4 276.3 108.5C276.2 108.6 276.1 108.6 276 108.7C275.9 108.8 275.7 108.8 275.6 108.9C275.5 109 275.3 109 275.1 109.1C274.9 109.1 274.8 109.2 274.6 109.2C273.9 109.4 273 109.4 272.1 109.4C270.2 109.3 267.9 108.8 265.4 107.9C262.9 107 260.1 105.6 257.2 103.9C254.3 102.2 251.3 100.1 248.2 97.5996C245.1 95.0996 242 92.2996 238.9 88.9996C237.4 87.3996 235.9 85.5996 234.5 83.7996C233.1 81.9996 231.7 79.9996 230.5 77.8996C229.3 75.7996 228.2 73.5996 227.5 71.0996C227.2 69.8996 226.9 68.5996 227 67.2996C227 66.6996 227.1 65.9996 227.3 65.3996C227.5 64.7996 227.8 64.1996 228.3 63.6996C228.7 63.1996 229.3 62.7996 229.9 62.5996C230.5 62.2996 231.1 62.1996 231.7 62.0996C233 61.8996 234.2 61.9996 235.5 62.1996C238 62.5996 240.3 63.3996 242.6 64.3996C244.8 65.3996 246.9 66.4996 248.9 67.6996C250.9 68.8996 252.8 70.1996 254.6 71.4996C258.2 74.0996 261.4 76.8996 264.2 79.6996C267 82.4996 269.5 85.2996 271.5 87.8996C273.5 90.5996 275.2 93.1996 276.4 95.5996C277.6 97.9996 278.4 100.2 278.7 102.1C278.8 103 278.9 103.9 278.8 104.6C278.8 104.8 278.7 105 278.7 105.1C278.7 105.3 278.6 105.4 278.6 105.6C278.6 105.7 278.5 105.9 278.5 106C278.5 106.1 278.4 106.3 278.4 106.4C278.3 106.6 278.2 106.8 278.1 107C278.1 107.1 278 107.2 278 107.2C278 107.3 277.9 107.3 277.9 107.4C277.6 107.3 277.5 107.4 277.5 107.4Z" fill="#3085FE"/>
<path d="M286.6 85.5C286.6 85.5 286.6 85.4 286.6 85.1C286.6 85 286.6 85 286.6 84.9C286.6 84.8 286.6 84.7 286.5 84.6C286.5 84.4 286.4 84.2 286.3 84C286.3 83.9 286.2 83.8 286.2 83.6C286.1 83.5 286.1 83.3 286 83.2C285.9 83.1 285.9 82.9 285.8 82.8C285.7 82.7 285.6 82.5 285.5 82.4C285.1 81.8 284.5 81.2 283.8 80.6C282.3 79.4 280.3 78.3 277.8 77.3C275.3 76.3 272.4 75.5 269.1 74.9C265.8 74.3 262.1 73.8 258.2 73.6C254.2 73.4 250 73.5 245.6 73.9C243.4 74.1 241.1 74.4 238.8 74.8C236.5 75.2 234.2 75.8 231.9 76.5C229.6 77.3 227.3 78.2 225.2 79.5C224.2 80.2 223.2 81 222.3 81.9C221.9 82.4 221.6 82.9 221.3 83.5C221.1 84.1 220.9 84.7 220.9 85.3C220.9 85.9 221.1 86.6 221.3 87.1C221.6 87.7 221.9 88.2 222.3 88.7C223.1 89.7 224.1 90.4 225.2 91.1C227.3 92.4 229.6 93.4 231.9 94.1C234.2 94.8 236.5 95.4 238.8 95.8C241.1 96.2 243.4 96.5 245.6 96.7C250 97.1 254.3 97.2 258.2 97C262.2 96.8 265.8 96.4 269.1 95.7C272.4 95.1 275.4 94.3 277.8 93.3C280.3 92.3 282.3 91.2 283.8 90C284.5 89.4 285.1 88.8 285.5 88.2C285.6 88.1 285.7 87.9 285.8 87.8C285.9 87.7 286 87.5 286 87.4C286.1 87.3 286.1 87.1 286.2 87C286.3 86.9 286.3 86.7 286.3 86.6C286.4 86.4 286.4 86.2 286.5 86C286.5 85.9 286.5 85.8 286.6 85.7C286.6 85.6 286.6 85.6 286.6 85.5C286.6 85.5 286.6 85.6 286.6 85.9C286.6 86 286.6 86 286.6 86.1C286.6 86.2 286.6 86.3 286.6 86.4C286.6 86.6 286.5 86.8 286.4 87C286.4 87.1 286.3 87.2 286.3 87.4C286.2 87.5 286.2 87.7 286.1 87.8C286 87.9 286 88.1 285.9 88.2C285.8 88.3 285.7 88.5 285.6 88.6C285.2 89.2 284.6 89.8 283.9 90.4C282.4 91.6 280.4 92.7 277.9 93.7C275.4 94.7 272.5 95.5 269.2 96.2C265.9 96.8 262.2 97.3 258.3 97.5C254.3 97.7 250.1 97.7 245.7 97.2C243.5 97 241.2 96.7 238.9 96.3C236.6 95.9 234.3 95.3 232 94.6C229.7 93.8 227.4 92.9 225.3 91.6C224.2 90.9 223.2 90.1 222.4 89.1C222 88.6 221.6 88.1 221.4 87.5C221.2 86.9 221 86.3 221 85.6C221 84.9 221.2 84.3 221.4 83.7C221.7 83.1 222 82.6 222.4 82.1C223.2 81.1 224.2 80.3 225.3 79.6C227.4 78.2 229.7 77.3 232 76.6C234.3 75.9 236.6 75.3 238.9 74.9C241.2 74.5 243.5 74.2 245.7 74C250.1 73.6 254.4 73.5 258.3 73.7C262.3 73.9 265.9 74.3 269.2 75C272.5 75.6 275.5 76.5 278 77.5C280.5 78.5 282.5 79.6 284 80.8C284.7 81.4 285.3 82 285.7 82.6C285.8 82.7 285.9 82.9 286 83C286.1 83.1 286.2 83.3 286.2 83.4C286.3 83.5 286.3 83.7 286.4 83.8C286.5 83.9 286.5 84.1 286.5 84.2C286.6 84.4 286.6 84.6 286.7 84.8C286.7 84.9 286.7 85 286.7 85.1C286.7 85.2 286.7 85.3 286.7 85.3C286.6 85.4 286.6 85.5 286.6 85.5Z" fill="#3085FE"/>
<path d="M274.599 58.1996C274.599 58.1996 274.499 58.0996 274.299 57.9996C274.199 57.9996 274.199 57.8996 274.099 57.8996C273.999 57.8996 273.999 57.7996 273.899 57.7996C273.699 57.6996 273.499 57.5996 273.299 57.4996C273.199 57.4996 273.099 57.3996 272.899 57.3996C272.799 57.3996 272.599 57.2996 272.499 57.2996C272.399 57.2996 272.199 57.1996 271.999 57.1996C271.799 57.1996 271.699 57.1996 271.499 57.1996C270.799 57.1996 269.899 57.2996 268.999 57.4996C267.199 57.8996 264.999 58.8996 262.699 60.1996C260.399 61.5996 257.999 63.3996 255.399 65.5996C252.899 67.7996 250.299 70.4996 247.699 73.4996C245.099 76.4996 242.599 79.8996 240.199 83.5996C238.999 85.4996 237.899 87.4996 236.799 89.4996C235.699 91.5996 234.799 93.6996 233.899 95.9996C233.099 98.2996 232.399 100.7 232.199 103.2C232.099 104.4 232.099 105.7 232.399 106.9C232.499 107.5 232.699 108.1 232.999 108.7C233.299 109.2 233.699 109.7 234.199 110.1C234.699 110.5 235.299 110.7 235.899 110.9C236.499 111 237.099 111.1 237.799 111.1C239.099 111.1 240.299 110.7 241.499 110.3C243.899 109.5 245.999 108.2 247.999 106.9C249.999 105.5 251.899 104 253.599 102.5C255.299 101 256.999 99.3996 258.499 97.6996C261.499 94.4996 264.199 91.0996 266.499 87.8996C268.799 84.6996 270.699 81.4996 272.199 78.4996C273.699 75.4996 274.899 72.6996 275.599 70.0996C276.399 67.4996 276.699 65.1996 276.699 63.3996C276.699 62.4996 276.599 61.5996 276.399 60.8996C276.399 60.6996 276.299 60.5996 276.199 60.3996C276.099 60.1996 276.099 60.0996 275.999 59.9996C275.899 59.8996 275.899 59.6996 275.799 59.5996C275.699 59.4996 275.699 59.3996 275.599 59.2996C275.499 59.0996 275.299 58.8996 275.199 58.7996C275.099 58.6996 275.099 58.6996 274.999 58.5996C274.899 58.4996 274.899 58.4996 274.799 58.4996C274.699 58.2996 274.599 58.1996 274.599 58.1996C274.599 58.1996 274.699 58.2996 274.899 58.4996C274.899 58.4996 274.999 58.5996 275.099 58.5996C275.199 58.6996 275.199 58.6996 275.299 58.7996C275.399 58.8996 275.599 59.0996 275.699 59.2996C275.799 59.3996 275.799 59.4996 275.899 59.5996C275.999 59.6996 275.999 59.8996 276.099 59.9996C276.199 60.0996 276.199 60.2996 276.299 60.3996C276.399 60.5996 276.399 60.6996 276.499 60.8996C276.699 61.5996 276.799 62.3996 276.899 63.3996C276.999 65.2996 276.599 67.5996 275.799 70.1996C275.099 72.7996 273.899 75.5996 272.399 78.5996C270.899 81.5996 268.999 84.7996 266.699 87.9996C264.399 91.1996 261.799 94.5996 258.699 97.7996C257.199 99.3996 255.499 101 253.799 102.6C252.099 104.2 250.199 105.6 248.199 107C246.199 108.4 243.999 109.6 241.699 110.5C240.499 110.9 239.299 111.2 237.999 111.3C237.399 111.3 236.699 111.3 236.099 111.1C235.499 110.9 234.899 110.6 234.399 110.3C233.899 109.9 233.499 109.4 233.199 108.8C232.899 108.2 232.699 107.6 232.499 107C232.199 105.7 232.199 104.5 232.299 103.2C232.499 100.7 233.199 98.2996 233.999 95.9996C234.799 93.6996 235.799 91.4996 236.899 89.4996C237.999 87.3996 239.099 85.3996 240.299 83.5996C242.699 79.7996 245.299 76.4996 247.799 73.3996C250.399 70.3996 252.999 67.7996 255.499 65.4996C257.999 63.2996 260.499 61.4996 262.799 60.0996C265.099 58.6996 267.199 57.7996 269.099 57.3996C269.999 57.1996 270.899 57.0996 271.599 57.0996C271.799 57.0996 271.999 57.0996 272.099 57.0996C272.299 57.0996 272.399 57.0996 272.599 57.1996C272.799 57.1996 272.899 57.2996 272.999 57.2996C273.099 57.2996 273.299 57.3996 273.399 57.3996C273.599 57.4996 273.799 57.5996 273.999 57.6996C274.099 57.6996 274.199 57.7996 274.199 57.7996C274.299 57.7996 274.299 57.8996 274.399 57.8996C274.499 58.0996 274.599 58.1996 274.599 58.1996Z" fill="#3085FE"/>
<path d="M220.4 99.0996C220.9 99.5996 220.9 100.4 220.4 100.8C219.9 101.3 219.1 101.3 218.7 100.8C218.2 100.3 218.2 99.4996 218.7 99.0996C219.2 98.5996 219.9 98.5996 220.4 99.0996Z" fill="#3085FE"/>
<path d="M289.4 61.2C289.4 61.9 288.9 62.4 288.2 62.4C287.5 62.4 287 61.9 287 61.2C287 60.5 287.5 60 288.2 60C288.9 60 289.4 60.5 289.4 61.2Z" fill="#3085FE"/>
<path d="M228.1 103.1C228.1 103.3 228 103.4 227.8 103.4C227.6 103.4 227.5 103.3 227.5 103.1C227.5 102.9 227.6 102.8 227.8 102.8C228 102.8 228.1 102.9 228.1 103.1Z" fill="#3085FE"/>
<path d="M234.8 68.8C234.8 69 234.7 69.1 234.5 69.1C234.3 69.1 234.2 69 234.2 68.8C234.2 68.6 234.3 68.5 234.5 68.5C234.6 68.5 234.8 68.7 234.8 68.8Z" fill="#3085FE"/>
<path d="M283.3 85.4992C283.3 85.6992 283.2 85.7992 283 85.7992C282.8 85.7992 282.7 85.6992 282.7 85.4992C282.7 85.2992 282.8 85.1992 283 85.1992C283.1 85.1992 283.3 85.2992 283.3 85.4992Z" fill="#3085FE"/>
<path d="M287.6 70.9992C287.6 71.1992 287.499 71.2992 287.299 71.2992C287.099 71.2992 287 71.1992 287 70.9992C287 70.7992 287.099 70.6992 287.299 70.6992C287.399 70.6992 287.6 70.7992 287.6 70.9992Z" fill="#3085FE"/>
<path d="M266.6 92.2996H262.8V71.3996C262.8 66.4996 258.8 62.4996 253.9 62.4996C249 62.4996 245 66.4996 245 71.3996V92.2996H241.2V71.3996C241.2 64.3996 246.9 58.5996 254 58.5996C261.1 58.5996 266.8 64.2996 266.8 71.3996V92.2996H266.6Z" fill="#3085FE"/>
<g opacity="0.3">
<g opacity="0.3">
<g opacity="0.3">
<path opacity="0.3" d="M266.6 92.2996H262.8V71.3996C262.8 66.4996 258.8 62.4996 253.9 62.4996C249 62.4996 245 66.4996 245 71.3996V92.2996H241.2V71.3996C241.2 64.3996 246.9 58.5996 254 58.5996C261.1 58.5996 266.8 64.2996 266.8 71.3996V92.2996H266.6Z" fill="#3085FE"/>
</g>
</g>
</g>
<path d="M268.8 105.1H238.9C237.7 105.1 236.6 104.1 236.6 102.8V85.3C236.6 84.1 237.6 83 238.9 83H268.8C270 83 271.1 84 271.1 85.3V102.9C271.1 104.1 270.1 105.1 268.8 105.1Z" fill="#3085FE"/>
<g opacity="0.3">
<g opacity="0.3">
<path opacity="0.3" d="M256.699 91.1998C256.699 89.5998 255.399 88.2998 253.799 88.2998C252.199 88.2998 250.899 89.5998 250.899 91.1998C250.899 92.4998 251.799 93.5998 252.999 93.9998V98.2998H254.599V93.9998C255.899 93.5998 256.699 92.4998 256.699 91.1998Z" fill="#3085FE"/>
</g>
</g>
<path d="M238.499 103C238.399 103 238.399 99.2996 238.399 94.7996C238.399 90.2996 238.499 86.5996 238.499 86.5996C238.599 86.5996 238.599 90.2996 238.599 94.7996C238.599 99.2996 238.599 103 238.499 103Z" fill="#3085FE"/>
<path d="M251.6 94.9C251.6 94.9 251.5 94.9 251.3 94.7C251.1 94.6 250.8 94.3 250.6 93.9C250.1 93.2 249.6 91.9 249.9 90.5C250.2 89.1 251.2 88.2 252 87.8C252.4 87.6 252.8 87.5 253 87.5C253.2 87.5 253.4 87.5 253.4 87.5C253.4 87.6 252.9 87.6 252.1 88C251.4 88.4 250.4 89.3 250.1 90.6C249.8 91.9 250.2 93.1 250.7 93.8C251.2 94.5 251.7 94.8 251.6 94.9Z" fill="#3085FE"/>
<path d="M305 143.8H199C193.9 143.8 189.7 139.6 189.7 134.5V133.4C189.7 128.3 193.9 124.1 199 124.1H305C310.1 124.1 314.3 128.3 314.3 133.4V134.5C314.3 139.6 310.1 143.8 305 143.8Z" fill="#EBEBEB"/>
<path d="M305.9 170.9H199.9C194.8 170.9 190.6 166.7 190.6 161.6V160.5C190.6 155.4 194.8 151.2 199.9 151.2H305.9C311 151.2 315.2 155.4 315.2 160.5V161.6C315.2 166.8 311 170.9 305.9 170.9Z" fill="#EBEBEB"/>
<path d="M224.6 161.1L226.5 162.1L225.7 163.5L223.8 162.4V164.5H222.2V162.4L220.3 163.5L219.5 162.1L221.4 161.1L219.5 160.1L220.3 158.7L222.2 159.8V157.7H223.8V159.8L225.7 158.7L226.5 160.1L224.6 161.1Z" fill="#242E34"/>
<path d="M232.3 161.1L234.2 162.1L233.4 163.5L231.5 162.4V164.5H229.9V162.4L228 163.5L227.2 162.1L229.1 161.1L227.2 160.1L228 158.7L229.9 159.8V157.7H231.5V159.8L233.4 158.7L234.2 160.1L232.3 161.1Z" fill="#242E34"/>
<path d="M240.1 161.1L242 162.1L241.2 163.5L239.3 162.4V164.5H237.7V162.4L235.8 163.5L235 162.1L236.9 161.1L235 160.1L235.8 158.7L237.7 159.8V157.7H239.3V159.8L241.2 158.7L242 160.1L240.1 161.1Z" fill="#242E34"/>
<path d="M247.8 161.1L249.7 162.1L248.9 163.5L247 162.4V164.5H245.4V162.4L243.5 163.5L242.7 162.1L244.6 161.1L242.7 160.1L243.5 158.7L245.4 159.8V157.7H247V159.8L248.9 158.7L249.7 160.1L247.8 161.1Z" fill="#242E34"/>
<path d="M255.5 161.1L257.4 162.1L256.6 163.5L254.7 162.4V164.5H253.1V162.4L251.2 163.5L250.4 162.1L252.3 161.1L250.4 160.1L251.2 158.7L253.1 159.8V157.7H254.7V159.8L256.6 158.7L257.4 160.1L255.5 161.1Z" fill="#242E34"/>
<path d="M263.2 161.1L265.1 162.1L264.3 163.5L262.4 162.4V164.5H260.8V162.4L258.9 163.5L258.1 162.1L260 161.1L258.1 160.1L258.9 158.7L260.8 159.8V157.7H262.4V159.8L264.3 158.7L265.1 160.1L263.2 161.1Z" fill="#242E34"/>
<path d="M270.9 161.1L272.8 162.1L272 163.5L270.1 162.4V164.5H268.5V162.4L266.6 163.5L265.8 162.1L267.7 161.1L265.8 160.1L266.6 158.7L268.5 159.8V157.7H270.1V159.8L272 158.7L272.8 160.1L270.9 161.1Z" fill="#242E34"/>
<path d="M278.6 161.1L280.5 162.1L279.7 163.5L277.8 162.4V164.5H276.2V162.4L274.3 163.5L273.5 162.1L275.4 161.1L273.5 160.1L274.3 158.7L276.2 159.8V157.7H277.8V159.8L279.7 158.7L280.5 160.1L278.6 161.1Z" fill="#242E34"/>
<path d="M362.9 306.2H213.9C210.4 306.2 207.5 303.3 207.5 299.8V222.7C207.5 219.2 210.4 216.3 213.9 216.3H362.9C366.4 216.3 369.3 219.2 369.3 222.7V299.8C369.2 303.3 366.4 306.2 362.9 306.2Z" fill="white"/>
<path d="M362.9 306.2C362.9 306.2 363.3 306.2 364.2 306C365 305.8 366.2 305.4 367.4 304.3C368 303.7 368.5 303 368.8 302C369 301.5 369.1 301 369.2 300.5C369.2 300 369.2 299.4 369.2 298.8C369.2 296.4 369.2 293.6 369.2 290.5C369.2 278 369.2 260 369.1 237.7C369.1 234.9 369.1 232.1 369.1 229.1C369.1 227.6 369.1 226.2 369.1 224.7C369.1 223.2 369.3 221.7 368.6 220.3C368 218.9 367 217.8 365.6 217.1C364.9 216.8 364.2 216.5 363.4 216.5C362.7 216.4 361.8 216.5 361.1 216.5C357.9 216.5 354.7 216.5 351.4 216.5C338.3 216.5 324.3 216.5 309.6 216.5C280.1 216.5 247.8 216.5 213.8 216.5C212.8 216.5 211.8 216.8 210.9 217.2C210 217.7 209.2 218.4 208.7 219.2C208.2 220.1 207.8 221 207.7 222C207.7 223 207.7 224.1 207.7 225.1C207.7 229.3 207.7 233.5 207.7 237.6C207.7 245.9 207.7 254 207.7 262C207.7 270 207.7 277.9 207.7 285.6C207.7 289.5 207.7 293.3 207.7 297C207.7 297.9 207.7 298.9 207.7 299.8C207.7 300.7 208 301.6 208.4 302.4C209.2 304 210.8 305.2 212.5 305.5C213.4 305.7 214.3 305.6 215.2 305.6C216.1 305.6 217 305.6 217.9 305.6C219.7 305.6 221.5 305.6 223.3 305.6C226.9 305.6 230.4 305.6 233.9 305.6C240.9 305.6 247.7 305.6 254.2 305.6C267.3 305.6 279.5 305.6 290.6 305.6C312.9 305.6 330.9 305.7 343.4 305.7C349.6 305.7 354.5 305.7 357.7 305.7C359.3 305.7 360.6 305.7 361.4 305.7C362.4 306.2 362.9 306.2 362.9 306.2C362.9 306.2 362.5 306.2 361.6 306.2C360.7 306.2 359.5 306.2 357.9 306.2C354.6 306.2 349.8 306.2 343.6 306.2C331.1 306.2 313.1 306.2 290.8 306.3C279.7 306.3 267.5 306.3 254.4 306.3C247.9 306.3 241.1 306.3 234.1 306.3C230.6 306.3 227.1 306.3 223.5 306.3C221.7 306.3 219.9 306.3 218.1 306.3C217.2 306.3 216.3 306.3 215.4 306.3C214.5 306.3 213.6 306.4 212.6 306.2C210.7 305.8 209 304.6 208.1 302.8C207.6 301.9 207.4 301 207.3 300C207.3 299 207.3 298.1 207.3 297.2C207.3 293.4 207.3 289.6 207.3 285.8C207.3 278.1 207.3 270.2 207.3 262.2C207.3 254.2 207.3 246 207.3 237.8C207.3 233.7 207.3 229.5 207.3 225.3C207.3 224.2 207.3 223.2 207.3 222.1C207.4 221 207.8 219.9 208.3 219C208.9 218.1 209.7 217.3 210.7 216.8C211.7 216.3 212.8 216 213.9 216C247.9 216 280.3 216 309.7 216C324.4 216 338.4 216 351.5 216C354.8 216 358 216 361.2 216C362 216 362.8 216 363.6 216C364.4 216.1 365.2 216.3 365.9 216.7C367.3 217.4 368.5 218.7 369 220.1C369.3 220.8 369.5 221.6 369.5 222.4C369.5 223.2 369.5 223.9 369.5 224.7C369.5 226.2 369.5 227.7 369.5 229.1C369.5 232 369.5 234.9 369.5 237.7C369.5 260 369.4 278 369.4 290.5C369.4 293.6 369.4 296.4 369.4 298.8C369.4 299.4 369.4 300 369.4 300.5C369.3 301.1 369.2 301.6 369 302.1C368.6 303.1 368.1 303.8 367.5 304.4C366.3 305.6 365 306 364.2 306.1C363.8 306.2 363.5 306.2 363.3 306.2C363 306.2 362.9 306.2 362.9 306.2Z" fill="#242E34"/>
<path d="M263.8 248V249.1H259.1V243.1H263.7V244.2H260.5V245.5H263.3V246.6H260.5V248H263.8Z" fill="#242E34"/>
<path d="M270.5 243.1V249.1H269.4L266.4 245.4V249.1H265V243.1H266.2L269.2 246.8V243.1H270.5Z" fill="#242E34"/>
<path d="M273.2 244.3H271.3V243.2H276.6V244.3H274.7V249.2H273.3V244.3H273.2Z" fill="#242E34"/>
<path d="M281.9 248V249.1H277.2V243.1H281.8V244.2H278.6V245.5H281.4V246.6H278.6V248H281.9Z" fill="#242E34"/>
<path d="M286.9 249.2L285.7 247.5H285.6H284.4V249.2H283V243.2H285.6C287.2 243.2 288.2 244 288.2 245.4C288.2 246.3 287.7 247 287 247.3L288.4 249.2H286.9ZM285.6 244.3H284.5V246.4H285.6C286.5 246.4 286.9 246 286.9 245.3C286.9 244.7 286.5 244.3 285.6 244.3Z" fill="#242E34"/>
<path d="M291.5 246.1C291.5 244.3 292.899 243 294.799 243C295.799 243 296.699 243.4 297.299 244.1L296.4 244.9C296 244.4 295.5 244.2 294.9 244.2C293.8 244.2 293 245 293 246.1C293 247.2 293.8 248 294.9 248C295.5 248 296 247.8 296.4 247.3L297.299 248.1C296.699 248.8 295.899 249.2 294.799 249.2C292.899 249.3 291.5 248 291.5 246.1Z" fill="#242E34"/>
<path d="M297.7 246.1C297.7 244.3 299.1 243 301 243C302.9 243 304.3 244.3 304.3 246.1C304.3 247.9 302.9 249.2 301 249.2C299.1 249.3 297.7 247.9 297.7 246.1ZM302.9 246.1C302.9 245 302.1 244.2 301 244.2C299.9 244.2 299.1 245 299.1 246.1C299.1 247.2 299.9 248 301 248C302.1 248.1 302.9 247.3 302.9 246.1Z" fill="#242E34"/>
<path d="M305.3 243.1H308C310 243.1 311.3 244.3 311.3 246.1C311.3 247.9 309.9 249.1 308 249.1H305.3V243.1ZM308 248C309.2 248 310 247.3 310 246.1C310 244.9 309.2 244.2 308 244.2H306.7V247.9H308V248Z" fill="#242E34"/>
<path d="M317.2 248V249.1H312.5V243.1H317.1V244.2H313.9V245.5H316.7V246.6H313.9V248H317.2Z" fill="#242E34"/>
<path d="M240.9 289.6H226.2C224 289.6 222.2 287.8 222.2 285.6V262.7C222.2 260.5 224 258.7 226.2 258.7H240.9C243.1 258.7 244.9 260.5 244.9 262.7V285.6C244.8 287.8 243.1 289.6 240.9 289.6Z" fill="#EBEBEB"/>
<path d="M269.1 289.6H254.4C252.2 289.6 250.4 287.8 250.4 285.6V262.7C250.4 260.5 252.2 258.7 254.4 258.7H269.1C271.3 258.7 273.1 260.5 273.1 262.7V285.6C273 287.8 271.3 289.6 269.1 289.6Z" fill="#EBEBEB"/>
<path d="M297.3 289.6H282.6C280.4 289.6 278.6 287.8 278.6 285.6V262.7C278.6 260.5 280.4 258.7 282.6 258.7H297.3C299.5 258.7 301.3 260.5 301.3 262.7V285.6C301.3 287.8 299.5 289.6 297.3 289.6Z" fill="#EBEBEB"/>
<path d="M325.5 289.6H310.8C308.6 289.6 306.8 287.8 306.8 285.6V262.7C306.8 260.5 308.6 258.7 310.8 258.7H325.5C327.7 258.7 329.5 260.5 329.5 262.7V285.6C329.5 287.8 327.7 289.6 325.5 289.6Z" fill="#EBEBEB"/>
<path d="M353.7 289.6H339C336.8 289.6 335 287.8 335 285.6V262.7C335 260.5 336.8 258.7 339 258.7H353.7C355.9 258.7 357.7 260.5 357.7 262.7V285.6C357.7 287.8 355.9 289.6 353.7 289.6Z" fill="#EBEBEB"/>
<path d="M238.5 276.6C238.5 278.8 236.8 280.2 234.5 280.2C231.3 280.2 229.7 277.9 229.7 274.2C229.7 270.1 231.9 268 235 268C236 268 237 268.2 237.7 268.6L237.3 269.3C236.7 268.9 235.8 268.8 234.9 268.8C232.2 268.8 230.4 270.6 230.4 274.1C230.4 274.5 230.4 275 230.5 275.5C231 273.9 232.5 273 234.3 273C236.9 273 238.5 274.4 238.5 276.6ZM237.6 276.6C237.6 274.9 236.4 273.8 234.3 273.8C232.3 273.8 231 275.1 231 276.7C231 278.1 232.2 279.5 234.4 279.5C236.3 279.5 237.6 278.3 237.6 276.6Z" fill="#3085FE"/>
<path d="M266.4 276.8H263.9V280.1H263V276.8H256.2V276.2L262.7 268.1H263.7L257.3 276H263.1V273.1H263.9V276H266.4V276.8Z" fill="#3085FE"/>
<path d="M295.5 281.8C295.5 281.9 293.2 282.1 290.3 282.1C287.4 282.1 285.1 282 285.1 281.8C285.1 281.7 287.4 281.5 290.3 281.5C293.1 281.6 295.5 281.7 295.5 281.8Z" fill="#3085FE"/>
<path d="M217.7 227.699C219.025 227.699 220.1 226.625 220.1 225.299C220.1 223.974 219.025 222.899 217.7 222.899C216.374 222.899 215.3 223.974 215.3 225.299C215.3 226.625 216.374 227.699 217.7 227.699Z" fill="#242E34"/>
<path d="M227.2 225.3C227.2 226.7 226.1 227.7 224.8 227.7C223.4 227.7 222.4 226.6 222.4 225.3C222.4 223.9 223.5 222.9 224.8 222.9C226.1 222.8 227.2 223.9 227.2 225.3Z" fill="#242E34"/>
<path d="M231.7 227.699C233.025 227.699 234.1 226.625 234.1 225.299C234.1 223.974 233.025 222.899 231.7 222.899C230.374 222.899 229.3 223.974 229.3 225.299C229.3 226.625 230.374 227.699 231.7 227.699Z" fill="#242E34"/>
<path d="M369.5 232.2C369.5 232.3 333.3 232.5 288.6 232.5C243.9 232.5 207.7 232.4 207.7 232.2C207.7 232.1 243.9 231.9 288.6 231.9C333.3 231.9 369.5 232 369.5 232.2Z" fill="#242E34"/>
<path d="M187.8 105.9H109.9C107.7 105.9 105.8 107.7 105.8 110V145.5C105.8 147.7 107.6 149.6 109.9 149.6H142.6L149.5 158.5L155.3 149.6H187.8C190 149.6 191.9 147.8 191.9 145.5V110C191.8 107.7 190 105.9 187.8 105.9Z" fill="white"/>
<path d="M187.8 105.9C187.8 105.9 187.9 105.9 188.2 105.9C188.5 105.9 188.8 106 189.3 106.1C189.8 106.3 190.3 106.6 190.8 107.1C191.3 107.6 191.7 108.4 191.9 109.4C192 113.3 192 118.9 192 126C192 129.6 192 133.5 192 137.8C192 139.9 192 142.1 192 144.4C192 145 192 145.6 191.9 146.2C191.8 146.8 191.5 147.4 191.2 147.9C190.5 148.9 189.3 149.6 188 149.6C178.2 149.6 167.2 149.6 155.3 149.6L155.5 149.5C153.7 152.3 151.7 155.3 149.7 158.4L149.5 158.7L149.3 158.4C147.1 155.6 144.8 152.6 142.4 149.5L142.6 149.6C133.6 149.6 124.2 149.6 114.5 149.6C113.4 149.6 112.2 149.6 111.1 149.6C110.5 149.6 110 149.6 109.4 149.6C108.8 149.5 108.2 149.3 107.7 149C106.7 148.4 105.9 147.4 105.7 146.2C105.6 145.6 105.6 145 105.6 144.5V142.8C105.6 138.4 105.6 134.1 105.6 129.8C105.6 125.5 105.6 121.4 105.6 117.3C105.6 115.3 105.6 113.2 105.6 111.2V109.7C105.6 109.2 105.7 108.6 105.9 108.2C106.3 107.2 107 106.4 107.9 105.9C108.4 105.7 108.9 105.5 109.4 105.5C109.9 105.5 110.4 105.5 110.9 105.5C111.9 105.5 112.8 105.5 113.8 105.5C115.7 105.5 117.6 105.5 119.4 105.5C123.1 105.5 126.7 105.5 130.2 105.5C137.2 105.5 143.6 105.5 149.5 105.5C161.3 105.5 170.9 105.6 177.5 105.6C180.8 105.6 183.4 105.6 185.1 105.6C186 105.6 186.6 105.6 187.1 105.6C187.5 105.9 187.8 105.9 187.8 105.9C187.8 105.9 187.6 105.9 187.1 105.9C186.6 105.9 186 105.9 185.1 105.9C183.3 105.9 180.8 105.9 177.5 105.9C170.9 105.9 161.3 105.9 149.5 106C143.6 106 137.1 106 130.2 106C126.7 106 123.1 106 119.4 106C117.5 106 115.7 106 113.8 106C112.8 106 111.9 106 110.9 106C110.4 106 109.9 106 109.5 106C109 106 108.6 106.2 108.2 106.4C107.4 106.8 106.7 107.6 106.4 108.4C106.2 108.8 106.1 109.3 106.1 109.8V111.3C106.1 113.3 106.1 115.3 106.1 117.4C106.1 121.5 106.1 125.7 106.1 129.9C106.1 134.2 106.1 138.5 106.1 142.9V144.6C106.1 145.2 106.1 145.7 106.2 146.2C106.4 147.2 107.1 148.1 108 148.6C108.4 148.9 109 149 109.5 149.1C110 149.1 110.6 149.1 111.1 149.1C112.2 149.1 113.3 149.1 114.5 149.1C124.2 149.1 133.6 149.1 142.6 149.1H142.7L142.8 149.2C145.2 152.3 147.5 155.3 149.7 158.1H149.3C151.3 155 153.3 152 155.1 149.2L155.2 149.1H155.3C167.2 149.1 178.2 149.1 188 149.1C189.2 149.1 190.3 148.5 190.9 147.5C191.2 147 191.5 146.5 191.6 146C191.7 145.5 191.7 144.9 191.7 144.3C191.7 142 191.7 139.8 191.7 137.7C191.7 133.4 191.7 129.5 191.7 125.9C191.7 118.8 191.7 113.2 191.7 109.3C191.6 108.4 191.2 107.6 190.7 107C190.2 106.5 189.7 106.1 189.2 106C188.3 105.9 187.8 106 187.8 105.9Z" fill="#242E34"/>
<path d="M134.2 115.9V117.2H133.3V115.9L131.9 113.5H132.8L133.8 115.1L134.8 113.5H135.6L134.2 115.9Z" fill="#242E34"/>
<path d="M135.6 115.4C135.6 114.3 136.5 113.5 137.6 113.5C138.8 113.5 139.6 114.3 139.6 115.4C139.6 116.5 138.7 117.3 137.6 117.3C136.5 117.3 135.6 116.5 135.6 115.4ZM138.8 115.4C138.8 114.7 138.3 114.2 137.6 114.2C136.9 114.2 136.4 114.7 136.4 115.4C136.4 116.1 136.9 116.6 137.6 116.6C138.3 116.6 138.8 116.1 138.8 115.4Z" fill="#242E34"/>
<path d="M140.3 115.6V113.5H141.2V115.5C141.2 116.2 141.5 116.5 142 116.5C142.5 116.5 142.8 116.2 142.8 115.5V113.5H143.6V115.6C143.6 116.7 143 117.3 141.9 117.3C140.9 117.3 140.3 116.7 140.3 115.6Z" fill="#242E34"/>
<path d="M146.9 117.2L146.2 116.2H145.5V117.2H144.6V113.5H146.2C147.2 113.5 147.8 114 147.8 114.8C147.8 115.4 147.5 115.8 147 116L147.8 117.2H146.9ZM146.1 114.2H145.4V115.5H146.1C146.6 115.5 146.9 115.3 146.9 114.9C146.9 114.5 146.6 114.2 146.1 114.2Z" fill="#242E34"/>
<path d="M149.7 115.4C149.7 114.3 150.6 113.5 151.7 113.5C152.3 113.5 152.9 113.7 153.2 114.2L152.6 114.7C152.4 114.4 152 114.3 151.7 114.3C151 114.3 150.5 114.8 150.5 115.5C150.5 116.2 151 116.7 151.7 116.7C152.1 116.7 152.4 116.6 152.6 116.3L153.2 116.8C152.9 117.2 152.3 117.5 151.7 117.5C150.5 117.3 149.7 116.5 149.7 115.4Z" fill="#242E34"/>
<path d="M153.5 115.4C153.5 114.3 154.4 113.5 155.5 113.5C156.7 113.5 157.5 114.3 157.5 115.4C157.5 116.5 156.6 117.3 155.5 117.3C154.4 117.3 153.5 116.5 153.5 115.4ZM156.7 115.4C156.7 114.7 156.2 114.2 155.5 114.2C154.8 114.2 154.3 114.7 154.3 115.4C154.3 116.1 154.8 116.6 155.5 116.6C156.2 116.6 156.7 116.1 156.7 115.4Z" fill="#242E34"/>
<path d="M158.2 113.5H159.9C161.1 113.5 161.9 114.2 161.9 115.4C161.9 116.5 161.1 117.3 159.9 117.3H158.2V113.5ZM159.8 116.5C160.5 116.5 161 116.1 161 115.4C161 114.7 160.5 114.3 159.8 114.3H159V116.6H159.8V116.5Z" fill="#242E34"/>
<path d="M165.4 116.5V117.2H162.5V113.5H165.3V114.2H163.4V115H165.1V115.7H163.4V116.6H165.4V116.5Z" fill="#242E34"/>
<path d="M180.2 141.5H117.5C115.5 141.5 114 139.9 114 138V124.8C114 122.8 115.6 121.3 117.5 121.3H180.2C182.2 121.3 183.7 122.9 183.7 124.8V138C183.7 139.9 182.1 141.5 180.2 141.5Z" fill="#F5F5F5"/>
<path d="M128.1 132.5C128.1 134.3 126.7 135.5 124.8 135.5C122.2 135.5 120.8 133.6 120.8 130.6C120.8 127.3 122.6 125.6 125.2 125.6C126 125.6 126.8 125.7 127.4 126.1L127.1 126.7C126.6 126.4 125.9 126.2 125.2 126.2C123 126.2 121.5 127.6 121.5 130.5C121.5 130.8 121.5 131.2 121.6 131.7C122 130.4 123.2 129.7 124.7 129.7C126.8 129.6 128.1 130.8 128.1 132.5ZM127.4 132.6C127.4 131.2 126.4 130.3 124.7 130.3C123.1 130.3 122 131.3 122 132.6C122 133.8 123 134.9 124.8 134.9C126.3 134.9 127.4 134 127.4 132.6Z" fill="#3085FE"/>
<path d="M141.2 132.7H139.1V135.4H138.4V132.7H132.8V132.2L138.1 125.6H138.9L133.7 132.1H138.4V129.7H139.1V132.1H141.2V132.7Z" fill="#3085FE"/>
<path d="M152.1 132.7C152.1 134.3 150.9 135.5 148.7 135.5C147.3 135.5 145.9 135 145.2 134.2L145.6 133.7C146.2 134.4 147.4 134.9 148.7 134.9C150.5 134.9 151.4 134.1 151.4 132.7C151.4 131.4 150.5 130.5 148.5 130.5H147.9V130L150.8 126.3H145.6V125.7H151.8V126.2L148.8 130C151 129.9 152.1 131.1 152.1 132.7Z" fill="#3085FE"/>
<path d="M164 125.6V126.1L159.8 135.4H159L163.2 126.2H157.7V128.1H157V125.6H164Z" fill="#3085FE"/>
<path d="M169 130.5C169 127.4 170.6 125.5 172.9 125.5C175.2 125.5 176.8 127.4 176.8 130.5C176.8 133.6 175.2 135.5 172.9 135.5C170.6 135.5 169 133.6 169 130.5ZM176 130.5C176 127.8 174.7 126.2 172.9 126.2C171 126.2 169.8 127.8 169.8 130.5C169.8 133.2 171.1 134.8 172.9 134.8C174.8 134.9 176 133.3 176 130.5Z" fill="#3085FE"/>
<path d="M383.5 388.099C396.6 382.499 411.7 371.599 418.5 358.199C404.4 363.899 391.9 374.499 383.5 388.099Z" fill="#242E34"/>
<path d="M386.3 367.299C399.4 361.699 414.5 350.799 421.3 337.399C407.1 343.099 394.7 353.699 386.3 367.299Z" fill="#242E34"/>
<path d="M390 347C403.1 341.4 418.2 330.5 425 317.1C410.9 322.8 398.5 333.5 390 347Z" fill="#242E34"/>
<path d="M394.8 325.899C407.2 318.599 420.9 305.599 426 291.399C412.7 298.999 401.6 311.199 394.8 325.899Z" fill="#242E34"/>
<path d="M399.9 309.6C408.9 297.8 417.3 280.3 417.2 265.1C407.3 277.6 401.1 293.4 399.9 309.6Z" fill="#242E34"/>
<path d="M397.4 317.4C395.6 301.5 389.4 281.5 378.9 269.5C380.5 286.5 387.1 303.6 397.4 317.4Z" fill="#242E34"/>
<path d="M393.1 334.8C389.9 318.4 381.8 298.1 369.9 286.6C373 304.2 381.3 321.3 393.1 334.8Z" fill="#242E34"/>
<path d="M388.3 356C385.1 339.6 377 319.3 365.1 307.8C368.2 325.4 376.4 342.5 388.3 356Z" fill="#242E34"/>
<path d="M384.4 382.099C381.2 365.699 373.1 345.399 361.2 333.899C364.3 351.499 372.5 368.599 384.4 382.099Z" fill="#242E34"/>
<path d="M400.5 306.5C400.5 306.5 400.5 306.6 400.4 306.7C400.3 306.9 400.3 307.1 400.2 307.4C400 308.1 399.7 309 399.3 310.2C398.5 312.7 397.4 316.3 396.2 320.7C394.9 325.2 393.6 330.5 392.1 336.4C390.7 342.4 389.3 348.9 388 355.9C386.7 362.8 385.6 369.5 384.8 375.6C384 381.7 383.3 387.1 382.9 391.7C382.4 396.3 382.1 400 382 402.6C381.9 403.9 381.9 404.9 381.8 405.6C381.8 405.9 381.8 406.2 381.8 406.4C381.8 406.2 381.9 405.9 381.9 405.6C382 404.9 382.1 403.9 382.2 402.6C382.4 400 382.8 396.3 383.3 391.7C383.8 387.1 384.5 381.6 385.3 375.6C386.2 369.5 387.3 362.9 388.6 356C389.9 349.1 391.3 342.5 392.7 336.5C394.1 330.5 395.4 325.2 396.6 320.7C397.8 316.2 398.8 312.6 399.5 310.1C399.8 308.9 400.1 307.9 400.3 307.2C400.4 306.9 400.4 306.6 400.5 306.5Z" fill="#242E34"/>
<path d="M377.1 396.7C382.7 385.1 386.7 368.7 384 356C377.8 368.3 375.4 382.8 377.1 396.7Z" fill="#455A64"/>
<path d="M367.9 381.7C373.5 370.1 377.5 353.7 374.8 341C368.6 353.3 366.1 367.8 367.9 381.7Z" fill="#455A64"/>
<path d="M359.6 366.399C365.2 354.799 369.2 338.399 366.5 325.699C360.3 337.999 357.8 352.499 359.6 366.399Z" fill="#455A64"/>
<path d="M351.4 349.9C355.5 337.6 357.6 320.8 353.4 308.5C348.8 321.6 348 336.3 351.4 349.9Z" fill="#455A64"/>
<path d="M346.1 336.3C345.7 323.2 341.8 306.8 333.7 297.1C333.9 311.2 338.3 325.2 346.1 336.3Z" fill="#455A64"/>
<path d="M348.6 342.8C339 333.7 324.3 324.7 311.2 323.5C321.3 333.5 334.6 340.3 348.6 342.8Z" fill="#455A64"/>
<path d="M355.1 356.6C344.3 348 328.3 340 314.4 340C325.8 349.4 340.2 355.3 355.1 356.6Z" fill="#455A64"/>
<path d="M363.2 373.2C352.4 364.6 336.4 356.6 322.5 356.6C333.9 366 348.3 371.9 363.2 373.2Z" fill="#455A64"/>
<path d="M374.5 392.299C363.7 383.699 347.7 375.699 333.8 375.699C345.2 385.099 359.7 390.999 374.5 392.299Z" fill="#455A64"/>
<path d="M344.8 334C344.8 334 344.8 334.1 344.9 334.2C345 334.4 345 334.6 345.1 334.8C345.3 335.4 345.6 336.2 346 337.2C346.8 339.2 348 342.2 349.5 345.8C352.6 353 357.1 362.8 362.8 373.3C365.6 378.6 368.5 383.5 371.2 387.9C373.9 392.3 376.4 396.3 378.6 399.5C380.8 402.8 382.6 405.4 383.8 407.1C384.4 408 384.9 408.6 385.3 409.1C385.5 409.3 385.6 409.5 385.7 409.6C385.6 409.5 385.5 409.3 385.3 409C385 408.5 384.5 407.8 383.9 406.9C382.7 405.1 380.9 402.5 378.8 399.2C376.7 395.9 374.2 392 371.5 387.5C368.9 383.1 366 378.1 363.2 372.9C357.5 362.4 352.9 352.6 349.8 345.5C348.2 341.9 347 339 346.1 337C345.7 336 345.4 335.2 345.1 334.7C345 334.5 344.9 334.3 344.8 334.1C344.9 334 344.9 334 344.8 334Z" fill="#242E34"/>
<path d="M350.7 398.1H405.8V408.8H400.1L395.4 439.1H361.3L356.4 408.8H350.7V398.1Z" fill="#3085FE"/>
<path d="M350.7 408.6C350.7 408.5 363 408.3 378.1 408.3C393.2 408.3 405.5 408.4 405.5 408.6C405.5 408.7 393.2 408.9 378.1 408.9C362.9 408.8 350.7 408.7 350.7 408.6Z" fill="#242E34"/>
<path d="M34.6999 439.1H25.6999L22.3999 398.8H32.9999L34.6999 439.1Z" fill="#242E34"/>
<path d="M112.3 439.1H121.2L124.5 398.8H114L112.3 439.1Z" fill="#242E34"/>
<path d="M130.7 403.9L15.4999 406.6L11.9999 332.2C11.6999 324.9 17.4999 318.8 24.7999 318.8H123C130.4 318.8 136.3 325.1 135.8 332.5L130.7 403.9Z" fill="#3085FE"/>
<path d="M136.6 331.9C136.6 331.9 136.5 331.9 136.3 331.9C136.1 331.9 135.7 331.9 135.4 331.9C134.5 331.9 133.3 331.9 131.8 332C128.6 332 124.1 332 118.4 332C107.1 332 91.5 331.9 74.3 332.3C57.1 332.9 41.5 332.8 30.2 332.6C24.6 332.5 20 332.4 16.8 332.3C15.3 332.2 14 332.2 13.2 332.2C12.8 332.2 12.5 332.2 12.3 332.2C12.5 332.2 12.9 332.2 13.2 332.2C14.1 332.2 15.3 332.2 16.8 332.2C20 332.2 24.5 332.3 30.2 332.3C41.5 332.4 57.1 332.4 74.3 331.8C91.5 331.4 107.1 331.6 118.4 331.7C124 331.7 128.6 331.8 131.8 331.8C133.4 331.8 134.6 331.8 135.4 331.8C135.8 331.8 136.1 331.8 136.3 331.8C136.5 331.9 136.6 331.9 136.6 331.9Z" fill="#242E34"/>
<path d="M53.9998 320C53.9998 320.2 50.3998 320.2 46.4998 322.2C42.5998 324.2 40.3998 327.1 40.2998 326.9C40.2998 326.9 40.6998 326.1 41.6998 325C42.6998 323.9 44.2998 322.7 46.1998 321.6C48.1998 320.6 50.0998 320.1 51.5998 319.9C53.0998 319.8 53.9998 319.9 53.9998 320Z" fill="#242E34"/>
<path d="M101.4 184.601L115.5 210.301L136.1 198.801L146.1 202.101C146.1 202.101 120.8 229.601 116.7 230.901C112.6 232.301 104.8 232.601 100.4 227.001C96.3996 221.901 84.5996 195.301 84.5996 195.301L101.4 184.601Z" fill="#FFBE9D"/>
<path d="M159.4 167.801C159 167.301 158.5 167.101 157.9 167.201L148.1 168.501C147.2 168.601 146.5 169.101 146 169.901L125.6 201.201L127.2 202.101L138.1 201.801L159.8 168.201L159.4 167.801Z" fill="#242E34"/>
<path d="M152.4 171.901C152.6 172.101 153 172.001 153.2 171.701C153.4 171.401 153.5 171.001 153.3 170.901C153.1 170.701 152.7 170.801 152.5 171.101C152.3 171.301 152.2 171.701 152.4 171.901Z" fill="white"/>
<path d="M159.7 168.201C159.7 168.201 159 168.401 157.8 168.601C156.5 168.801 154.7 169.101 152.6 169.401C151.5 169.601 150.3 169.701 149 169.901C148.4 170.001 147.8 170.301 147.5 170.801C147.1 171.401 146.7 172.001 146.3 172.601C144.7 175.101 142.9 177.801 141.1 180.601C137.4 186.301 134 191.401 131.5 195.101C130.3 196.901 129.3 198.301 128.5 199.501C127.8 200.501 127.4 201.101 127.3 201.101C127.3 201.101 127.6 200.501 128.3 199.401C129 198.301 130 196.801 131.1 194.901C133.5 191.101 136.8 186.001 140.5 180.301C142.4 177.501 144.1 174.801 145.7 172.301C146.1 171.701 146.5 171.101 146.9 170.501C147.3 169.901 148.1 169.501 148.8 169.401C150.1 169.201 151.3 169.101 152.4 168.901C154.5 168.601 156.3 168.401 157.6 168.301C159 168.201 159.7 168.201 159.7 168.201Z" fill="#455A64"/>
<path d="M148.8 179.401C148.8 179.401 147.9 179.201 147.4 181.601C146.9 184.001 145.4 190.901 145.4 190.901L140.8 188.501L135.1 189.201C135.1 189.201 133.8 190.401 134.8 191.001C135.7 191.601 139.3 192.301 139.3 192.301L142 196.101L134.3 192.401C134.3 192.401 131.7 193.101 132.5 194.601C133.2 196.201 138.4 201.001 138.4 201.001L134.6 200.701L130 198.001C130 198.001 128.6 198.101 129.1 199.301C129.6 200.501 134.4 204.801 134.4 204.801L140.2 207.601C140.2 207.601 143.3 207.401 143.6 206.401C143.9 205.501 144 204.201 144 204.201C144 204.201 145.7 203.801 146 202.901C146.3 202.101 146.1 200.801 146.1 200.801C146.1 200.801 148.7 201.301 149 199.801C149.3 198.301 149.1 195.501 148.8 194.301C148.5 193.201 149.9 182.701 149.8 182.401C149.7 182.201 150.4 178.701 148.8 179.401Z" fill="#FFBE9D"/>
<path d="M143.799 206.401C143.799 206.501 143.299 206.701 142.299 206.901C141.299 207.101 139.999 207.101 138.499 206.701C136.999 206.401 135.799 205.701 134.999 205.101C134.199 204.501 133.799 204.101 133.899 204.001C133.999 203.901 135.799 205.401 138.599 206.101C141.499 206.901 143.799 206.301 143.799 206.401Z" fill="#EB996E"/>
<path d="M142.5 204.401C142.4 204.501 141.4 204.001 140.3 203.101C139.2 202.201 138.5 201.301 138.6 201.201C138.7 201.101 139.6 201.801 140.7 202.601C141.7 203.501 142.6 204.201 142.5 204.401Z" fill="#EB996E"/>
<path d="M145.5 199.401C145.4 199.501 144.399 199.001 143.399 198.101C142.399 197.201 141.799 196.201 141.899 196.101C141.999 196.001 142.8 196.801 143.8 197.701C144.8 198.501 145.6 199.301 145.5 199.401Z" fill="#EB996E"/>
<path d="M148.7 195.401C148.5 195.501 148 194.401 147.1 193.201C146.2 192.001 145.3 191.201 145.4 191.001C145.5 190.901 146.6 191.501 147.6 192.801C148.5 194.101 148.8 195.301 148.7 195.401Z" fill="#EB996E"/>
<path d="M152.6 380.9C152.6 380.9 152.7 380.6 152.6 380C152.5 379.4 152.3 378.5 151.6 377.6C151.4 377.4 151.3 377.1 151 376.9C150.8 376.7 150.3 376.5 149.9 376.7C149.7 376.8 149.5 376.9 149.4 377.2C149.3 377.4 149.4 377.7 149.4 377.8C149.5 378.2 149.7 378.5 149.9 378.8C150.3 379.4 150.6 380 151.1 380.8C151.3 381.2 151.9 381.5 152.4 381.4C152.9 381.3 153.3 381.1 153.6 380.9C154.3 380.4 154.9 379.8 155.4 379.2C155.7 378.9 155.9 378.6 156.1 378.3C156.3 378 156.5 377.7 156.6 377.2C156.7 376.8 156.5 376.2 156.1 376C155.6 375.8 155.2 376.1 155 376.3C154.5 376.8 154.1 377.2 153.8 377.7C153.2 378.6 152.8 379.4 152.6 380C152.4 380.6 152.4 380.9 152.4 380.9C152.5 380.9 152.8 379.6 154.1 377.9C154.4 377.5 154.8 377 155.3 376.7C155.5 376.5 155.8 376.4 156 376.5C156.2 376.6 156.3 376.8 156.2 377.1C156.1 377.4 155.9 377.7 155.7 378C155.5 378.3 155.3 378.6 155 378.9C154.5 379.5 153.9 380 153.3 380.5C153 380.7 152.7 380.9 152.3 380.9C152 380.9 151.7 380.8 151.5 380.5C151.1 379.9 150.7 379.2 150.4 378.6C150.2 378.3 150 378 149.9 377.7C149.8 377.4 149.9 377.3 150 377.2C150.4 377 150.9 377.5 151.1 377.9C152.5 379.5 152.5 380.9 152.6 380.9Z" fill="#242E34"/>
<path d="M128 381.7L115.8 408.1L96.0996 399L108.7 366.3L128 381.7Z" fill="#FFBE9D"/>
<path d="M118.1 406.4L111 420C111 420 129.2 438.9 127.5 443.1L84.5996 422.5L96.3996 395.2L118.1 406.4Z" fill="#455A64"/>
<path d="M98.5996 411.8C97.6996 411.6 96.5996 412.3 96.3996 413.2C96.1996 414.1 96.8996 415.2 97.7996 415.4C98.6996 415.6 99.9996 414.8 100.1 413.9C100.2 413 99.3996 411.8 98.3996 411.8" fill="#E0E0E0"/>
<g opacity="0.6">
<g opacity="0.6">
<g opacity="0.6">
<g opacity="0.6">
<g opacity="0.6">
<g opacity="0.6">
<g opacity="0.6">
<g opacity="0.6">
<g opacity="0.6">
<g opacity="0.6">
<g opacity="0.6">
<g opacity="0.6">
<path opacity="0.6" d="M84.5996 422.501L86.3996 419.101L126.9 440.101C126.9 440.101 128.4 441.801 127.6 443.101L84.5996 422.501Z" fill="white"/>
</g>
</g>
</g>
</g>
</g>
</g>
</g>
</g>
</g>
</g>
</g>
</g>
<path d="M111.799 420.1C111.699 420.3 110.599 419.9 109.199 420.1C107.799 420.2 106.899 420.9 106.699 420.7C106.499 420.6 107.399 419.5 109.099 419.3C110.799 419.1 111.899 419.9 111.799 420.1Z" fill="#242E34"/>
<path d="M115.4 424.1C115.4 424.3 114.3 424.2 113.1 424.8C111.9 425.3 111.3 426.2 111.1 426.1C110.9 426 111.3 424.7 112.8 424.1C114.2 423.4 115.5 423.9 115.4 424.1Z" fill="#242E34"/>
<path d="M115.4 430.701C115.2 430.701 115.4 429.501 116.5 428.601C117.6 427.701 118.8 427.701 118.8 427.901C118.8 428.101 117.9 428.401 117 429.201C116.1 429.901 115.6 430.801 115.4 430.701Z" fill="#242E34"/>
<path d="M113.8 414.9C113.6 415 112.8 414.3 111.6 413.8C110.4 413.3 109.3 413.2 109.3 413C109.3 412.8 110.5 412.4 112 413C113.3 413.6 114 414.7 113.8 414.9Z" fill="#242E34"/>
<path d="M122.1 402.9L154.3 322.4C154.3 322.4 153.6 308.7 151 304.3C148.5 300 71.7995 274.7 71.7995 274.7C71.7995 274.7 52.2995 270 39.2995 274.7C26.2995 279.4 16.4995 295.7 18.2995 304.7C20.0995 313.7 27.6995 320.4 27.6995 320.4L83.9995 322.1L114.7 333.3L93.9995 392.6L122.1 402.9Z" fill="#242E34"/>
<path d="M150.7 347.8L151.5 377L129.8 377.5L126.7 342.6L150.7 347.8Z" fill="#FFBE9D"/>
<path d="M152.8 374.4L152.4 389.7C152.4 389.7 177.1 398.6 177.4 403.1L129.8 403.6L128.3 373.9L152.8 374.4Z" fill="#455A64"/>
<path d="M137.6 387.801C136.7 388.101 136.1 389.101 136.3 390.001C136.5 390.901 137.6 391.601 138.5 391.301C139.4 391.101 140.2 389.801 139.9 388.901C139.6 388.001 138.3 387.301 137.5 387.801" fill="#E0E0E0"/>
<g opacity="0.6">
<g opacity="0.6">
<g opacity="0.6">
<g opacity="0.6">
<g opacity="0.6">
<g opacity="0.6">
<g opacity="0.6">
<g opacity="0.6">
<g opacity="0.6">
<g opacity="0.6">
<g opacity="0.6">
<g opacity="0.6">
<path opacity="0.6" d="M129.8 403.6L129.9 399.7L175.5 400.7C175.5 400.7 177.6 401.6 177.4 403.1L129.8 403.6Z" fill="white"/>
</g>
</g>
</g>
</g>
</g>
</g>
</g>
</g>
</g>
</g>
</g>
</g>
<path d="M153.1 389.5C153.1 389.7 151.9 389.8 150.8 390.6C149.6 391.3 149.1 392.3 148.9 392.3C148.7 392.3 149 390.9 150.4 390C151.8 389 153.2 389.2 153.1 389.5Z" fill="#242E34"/>
<path d="M158.1 391.501C158.2 391.701 157.2 392.101 156.4 393.101C155.6 394.101 155.4 395.101 155.2 395.101C155 395.101 154.8 393.801 155.8 392.601C156.8 391.401 158.1 391.201 158.1 391.501Z" fill="#242E34"/>
<path d="M161 397.4C160.8 397.5 160.5 396.3 161 395C161.6 393.7 162.7 393.2 162.8 393.4C162.9 393.6 162.2 394.3 161.8 395.3C161.3 396.4 161.3 397.4 161 397.4Z" fill="#242E34"/>
<path d="M152.7 383.9C152.6 384.1 151.5 383.8 150.2 383.9C148.9 384 147.9 384.4 147.7 384.2C147.6 384 148.6 383.2 150.1 383.1C151.7 382.9 152.8 383.7 152.7 383.9Z" fill="#242E34"/>
<path d="M138.1 267C138.1 267 151.1 266 152.5 280.1C153.9 294.2 155.4 360 155.4 360L125 362.5L120.3 295.3L71.8999 274.7C71.8999 274.6 129.4 265.2 138.1 267Z" fill="#242E34"/>
<path d="M84.4997 248C84.4997 248 92.3997 270.1 90.8997 272.6C89.3997 275.1 69.0997 285.2 69.0997 285.2L18.3997 304.7C18.3997 304.7 13.1997 296.4 13.1997 283.7C13.1997 271 30.7997 248 30.7997 248H84.4997Z" fill="#242E34"/>
<path d="M69.4995 273.5C69.4995 273.5 69.5995 273.6 69.6995 273.6C69.8995 273.7 70.0995 273.8 70.3995 273.9C71.0995 274.2 71.9995 274.6 73.1995 275.1C75.6995 276.2 79.2995 277.7 83.6995 279.7C92.6995 283.6 105.4 289.1 120.1 295.4L119.9 295.2C120.4 301.8 120.9 309 121.4 316.4C122.6 333.7 123.8 349.7 124.7 362.4V362.6H124.9C134.1 361.8 141.7 361.1 147 360.7C149.6 360.5 151.7 360.3 153.1 360.1C153.8 360 154.3 360 154.7 359.9C155.1 359.9 155.2 359.8 155.2 359.8C155.2 359.8 155 359.8 154.7 359.8C154.3 359.8 153.8 359.9 153.1 359.9C151.7 360 149.6 360.2 147 360.3C141.7 360.7 134.1 361.3 124.9 362L125.1 362.2C124.2 349.5 123.1 333.6 121.9 316.2C121.4 308.8 120.9 301.6 120.4 295V294.8L120.2 294.7C105.5 288.5 92.7995 283.1 83.6995 279.2C79.1995 277.3 75.5995 275.8 73.0995 274.8C71.8995 274.3 70.8995 273.9 70.2995 273.6C69.9995 273.5 69.7995 273.4 69.5995 273.3C69.5995 273.5 69.4995 273.5 69.4995 273.5Z" fill="#455A64"/>
<path d="M29.0996 275.7C29.0996 275.7 29.5996 275.6 30.4996 275.3C31.4996 275 32.7996 274.6 34.2996 274.1C37.4996 273.1 41.9996 271.7 47.0996 270.9C52.1996 270.1 56.8996 270.4 60.1996 271.1C63.4996 271.8 65.3996 272.7 65.3996 272.6C65.3996 272.6 64.9996 272.3 64.0996 271.9C63.1996 271.5 61.8996 271.1 60.2996 270.7C56.9996 269.9 52.1996 269.6 46.9996 270.4C41.7996 271.2 37.3996 272.7 34.1996 273.8C32.5996 274.4 31.2996 274.9 30.3996 275.2C29.5996 275.5 29.0996 275.7 29.0996 275.7Z" fill="#455A64"/>
<path d="M36.2998 264.1C36.2998 264.2 37.9998 263.9 40.6998 264.1C42.0998 264.2 43.6998 264.4 45.4998 264.6C47.2998 264.8 49.2998 265.1 51.2998 265.4C55.3998 266.1 58.9998 267.6 61.1998 269.1C63.4998 270.6 64.5998 272 64.5998 271.9C64.5998 271.9 64.3998 271.5 63.8998 270.9C63.3998 270.3 62.5998 269.5 61.3998 268.7C59.0998 267.1 55.4998 265.5 51.2998 264.8C49.1998 264.4 47.1998 264.2 45.3998 264C43.5998 263.8 41.8998 263.6 40.5998 263.6C39.1998 263.6 38.0998 263.6 37.2998 263.7C36.6998 263.9 36.2998 264 36.2998 264.1Z" fill="#455A64"/>
<path d="M58.7002 86.4005C52.9002 85.4005 47.7002 87.7005 42.8002 90.9005C37.9002 94.2005 34.2002 99.2005 32.0002 104.7C29.7002 110.5 29.2002 117.1 30.9002 123C32.6002 129 36.7002 134.4 42.3002 137.2C49.9002 141.1 59.6002 139.7 66.4002 134.6C73.2002 129.5 77.1002 121 77.4002 112.5C77.6002 106.6 76.2002 100.6 72.9002 95.8005C69.8002 90.9005 64.5002 87.3005 58.7002 86.4005Z" fill="#242E34"/>
<path d="M42.0997 106.301C42.9997 104.101 42.5997 101.601 42.9997 99.2006C43.6997 94.0006 47.8997 89.8006 52.7997 87.8006C57.2997 85.9006 62.7997 86.3006 68.2997 88.1006C71.9997 89.3006 75.4997 91.4006 77.9997 94.4006C81.2997 98.4006 82.4997 104.101 80.9997 109.101L54.2997 105.201C51.7997 107.301 49.1997 109.401 46.1997 110.501C45.2997 110.801 44.3997 111.101 43.3997 110.901C42.4997 110.801 41.4997 110.101 41.2997 109.201C41.1997 108.201 41.7997 107.301 42.0997 106.301Z" fill="#242E34"/>
<path d="M68.7999 95.4002L45.4999 100.3C43.1999 100.5 41.4999 102.3 41.3999 104.6L41.6999 155C41.6999 158.4 42.8999 161.8 44.9999 164.5L47.1999 167.4C52.2999 173.9 62.4999 173.3 66.3999 166C66.6999 165.5 66.8999 165 66.8999 164.7C66.9999 164.2 67.0999 163.9 67.0999 163.6L67.4999 158.7C67.6999 154.2 67.7999 149.7 67.7999 149.7C67.7999 149.7 77.2999 148.5 79.7999 136.2C80.9999 130.1 81.0999 120 80.8999 111.8C80.7999 104.2 76.1999 94.9002 68.7999 95.4002Z" fill="#FFBE9D"/>
<path d="M77.3997 121.101C77.3997 121.901 76.6997 122.601 75.7997 122.601C74.8997 122.601 74.1997 121.901 74.1997 121.101C74.1997 120.301 74.8997 119.601 75.7997 119.601C76.6997 119.601 77.3997 120.201 77.3997 121.101Z" fill="#242E34"/>
<path d="M78.5999 116.801C78.3999 117.001 77.2 116.101 75.5 116.001C73.8 115.901 72.4999 116.701 72.2999 116.501C72.1999 116.401 72.4 116.001 73 115.701C73.6 115.301 74.5 115.001 75.5 115.001C76.6 115.001 77.4 115.501 77.9 115.901C78.5 116.301 78.6999 116.701 78.5999 116.801Z" fill="#242E34"/>
<path d="M62.2 120.7C62.2 121.5 61.5 122.2 60.6 122.2C59.7 122.2 59 121.5 59 120.7C59 119.9 59.7 119.2 60.6 119.2C61.5 119.2 62.2 119.9 62.2 120.7Z" fill="#242E34"/>
<path d="M62.4002 116.401C62.2002 116.601 61.0002 115.701 59.3002 115.601C57.6002 115.501 56.3002 116.301 56.1002 116.101C56.0002 116.001 56.2002 115.601 56.8002 115.301C57.4002 114.901 58.3002 114.601 59.3002 114.601C60.4002 114.601 61.2002 115.101 61.7002 115.501C62.3002 115.901 62.5002 116.301 62.4002 116.401Z" fill="#242E34"/>
<path d="M67.5002 129.301C67.5002 129.201 68.6002 129.101 70.3002 128.901C70.7002 128.901 71.2001 128.801 71.2001 128.501C71.3001 128.201 71.2002 127.701 71.0002 127.201C70.6002 126.101 70.2002 125.001 69.8002 123.801C68.2002 119.001 67.1001 115.101 67.2001 115.001C67.4001 114.901 68.9002 118.801 70.5002 123.601C70.9002 124.801 71.3002 125.901 71.6002 127.001C71.7002 127.501 72.0002 128.101 71.8002 128.701C71.7002 129.001 71.3002 129.201 71.1002 129.301C70.8002 129.401 70.6002 129.401 70.4002 129.401C68.6002 129.501 67.5002 129.401 67.5002 129.301Z" fill="#242E34"/>
<path d="M67.9 149.5C67.9 149.5 59.6 149.7 51.5 144.4C51.5 144.4 55.3 153.1 67.7 152.4L67.9 149.5Z" fill="#EB996E"/>
<path d="M66.5999 133.4C65.9999 132.6 64.9999 132.1 63.8999 132.2C63.1999 132.3 62.3999 132.6 61.8999 133.2C61.3999 133.8 61.2999 134.6 61.6999 135.2C62.0999 135.9 63.0999 136.1 63.8999 135.9C64.6999 135.7 65.3999 135.2 66.0999 134.7C66.2999 134.6 66.4999 134.4 66.5999 134.2C66.7999 133.9 66.7999 133.6 66.5999 133.4Z" fill="#EB996E"/>
<path d="M62.4999 130.301C62.7999 130.301 62.6999 132.101 64.1999 133.501C65.6999 134.901 67.6999 134.701 67.6999 135.001C67.6999 135.101 67.1999 135.301 66.3999 135.301C65.5999 135.301 64.3999 135.001 63.4999 134.101C62.5999 133.301 62.1999 132.201 62.1999 131.401C62.0999 130.801 62.2999 130.301 62.4999 130.301Z" fill="#242E34"/>
<path d="M62.2997 111.301C62.0997 111.801 60.3997 111.501 58.3997 111.601C56.3997 111.701 54.7997 112.201 54.4997 111.801C54.3997 111.601 54.6997 111.201 55.3997 110.701C56.0997 110.301 57.0997 109.901 58.2997 109.801C59.4997 109.701 60.5997 109.901 61.2997 110.301C61.9997 110.701 62.3997 111.101 62.2997 111.301Z" fill="#242E34"/>
<path d="M78.3997 109.301C78.0997 109.701 76.8997 109.201 75.4997 109.201C74.0997 109.101 72.8997 109.401 72.5997 108.901C72.4997 108.701 72.6997 108.301 73.1997 108.001C73.6997 107.701 74.5997 107.401 75.5997 107.501C76.5997 107.601 77.3997 108.001 77.8997 108.401C78.3997 108.701 78.4997 109.101 78.3997 109.301Z" fill="#242E34"/>
<path d="M37.8997 102.701C40.2997 95.601 50.8997 86.001 58.2997 86.601L70.0997 94.001C69.2997 98.101 66.0997 101.501 62.0997 102.701C59.9997 103.301 57.3997 103.401 56.0997 105.201C54.7997 107.001 55.4997 109.701 54.1997 111.601C52.4997 114.201 47.9997 114.001 46.6997 116.801C46.0997 118.001 46.3997 119.501 45.7997 120.801C44.9997 122.401 40.7997 124.501 39.0997 123.901C37.3997 123.301 37.3997 120.401 36.8997 118.801C35.9997 116.101 36.3997 114.801 36.7997 113.301C37.5997 109.801 36.6997 106.101 37.8997 102.701Z" fill="#242E34"/>
<path d="M44.1998 125.401C44.1998 124.501 43.2998 122.301 42.3998 122.101C39.9998 121.601 35.5998 121.701 35.2998 127.801C34.8998 136.201 43.3998 134.901 43.4998 134.601C43.4998 134.501 44.0998 128.601 44.1998 125.401Z" fill="#FFBE9D"/>
<path d="M40.9999 131.401C40.9999 131.401 40.7999 131.501 40.5999 131.601C40.3999 131.701 39.8999 131.801 39.4999 131.601C38.5999 131.201 37.8999 129.801 37.9999 128.301C37.9999 127.501 38.1999 126.801 38.4999 126.201C38.7999 125.601 39.1999 125.201 39.6999 125.101C40.0999 125.001 40.4999 125.301 40.4999 125.501C40.5999 125.701 40.4999 125.901 40.5999 125.901C40.5999 125.901 40.7999 125.801 40.6999 125.401C40.6999 125.201 40.5999 125.001 40.3999 124.901C40.1999 124.701 39.8999 124.601 39.5999 124.601C38.8999 124.601 38.2999 125.201 37.9999 125.801C37.5999 126.501 37.3999 127.301 37.3999 128.101C37.3999 129.801 38.1999 131.401 39.3999 131.801C39.9999 132.001 40.4999 131.801 40.7999 131.601C40.9999 131.601 40.9999 131.401 40.9999 131.401Z" fill="#EB996E"/>
<path d="M36 100.501C36 97.9009 32.7 96.1009 30.2 95.5009C27.6 94.9009 24.9 95.7009 22.6 96.9009C21.2 97.6009 19.9 98.7009 19.6 100.201C19.3 101.701 20.8 103.501 22.2 103.001C19.4 103.901 18 107.601 19.5 110.201C20.9 112.701 24.8 113.401 27.1 111.601C26.4 114.001 24.8 116.201 22.7 117.601C27 118.201 31.6 116.401 34.3 112.901C37 109.501 37.7 104.601 36 100.501Z" fill="#242E34"/>
<path d="M30.1999 113.9C30.0999 113.9 29.8999 113 29.8999 111.4C29.8999 109.8 30.0999 107.6 30.8999 105.3C31.6999 103 32.7999 101.1 33.7999 99.9003C34.7999 98.7003 35.4999 98.0003 35.5999 98.1003C35.7999 98.2003 32.8999 101 31.3999 105.5C29.7999 110 30.3999 113.9 30.1999 113.9Z" fill="#FF725E"/>
<path d="M67.6001 91.5005C68.4001 94.9005 73.6001 99.3004 75.9001 102C80.3001 107.1 81.1001 108.8 81.1001 120.2C83.2001 116.3 84.7001 112.4 84.6001 108C84.4001 103.6 82.8001 99.1004 79.7001 95.9004C76.6001 92.6004 72.0001 90.8005 67.6001 91.5005Z" fill="#242E34"/>
<path d="M103.3 185.1C103.3 185.1 94.1998 170 91.6998 166.9C89.2998 164 86.2998 162.3 84.2998 161.4C83.1998 160.9 81.9998 160.6 80.7998 160.4L67.6998 157.5C67.6998 157.5 67.6998 166.4 58.2998 167C48.9998 167.6 41.0998 154.5 41.0998 154.5C41.0998 154.5 25.9998 156.8 22.3998 158.7C18.7998 160.6 13.0998 162.9 9.9998 178.5L7.7998 193.8L33.7998 196.2L36.2998 234.8L49.1998 243.8C49.1998 243.8 84.8998 253.1 87.1998 253.7C89.4998 254.3 90.1998 196.2 90.1998 196.2C90.1998 196.2 99.4998 190.3 103.3 185.1Z" fill="#101317"/>
<path d="M86.1997 178.601C86.1997 178.601 86.3997 179.001 86.6997 179.701C86.9997 180.401 87.3997 181.501 87.7997 182.801C88.5997 185.501 89.5997 189.301 90.0997 193.501C90.5997 197.801 90.5997 201.701 90.4997 204.501C90.3997 205.901 90.2997 207.001 90.1997 207.801C90.0997 208.601 89.9997 209.001 89.9997 209.001C89.9997 209.001 89.9997 208.601 89.9997 207.801C90.0997 207.001 90.0997 205.901 90.0997 204.501C90.1997 201.701 90.0997 197.801 89.5997 193.601C89.0997 189.401 88.1997 185.601 87.4997 182.901C87.0997 181.601 86.7997 180.501 86.5997 179.701C86.2997 179.101 86.1997 178.701 86.1997 178.601Z" fill="#455A64"/>
<path d="M85.1 241.9L36.1 231.2L33.8 196.2L12 194.2C12 194.2 12.8 218.1 13.6 225.2C14.8 235.4 20.8 249.4 24.4 252.2C27.9 255 87.2 253.7 87.2 253.7L85.1 241.9Z" fill="#FFBE9D"/>
<path d="M112.9 248.3C112.6 249 111.8 249.4 111.1 249.4C110.9 249.4 110.8 249.4 110.6 249.3C109.5 249 109.6 246.7 109.6 246.7L104.4 245.9C104.4 245.9 97.7002 250.3 95.3002 253.1C92.9002 256 86.8002 253.6 86.8002 253.6L84.7002 242.5L94.2002 233.9C94.2002 233.9 93.6002 234.4 94.3002 232.8C95.0002 231.2 98.0002 231.8 98.0002 231.8C98.5002 231 100.4 230.7 100.4 230.7L108.8 231.7C110.5 231.9 112.1 232.9 113 234.3L116.5 239.9C116.5 239.9 118.4 243.9 118.1 244.9C117.6 246.3 116.1 246 116.1 246C116.1 246 115.7 248.7 115 248.7C114.3 248.9 112.9 248.3 112.9 248.3Z" fill="#FFBE9D"/>
<path d="M95.1 240.3C95.1 240.4 96.2 240.3 98 240.4C99.8 240.5 102.3 240.8 104.8 241.7C106.1 242.1 107.3 242.7 108.3 243.2C109.3 243.8 110.4 244.2 110.7 245C110.9 245.4 110.8 245.7 110.6 246C110.4 246.3 110.2 246.4 110 246.5C109.6 246.7 109.3 246.6 109.3 246.6C109.3 246.6 109.6 246.8 110.1 246.7C110.4 246.6 110.7 246.5 110.9 246.1C111.1 245.8 111.3 245.3 111.1 244.8C110.9 244.3 110.5 243.9 110.1 243.6C109.6 243.3 109.2 243 108.6 242.7C107.5 242.1 106.3 241.6 105 241.1C102.4 240.2 99.8 239.9 98 239.9C96.2 240 95 240.3 95.1 240.3Z" fill="#EB996E"/>
<path d="M94.5 245.7C94.5 245.9 97.9 245.7 102.1 246C106.3 246.2 109.7 246.8 109.7 246.6C109.7 246.5 108.9 246.3 107.5 246.1C106.1 245.9 104.2 245.6 102.1 245.5C100 245.4 98.1 245.4 96.7 245.5C95.3 245.5 94.5 245.6 94.5 245.7Z" fill="#EB996E"/>
<path d="M112.8 248.1C112.8 248.1 112.9 247.8 112.9 247.2C112.9 246.6 113 245.8 112.9 244.7C112.9 244.2 112.8 243.6 112.7 243C112.6 242.4 112.3 241.7 111.9 241.2C111.1 240.1 110.1 238.9 108.8 238C107.5 237.1 106.1 236.4 104.8 236C103.5 235.6 102.2 235.5 101.2 235.4C100.2 235.4 99.2999 235.4 98.7999 235.4C98.1999 235.4 97.8999 235.5 97.8999 235.5C97.8999 235.6 99.1999 235.6 101.2 235.8C102.2 235.9 103.4 236 104.7 236.4C106 236.8 107.3 237.5 108.5 238.4C109.8 239.3 110.8 240.3 111.5 241.5C112.3 242.6 112.5 243.8 112.6 244.8C112.8 246.8 112.7 248.1 112.8 248.1Z" fill="#EB996E"/>
<path d="M100.7 232.9C100.7 233 102 233 104 233.2C105.9 233.5 109 233.6 110.8 236.3C112.7 238.7 114.3 241 115 242.9C115.7 244.8 115.7 246 115.8 246C115.8 246 115.9 245.7 115.8 245.1C115.8 244.5 115.7 243.7 115.3 242.7C114.7 240.7 113 238.4 111.1 235.9C110.6 235.3 110.1 234.7 109.5 234.3C108.9 233.8 108.2 233.6 107.5 233.4C106.2 233 105 232.9 103.9 232.8C102 232.7 100.7 232.8 100.7 232.9Z" fill="#EB996E"/>
<path d="M97.1002 251.301C97.1002 251.301 97.3002 251.201 97.6002 250.901C98.0002 250.601 98.4002 250.201 99.0002 249.801C100.2 248.801 102.1 247.501 104.5 246.001H104.4C105.9 246.301 107.7 246.601 109.6 246.901L109.4 246.701C109.4 247.101 109.4 247.501 109.5 248.001C109.6 248.401 109.7 248.901 110.1 249.201C110.3 249.401 110.6 249.501 110.8 249.501C111 249.601 111.3 249.601 111.5 249.501C112 249.401 112.5 249.201 112.8 248.801C112.9 248.701 113 248.601 113 248.501V248.401C113.1 248.401 112.4 248.601 112.7 248.501L112.9 248.601C113.1 248.701 113.3 248.801 113.6 248.801C113.8 248.901 114.1 248.901 114.3 249.001C114.4 249.001 114.6 249.001 114.7 249.001C114.8 249.001 115 249.001 115.2 248.901C115.5 248.701 115.6 248.401 115.7 248.201C115.8 248.001 115.9 247.701 116 247.501C116.1 247.001 116.2 246.501 116.3 246.001L116 246.201C116.7 246.301 117.5 246.201 117.9 245.501C118.1 245.201 118.3 244.901 118.3 244.501C118.3 244.101 118.2 243.801 118.1 243.501C117.7 242.201 117.2 241.001 116.7 239.801C116.1 238.801 115.5 237.801 114.8 236.801C114.4 236.201 114 235.501 113.6 234.901C113.2 234.301 112.8 233.601 112.3 233.101C111.8 232.601 111.1 232.101 110.4 231.901C109.7 231.601 108.9 231.501 108.3 231.501C105.5 231.201 102.9 230.901 100.4 230.601C99.9002 230.701 99.5002 230.801 99.0002 231.001C98.6002 231.201 98.1002 231.401 97.8002 231.801L98.1002 231.701C97.2002 231.301 96.2002 231.301 95.4002 231.901C94.6002 232.401 94.3002 233.201 94.1002 234.001L94.2002 233.901C91.5002 236.401 89.2002 238.401 87.6002 239.801C86.9002 240.501 86.3002 241.001 85.8002 241.401C85.4002 241.801 85.2002 242.001 85.2002 242.001C85.2002 242.001 85.4002 241.801 85.9002 241.501C86.4002 241.101 87.0002 240.601 87.7002 239.901C89.3002 238.501 91.6002 236.501 94.4002 234.101V234.001C94.6002 233.301 94.9002 232.601 95.6002 232.201C96.2002 231.801 97.1002 231.801 97.9002 232.101L98.1002 232.201L98.2002 232.001C98.4002 231.701 98.8002 231.501 99.2002 231.401C99.6002 231.301 100.1 231.101 100.5 231.101H100.4C102.9 231.401 105.5 231.701 108.3 232.001C109 232.101 109.7 232.101 110.3 232.401C110.9 232.701 111.5 233.001 112 233.501C112.5 234.001 112.8 234.601 113.2 235.201C113.6 235.801 114 236.501 114.4 237.101C115 238.101 115.7 239.101 116.3 240.101C116.8 241.301 117.4 242.501 117.7 243.701C117.8 244.001 117.9 244.301 117.9 244.601C117.9 244.801 117.8 245.101 117.7 245.301C117.4 245.701 116.8 245.901 116.3 245.801H116V246.101C115.9 246.601 115.8 247.101 115.7 247.501C115.6 247.901 115.4 248.401 115.2 248.601C115.2 248.601 115.1 248.601 115 248.601C114.9 248.601 114.8 248.601 114.7 248.601C114.5 248.601 114.3 248.501 114 248.401C113.8 248.301 113.6 248.301 113.4 248.201L113.2 248.101C113.5 248.001 112.8 248.201 112.9 248.201V248.301C112.8 248.401 112.8 248.501 112.7 248.501C112.4 248.801 112.1 249.001 111.7 249.101C111.5 249.101 111.3 249.101 111.1 249.101C110.9 249.101 110.8 249.001 110.6 248.901C110.1 248.401 110 247.501 110 246.701V246.501H109.8C107.9 246.201 106.2 245.901 104.6 245.701H104.5H104.4C102 247.201 100.2 248.601 99.0002 249.601C98.4002 250.101 97.9002 250.501 97.7002 250.801C97.2002 251.101 97.1002 251.301 97.1002 251.301Z" fill="#EB996E"/>
<path d="M176.4 216.1L111.9 216.6C109.8 216.6 107.8 217.6 107.5 219.7L100.5 266.7H67.2999C66.1999 266.7 65.3999 267.6 65.3999 268.6C65.3999 269.7 66.2999 270.5 67.2999 270.5H99.8999H106.1H173.3L180.5 220.9C181 218.4 179 216.1 176.4 216.1Z" fill="#E0E0E0"/>
<path d="M176.4 216.1C176.4 216.1 176.8 216.1 177.4 216.2C178 216.4 179.1 216.7 179.9 217.8C180.3 218.3 180.6 219 180.7 219.9C180.8 220.7 180.6 221.6 180.5 222.6C180.2 224.5 179.9 226.7 179.6 229.1C178.2 239 176.1 253.2 173.6 270.6V270.8H173.4C146 270.8 109.9 270.8 70.5001 270.9C69.6001 270.9 68.6999 270.9 67.6999 270.9C67.2999 270.9 66.6999 270.9 66.1999 270.6C65.6999 270.3 65.3999 269.9 65.1999 269.4C64.7999 268.4 65.2999 267.2 66.1999 266.7C66.5999 266.4 67.1999 266.4 67.6999 266.4H69.1C72.7 266.4 76.3001 266.4 79.9001 266.4C87.0001 266.4 93.8999 266.4 100.6 266.4L100.4 266.6C102.9 249.8 105.3 234.1 107.4 220C107.5 219.1 107.9 218.1 108.6 217.5C109.3 216.9 110.2 216.5 111.1 216.4C112 216.3 112.9 216.3 113.7 216.3C114.6 216.3 115.4 216.3 116.2 216.3C119.5 216.3 122.8 216.3 125.9 216.2C132.1 216.2 137.9 216.1 143.2 216.1C153.7 216 162 216 167.8 216C170.7 216 172.9 216 174.4 216C175.1 216 175.7 216 176.1 216C176.2 216.1 176.4 216.1 176.4 216.1C176.4 216.1 176.2 216.1 175.8 216.1C175.4 216.1 174.8 216.1 174.1 216.1C172.6 216.1 170.4 216.2 167.5 216.2C161.8 216.3 153.4 216.4 142.9 216.5C137.7 216.6 131.9 216.6 125.6 216.7C122.5 216.7 119.2 216.8 115.9 216.8C115.1 216.8 114.2 216.8 113.4 216.8C112.6 216.8 111.7 216.8 110.9 216.9C110.1 217 109.3 217.3 108.7 217.9C108.1 218.5 107.7 219.2 107.7 220.1C105.6 234.2 103.3 249.9 100.7 266.7V266.9H100.5C93.7999 266.9 86.9001 266.9 79.8001 266.9C76.3001 266.9 72.7001 266.9 69.0001 266.9H67.6C67.1 266.9 66.8001 266.9 66.4001 267.1C65.7001 267.5 65.3 268.4 65.6 269.1C65.7 269.5 66.0001 269.8 66.4001 270C66.8001 270.2 67.1 270.2 67.6 270.2C68.5 270.2 69.4001 270.2 70.4001 270.2C109.8 270.2 145.9 270.2 173.3 270.3L173.1 270.5C175.7 253.1 177.8 238.9 179.3 229C179.7 226.5 180 224.4 180.3 222.5C180.4 221.6 180.7 220.7 180.6 219.9C180.5 219.1 180.2 218.4 179.9 217.9C179.1 216.8 178.1 216.4 177.5 216.3C176.7 216.1 176.4 216.1 176.4 216.1Z" fill="#242E34"/>
<path d="M141.4 246.7C143.609 246.7 145.4 244.909 145.4 242.7C145.4 240.491 143.609 238.7 141.4 238.7C139.191 238.7 137.4 240.491 137.4 242.7C137.4 244.909 139.191 246.7 141.4 246.7Z" fill="white"/>
<path d="M103.1 270.1C103.2 270.1 105.2 258.1 107.7 243.4C110.1 228.6 112 216.6 112 216.6C111.9 216.6 109.9 228.5 107.4 243.3C104.9 258.1 103 270.1 103.1 270.1Z" fill="#242E34"/>
<path opacity="0.5" d="M204 138.09C203.193 138.09 202.58 137.78 202.16 137.16C201.74 136.54 201.53 135.643 201.53 134.47C201.53 133.29 201.74 132.393 202.16 131.78C202.58 131.167 203.193 130.86 204 130.86C204.813 130.86 205.427 131.167 205.84 131.78C206.26 132.387 206.47 133.28 206.47 134.46C206.47 135.64 206.257 136.54 205.83 137.16C205.41 137.78 204.8 138.09 204 138.09ZM204 137.38C204.56 137.38 204.973 137.143 205.24 136.67C205.513 136.19 205.65 135.453 205.65 134.46C205.65 133.46 205.517 132.73 205.25 132.27C204.983 131.803 204.567 131.57 204 131.57C203.44 131.57 203.023 131.803 202.75 132.27C202.483 132.737 202.35 133.467 202.35 134.46C202.35 135.453 202.483 136.19 202.75 136.67C203.023 137.143 203.44 137.38 204 137.38ZM209.996 138.09C209.189 138.09 208.576 137.78 208.156 137.16C207.736 136.54 207.526 135.643 207.526 134.47C207.526 133.29 207.736 132.393 208.156 131.78C208.576 131.167 209.189 130.86 209.996 130.86C210.809 130.86 211.423 131.167 211.836 131.78C212.256 132.387 212.466 133.28 212.466 134.46C212.466 135.64 212.253 136.54 211.826 137.16C211.406 137.78 210.796 138.09 209.996 138.09ZM209.996 137.38C210.556 137.38 210.969 137.143 211.236 136.67C211.509 136.19 211.646 135.453 211.646 134.46C211.646 133.46 211.513 132.73 211.246 132.27C210.979 131.803 210.563 131.57 209.996 131.57C209.436 131.57 209.019 131.803 208.746 132.27C208.479 132.737 208.346 133.467 208.346 134.46C208.346 135.453 208.479 136.19 208.746 136.67C209.019 137.143 209.436 137.38 209.996 137.38ZM215.992 138.09C215.186 138.09 214.572 137.78 214.152 137.16C213.732 136.54 213.522 135.643 213.522 134.47C213.522 133.29 213.732 132.393 214.152 131.78C214.572 131.167 215.186 130.86 215.992 130.86C216.806 130.86 217.419 131.167 217.832 131.78C218.252 132.387 218.462 133.28 218.462 134.46C218.462 135.64 218.249 136.54 217.822 137.16C217.402 137.78 216.792 138.09 215.992 138.09ZM215.992 137.38C216.552 137.38 216.966 137.143 217.232 136.67C217.506 136.19 217.642 135.453 217.642 134.46C217.642 133.46 217.509 132.73 217.242 132.27C216.976 131.803 216.559 131.57 215.992 131.57C215.432 131.57 215.016 131.803 214.742 132.27C214.476 132.737 214.342 133.467 214.342 134.46C214.342 135.453 214.476 136.19 214.742 136.67C215.016 137.143 215.432 137.38 215.992 137.38ZM221.988 138.09C221.182 138.09 220.568 137.78 220.148 137.16C219.728 136.54 219.518 135.643 219.518 134.47C219.518 133.29 219.728 132.393 220.148 131.78C220.568 131.167 221.182 130.86 221.988 130.86C222.802 130.86 223.415 131.167 223.828 131.78C224.248 132.387 224.458 133.28 224.458 134.46C224.458 135.64 224.245 136.54 223.818 137.16C223.398 137.78 222.788 138.09 221.988 138.09ZM221.988 137.38C222.548 137.38 222.962 137.143 223.228 136.67C223.502 136.19 223.638 135.453 223.638 134.46C223.638 133.46 223.505 132.73 223.238 132.27C222.972 131.803 222.555 131.57 221.988 131.57C221.428 131.57 221.012 131.803 220.738 132.27C220.472 132.737 220.338 133.467 220.338 134.46C220.338 135.453 220.472 136.19 220.738 136.67C221.012 137.143 221.428 137.38 221.988 137.38ZM227.984 138.09C227.178 138.09 226.564 137.78 226.144 137.16C225.724 136.54 225.514 135.643 225.514 134.47C225.514 133.29 225.724 132.393 226.144 131.78C226.564 131.167 227.178 130.86 227.984 130.86C228.798 130.86 229.411 131.167 229.824 131.78C230.244 132.387 230.454 133.28 230.454 134.46C230.454 135.64 230.241 136.54 229.814 137.16C229.394 137.78 228.784 138.09 227.984 138.09ZM227.984 137.38C228.544 137.38 228.958 137.143 229.224 136.67C229.498 136.19 229.634 135.453 229.634 134.46C229.634 133.46 229.501 132.73 229.234 132.27C228.968 131.803 228.551 131.57 227.984 131.57C227.424 131.57 227.008 131.803 226.734 132.27C226.468 132.737 226.334 133.467 226.334 134.46C226.334 135.453 226.468 136.19 226.734 136.67C227.008 137.143 227.424 137.38 227.984 137.38ZM233.98 138.09C233.174 138.09 232.56 137.78 232.14 137.16C231.72 136.54 231.51 135.643 231.51 134.47C231.51 133.29 231.72 132.393 232.14 131.78C232.56 131.167 233.174 130.86 233.98 130.86C234.794 130.86 235.407 131.167 235.82 131.78C236.24 132.387 236.45 133.28 236.45 134.46C236.45 135.64 236.237 136.54 235.81 137.16C235.39 137.78 234.78 138.09 233.98 138.09ZM233.98 137.38C234.54 137.38 234.954 137.143 235.22 136.67C235.494 136.19 235.63 135.453 235.63 134.46C235.63 133.46 235.497 132.73 235.23 132.27C234.964 131.803 234.547 131.57 233.98 131.57C233.42 131.57 233.004 131.803 232.73 132.27C232.464 132.737 232.33 133.467 232.33 134.46C232.33 135.453 232.464 136.19 232.73 136.67C233.004 137.143 233.42 137.38 233.98 137.38ZM239.977 138.09C239.17 138.09 238.557 137.78 238.137 137.16C237.717 136.54 237.507 135.643 237.507 134.47C237.507 133.29 237.717 132.393 238.137 131.78C238.557 131.167 239.17 130.86 239.977 130.86C240.79 130.86 241.403 131.167 241.817 131.78C242.237 132.387 242.447 133.28 242.447 134.46C242.447 135.64 242.233 136.54 241.807 137.16C241.387 137.78 240.777 138.09 239.977 138.09ZM239.977 137.38C240.537 137.38 240.95 137.143 241.217 136.67C241.49 136.19 241.627 135.453 241.627 134.46C241.627 133.46 241.493 132.73 241.227 132.27C240.96 131.803 240.543 131.57 239.977 131.57C239.417 131.57 239 131.803 238.727 132.27C238.46 132.737 238.327 133.467 238.327 134.46C238.327 135.453 238.46 136.19 238.727 136.67C239 137.143 239.417 137.38 239.977 137.38ZM245.973 138.09C245.166 138.09 244.553 137.78 244.133 137.16C243.713 136.54 243.503 135.643 243.503 134.47C243.503 133.29 243.713 132.393 244.133 131.78C244.553 131.167 245.166 130.86 245.973 130.86C246.786 130.86 247.399 131.167 247.813 131.78C248.233 132.387 248.443 133.28 248.443 134.46C248.443 135.64 248.229 136.54 247.803 137.16C247.383 137.78 246.773 138.09 245.973 138.09ZM245.973 137.38C246.533 137.38 246.946 137.143 247.213 136.67C247.486 136.19 247.623 135.453 247.623 134.46C247.623 133.46 247.489 132.73 247.223 132.27C246.956 131.803 246.539 131.57 245.973 131.57C245.413 131.57 244.996 131.803 244.723 132.27C244.456 132.737 244.323 133.467 244.323 134.46C244.323 135.453 244.456 136.19 244.723 136.67C244.996 137.143 245.413 137.38 245.973 137.38ZM251.969 138.09C251.162 138.09 250.549 137.78 250.129 137.16C249.709 136.54 249.499 135.643 249.499 134.47C249.499 133.29 249.709 132.393 250.129 131.78C250.549 131.167 251.162 130.86 251.969 130.86C252.782 130.86 253.395 131.167 253.809 131.78C254.229 132.387 254.439 133.28 254.439 134.46C254.439 135.64 254.225 136.54 253.799 137.16C253.379 137.78 252.769 138.09 251.969 138.09ZM251.969 137.38C252.529 137.38 252.942 137.143 253.209 136.67C253.482 136.19 253.619 135.453 253.619 134.46C253.619 133.46 253.485 132.73 253.219 132.27C252.952 131.803 252.535 131.57 251.969 131.57C251.409 131.57 250.992 131.803 250.719 132.27C250.452 132.737 250.319 133.467 250.319 134.46C250.319 135.453 250.452 136.19 250.719 136.67C250.992 137.143 251.409 137.38 251.969 137.38Z" fill="black"/>
</g>
</g>
<defs>
<clipPath id="clip0_435_132">
<rect width="429" height="444" fill="white"/>
</clipPath>
</defs>
</svg>
