<svg width="487" height="487" viewBox="0 0 487 487" fill="none" xmlns="http://www.w3.org/2000/svg">
<path d="M161.362 267.972C161.362 267.972 152.516 270.312 159.955 289.406C167.395 308.499 172.91 318.136 172.91 318.136C172.91 318.136 174.129 322.517 170.515 322.815C166.9 323.113 159.21 321.081 157.192 325.265C155.099 329.604 157.943 334.181 164.202 338.576C170.461 342.971 183.819 353.101 185.024 354.022C186.207 354.926 187.273 357.015 184.844 357.613C182.414 358.211 164.652 358.277 165.188 366.704C165.724 375.13 185.171 384.508 187.278 385.574C189.384 386.639 189.815 387.621 189.515 388.806C189.215 389.991 183.244 389.451 178.193 389.677C173.141 389.903 167.324 391.05 168.041 395.886C168.758 400.722 179.718 411.833 208.467 417.598L221.962 419.397L230.481 408.698C247.316 384.693 247.587 369.088 244.77 365.092C241.954 361.097 236.95 364.279 233.138 367.6C229.325 370.921 225.374 375.432 224.34 374.781C223.305 374.13 222.94 373.122 223.73 370.897C224.52 368.673 232.13 348.468 226.706 341.998C221.28 335.528 208.375 347.733 206.204 348.976C204.033 350.219 203.364 347.97 203.597 346.501C203.833 345.004 206.516 328.453 208.016 320.955C209.516 313.456 208.416 308.18 203.908 306.482C199.561 304.845 195.395 311.621 192.573 313.899C189.75 316.177 187.611 312.163 187.611 312.163C187.611 312.163 184.956 301.382 177.171 282.427C169.386 263.472 161.188 268.031 161.188 268.031" fill="#EBEBEB"/>
<path d="M222.343 422.653C216.68 408.71 207.032 383.759 198.637 362.381C190.245 341.01 182.629 321.667 177.037 307.697C174.239 300.727 171.973 295.081 170.399 291.16C169.621 289.22 169.016 287.707 168.597 286.662C168.4 286.158 168.247 285.768 168.138 285.488C168.037 285.223 167.995 285.083 167.995 285.083C167.995 285.083 168.063 285.213 168.178 285.472C168.297 285.748 168.462 286.133 168.676 286.63C169.111 287.668 169.742 289.171 170.552 291.097C172.176 294.98 174.487 300.613 177.316 307.586C182.979 321.529 190.639 340.855 199.031 362.227C207.426 383.605 217.03 408.572 222.622 422.542" fill="#E0E0E0"/>
<path d="M167.835 328.54C167.848 328.514 168.174 328.642 168.753 328.898C169.333 329.152 170.161 329.542 171.18 330.034C173.215 331.022 175.991 332.458 179.026 334.098C182.014 335.726 184.715 337.198 186.78 338.325C187.714 338.826 188.503 339.25 189.137 339.59C189.696 339.886 189.998 340.062 189.986 340.09C189.973 340.116 189.647 339.99 189.065 339.738C188.486 339.483 187.657 339.092 186.643 338.59C184.617 337.582 181.86 336.11 178.826 334.47C175.829 332.864 173.118 331.411 171.044 330.3C170.106 329.803 169.317 329.383 168.681 329.046C168.124 328.746 167.822 328.567 167.835 328.54Z" fill="#E0E0E0"/>
<path d="M191 339.316C190.895 339.266 193.603 333.411 197.048 326.241C200.495 319.069 203.373 313.298 203.479 313.348C203.584 313.399 200.876 319.252 197.429 326.424C193.984 333.595 191.105 339.367 191 339.316Z" fill="#E0E0E0"/>
<path d="M202.408 372.721C202.388 372.701 202.615 372.424 203.042 371.94C203.531 371.395 204.142 370.715 204.868 369.907C206.406 368.188 208.519 365.805 210.755 363.091C212.999 360.38 214.943 357.857 216.335 356.019C216.992 355.154 217.545 354.427 217.988 353.843C218.382 353.331 218.611 353.056 218.634 353.073C218.658 353.09 218.475 353.397 218.123 353.939C217.77 354.48 217.246 355.255 216.577 356.197C215.244 358.083 213.331 360.643 211.082 363.36C208.84 366.083 206.684 368.441 205.087 370.11C204.285 370.942 203.629 371.607 203.161 372.054C202.697 372.504 202.43 372.742 202.408 372.721Z" fill="#E0E0E0"/>
<path d="M179.312 367.587C179.317 367.558 179.646 367.598 180.235 367.696C180.911 367.818 181.742 367.969 182.721 368.147C184.816 368.545 187.705 369.124 190.89 369.79C194.075 370.456 196.955 371.081 199.034 371.555C200.002 371.784 200.823 371.978 201.492 372.137C202.071 372.284 202.388 372.379 202.382 372.407C202.376 372.435 202.048 372.395 201.458 372.298C200.782 372.175 199.953 372.025 198.973 371.847C196.878 371.448 193.989 370.869 190.803 370.203C187.618 369.537 184.739 368.911 182.659 368.438C181.691 368.209 180.869 368.014 180.201 367.855C179.622 367.71 179.306 367.615 179.312 367.587Z" fill="#E0E0E0"/>
<path d="M185.637 398.357C185.643 398.329 186.062 398.384 186.817 398.508C187.648 398.655 188.719 398.846 190.005 399.074C192.693 399.57 196.401 400.284 200.491 401.098C204.583 401.912 208.281 402.672 210.955 403.244C212.23 403.525 213.293 403.76 214.117 403.941C214.862 404.116 215.27 404.225 215.265 404.254C215.259 404.282 214.839 404.228 214.084 404.103C213.254 403.956 212.183 403.765 210.896 403.537C208.208 403.041 204.5 402.327 200.408 401.513C196.319 400.699 192.619 399.939 189.947 399.368C188.672 399.087 187.609 398.852 186.785 398.671C186.04 398.496 185.631 398.386 185.637 398.357Z" fill="#E0E0E0"/>
<path d="M214.595 403.912C214.573 403.893 214.851 403.534 215.373 402.903C215.946 402.216 216.693 401.32 217.594 400.241C219.466 397.992 222.04 394.875 224.785 391.355C227.535 387.838 229.941 384.589 231.666 382.225C232.496 381.09 233.184 380.148 233.712 379.426C234.198 378.766 234.477 378.41 234.502 378.426C234.526 378.443 234.291 378.831 233.847 379.519C233.403 380.208 232.744 381.193 231.91 382.397C230.245 384.808 227.873 388.091 225.118 391.614C222.369 395.141 219.754 398.233 217.821 400.435C216.852 401.533 216.059 402.414 215.497 403.011C214.937 403.61 214.617 403.931 214.595 403.912Z" fill="#E0E0E0"/>
<path d="M261.855 32.7388C261.118 43.2589 261.861 62.848 258.027 72.6718C254.193 82.4956 249.086 92.6183 239.5 97.0121C227.695 102.423 213.822 100.13 201.229 103.3C181.49 108.269 167.219 126.375 161.127 145.797C155.035 165.218 155.71 186.024 156.444 206.365L257.183 220.343C257.183 220.343 257.713 179.409 266.498 168.238C275.284 157.067 317.021 147.01 330.807 116.414C343.212 88.8811 346.955 45.2147 346.955 45.2147L261.855 32.7388Z" fill="#F5F5F5"/>
<path d="M286.459 60.3988L285.16 57.994C284.981 57.9921 284.803 57.9794 284.607 57.9551L282.758 57.7272L282.489 59.9079L281.762 59.8183L282.612 52.9409L285.188 53.2594C286.936 53.4756 287.886 54.4906 287.705 55.9632C287.572 57.0444 286.909 57.7301 285.867 57.9307L287.254 60.4962L286.459 60.3988ZM286.978 55.8756C287.114 54.775 286.464 54.0571 285.089 53.8867L283.261 53.6617L282.835 57.1087L284.664 57.3346C286.039 57.5041 286.844 56.9557 286.978 55.8756Z" fill="#E0E0E0"/>
<path d="M293.804 60.6675L293.726 61.2967L288.863 60.6958L289.714 53.8193L294.43 54.4018L294.352 55.031L290.363 54.5381L290.061 56.9839L293.616 57.4231L293.539 58.0426L289.984 57.6033L289.669 60.1572L293.804 60.6675Z" fill="#E0E0E0"/>
<path d="M295.213 57.99C295.462 55.9758 297.178 54.6823 299.25 54.9385C300.252 55.0622 301.115 55.5083 301.641 56.2514L301.123 56.6557C300.633 56.0167 299.977 55.6865 299.191 55.5891C297.53 55.3836 296.132 56.4482 295.931 58.0796C295.729 59.7101 296.826 61.0815 298.487 61.287C299.274 61.3844 299.99 61.2237 300.623 60.7133L301.027 61.2325C300.335 61.8247 299.389 62.0575 298.377 61.9328C296.314 61.6766 294.964 60.0033 295.213 57.99Z" fill="#E0E0E0"/>
<path d="M307.4 62.3477L307.323 62.9769L302.459 62.376L303.31 55.4995L308.025 56.0829L307.947 56.7121L303.958 56.2193L303.656 58.665L307.211 59.1043L307.135 59.7238L303.58 59.2845L303.264 61.8383L307.4 62.3477Z" fill="#E0E0E0"/>
<path d="M309.881 56.3115L310.608 56.4011L309.759 63.2776L309.032 63.188L309.881 56.3115Z" fill="#E0E0E0"/>
<path d="M317.94 59.7001C317.758 61.164 316.589 61.9169 314.841 61.7007L312.993 61.4727L312.725 63.6438L311.998 63.5542L312.847 56.6777L315.422 56.9962C317.171 57.2125 318.121 58.2274 317.94 59.7001ZM317.214 59.6104C317.35 58.5098 316.7 57.792 315.324 57.6215L313.497 57.3965L313.073 60.8348L314.899 61.0598C316.275 61.2312 317.079 60.6916 317.214 59.6104Z" fill="#E0E0E0"/>
<path d="M320.835 58.3037L318.418 58.0047L318.496 57.3755L324.057 58.0631L323.979 58.6923L321.562 58.3933L320.79 64.6415L320.064 64.5519L320.835 58.3037Z" fill="#E0E0E0"/>
<path d="M309.949 77.192C309.931 77.3313 300.753 76.1947 289.455 74.6548C278.151 73.1139 269.006 71.7532 269.026 71.6149C269.044 71.4766 278.22 72.6123 289.523 74.1522C300.822 75.6921 309.969 77.0528 309.949 77.192Z" fill="#E0E0E0"/>
<path d="M308.848 85.3942C308.829 85.5335 299.651 84.3968 288.353 82.8569C277.05 81.3161 267.905 79.9554 267.924 79.8171C267.943 79.6788 277.119 80.8144 288.421 82.3543C299.721 83.8942 308.866 85.2559 308.848 85.3942Z" fill="#E0E0E0"/>
<path d="M305.096 93.757C305.077 93.8963 295.899 92.7596 284.601 91.2197C273.298 89.6788 264.154 88.3182 264.172 88.1799C264.191 88.0416 273.367 89.1772 284.669 90.7171C295.968 92.257 305.114 93.6187 305.096 93.757Z" fill="#E0E0E0"/>
<path d="M298.263 102.195C298.245 102.334 289.067 101.198 277.769 99.6579C266.465 98.117 257.32 96.7562 257.34 96.6178C257.358 96.4795 266.534 97.6154 277.837 99.1553C289.136 100.695 298.283 102.057 298.263 102.195Z" fill="#E0E0E0"/>
<path d="M287.39 110.614C287.371 110.754 278.193 109.617 266.895 108.077C255.591 106.537 246.448 105.176 246.466 105.037C246.485 104.899 255.661 106.035 266.963 107.575C278.261 109.114 287.408 110.475 287.39 110.614Z" fill="#E0E0E0"/>
<path d="M328.299 79.9272C328.276 80.0655 326.02 79.8133 323.261 79.3643C320.501 78.9153 318.282 78.4389 318.304 78.3006C318.327 78.1623 320.583 78.4146 323.343 78.8636C326.101 79.3127 328.321 79.7888 328.299 79.9272Z" fill="#E0E0E0"/>
<path d="M327.941 87.2382C327.919 87.3765 325.663 87.1242 322.904 86.6752C320.143 86.2262 317.925 85.749 317.947 85.6116C317.969 85.4733 320.225 85.7256 322.985 86.1746C325.744 86.6236 327.964 87.1009 327.941 87.2382Z" fill="#E0E0E0"/>
<path d="M325.462 97.3579C325.438 97.4962 323.179 97.2313 320.416 96.7725C317.66 96.3167 315.413 95.8336 315.467 95.7304C315.452 95.557 317.744 95.817 320.5 96.2729C323.263 96.7307 325.484 97.2196 325.462 97.3579Z" fill="#E0E0E0"/>
<path d="M321.877 105.919C321.854 106.058 319.595 105.793 316.832 105.334C314.075 104.878 311.828 104.395 311.883 104.292C311.867 104.119 314.159 104.379 316.915 104.833C319.68 105.292 321.9 105.781 321.877 105.919Z" fill="#E0E0E0"/>
<path d="M314.171 114.057C314.147 114.195 311.889 113.931 309.125 113.472C306.369 113.016 304.122 112.533 304.177 112.43C304.161 112.256 306.454 112.516 309.209 112.972C311.972 113.43 314.194 113.92 314.171 114.057Z" fill="#E0E0E0"/>
<path d="M278.089 120.903C278.07 121.043 264.294 119.208 247.324 116.806C230.349 114.404 216.608 112.345 216.628 112.206C216.647 112.067 230.42 113.901 247.395 116.303C264.365 118.705 278.109 120.765 278.089 120.903Z" fill="#E0E0E0"/>
<path d="M270.976 129.509C270.973 129.527 270.739 129.507 270.295 129.455C269.801 129.389 269.158 129.305 268.358 129.198C266.62 128.945 264.204 128.594 261.246 128.163C255.198 127.231 246.939 125.958 237.815 124.551C228.667 123.109 220.391 121.771 214.407 120.768C211.46 120.26 209.056 119.845 207.325 119.547C206.49 119.392 205.843 119.274 205.404 119.179C204.964 119.082 204.739 119.024 204.744 119.007C204.749 118.991 204.985 119.016 205.425 119.078C205.917 119.149 206.559 119.239 207.357 119.352C209.094 119.612 211.506 119.973 214.463 120.414C220.511 121.352 228.768 122.634 237.894 124.05C247.009 125.514 255.259 126.838 261.302 127.808C264.25 128.305 266.657 128.71 268.389 129.003C269.184 129.147 269.822 129.264 270.311 129.352C270.749 129.439 270.979 129.493 270.976 129.509Z" fill="#E0E0E0"/>
<path d="M258.119 137.39C258.206 137.476 257.218 137.37 255.588 137.165C253.935 136.956 251.549 136.624 248.602 136.196C242.709 135.342 234.578 134.107 225.603 132.704C216.625 131.299 208.504 129.992 202.629 129.02C199.739 128.53 197.379 128.13 195.678 127.841C194.9 127.698 194.273 127.583 193.792 127.496C193.362 127.411 193.138 127.358 193.14 127.341C193.143 127.323 193.372 127.343 193.808 127.394C194.294 127.459 194.924 127.542 195.709 127.647C197.416 127.896 199.784 128.242 202.686 128.665C208.622 129.579 216.726 130.825 225.682 132.202C234.627 133.619 242.725 134.902 248.658 135.842C254.013 136.718 256.874 137.186 258.119 137.39Z" fill="#E0E0E0"/>
<path d="M301.297 125.634C301.274 125.773 299.015 125.508 296.252 125.05C293.496 124.594 291.249 124.111 291.302 124.008C291.287 123.834 293.579 124.094 296.335 124.55C299.1 125.007 301.321 125.496 301.297 125.634Z" fill="#E0E0E0"/>
<path d="M291.372 131.156C291.349 131.294 289.09 131.029 286.327 130.571C283.571 130.116 281.324 129.632 281.378 129.529C281.363 129.356 283.655 129.616 286.411 130.072C289.174 130.529 291.396 131.017 291.372 131.156Z" fill="#E0E0E0"/>
<path d="M278.011 140.463C277.988 140.602 275.729 140.337 272.966 139.878C270.209 139.422 267.962 138.939 268.016 138.836C268 138.662 270.293 138.923 273.048 139.378C275.813 139.836 278.034 140.325 278.011 140.463Z" fill="#E0E0E0"/>
<path d="M252.465 155.152C252.444 155.291 235.417 152.787 214.441 149.559C193.457 146.33 176.469 143.602 176.49 143.463C176.511 143.325 193.534 145.829 214.518 149.058C235.494 152.284 252.485 155.013 252.465 155.152Z" fill="#E0E0E0"/>
<path d="M242.267 173.582C242.245 173.721 236.664 172.933 229.803 171.822C222.94 170.712 217.396 169.7 217.419 169.562C217.441 169.423 223.021 170.211 229.884 171.322C236.745 172.432 242.29 173.444 242.267 173.582Z" fill="#E0E0E0"/>
<path d="M195.814 121.286L195.889 125.189C195.889 125.189 197.474 155.396 197.377 159.918C197.28 164.442 182.135 190.357 182.135 190.357L191.384 205.512L213.597 165.568L208.275 122.722L208.145 121.665" fill="#FFBE9D"/>
<path d="M207.086 116.619C207.005 116.301 204.051 105.618 204.051 105.618L192.315 112.385C192.296 113.367 195.814 121.285 195.814 121.285L197.841 123.383C197.841 123.383 207.992 122.311 208.212 122.208C208.432 122.105 207.086 116.619 207.086 116.619Z" fill="#FFBE9D"/>
<path d="M204.462 106.399C204.487 106.405 204.528 106.487 204.581 106.631C205.026 107.823 206.326 113.186 205.733 113.583C205.067 114.027 203.134 114.081 202.826 113.409C202.518 112.737 201.395 106.612 201.395 106.612C201.395 106.612 201.279 105.632 202.813 104.991C203.762 104.596 204.462 106.399 204.462 106.399Z" fill="#FFBE9D"/>
<path d="M200.761 105.304C200.785 105.31 200.826 105.393 200.88 105.537C201.325 106.728 202.624 112.092 202.031 112.488C201.366 112.933 199.432 112.986 199.125 112.315C198.817 111.644 197.694 105.519 197.694 105.519C197.694 105.519 197.578 104.539 199.112 103.898C200.061 103.501 200.761 105.304 200.761 105.304Z" fill="#FFBE9D"/>
<path d="M197.378 105.154C197.403 105.16 197.444 105.242 197.497 105.387C197.942 106.578 199.242 111.942 198.65 112.338C197.984 112.782 196.051 112.836 195.743 112.165C195.435 111.494 194.312 105.368 194.312 105.368C194.312 105.368 194.195 104.388 195.73 103.747C196.678 103.351 197.378 105.154 197.378 105.154Z" fill="#FFBE9D"/>
<path d="M194.027 105.057C194.05 105.063 194.092 105.145 194.146 105.289C194.591 106.481 195.89 111.844 195.298 112.241C194.633 112.685 192.699 112.739 192.392 112.068C192.084 111.395 190.961 105.271 190.961 105.271C190.961 105.271 190.845 104.291 192.378 103.65C193.327 103.254 194.027 105.057 194.027 105.057Z" fill="#FFBE9D"/>
<path d="M202.399 111.853C202.489 111.822 202.301 110.629 201.979 109.188C201.656 107.748 201.322 106.605 201.232 106.636C201.141 106.668 201.33 107.861 201.652 109.302C201.976 110.742 202.31 111.884 202.399 111.853Z" fill="#EB996E"/>
<path d="M199.253 112.683C199.347 112.663 199.054 110.972 198.599 108.908C198.144 106.843 197.699 105.187 197.605 105.208C197.512 105.228 197.805 106.918 198.26 108.983C198.715 111.047 199.16 112.704 199.253 112.683Z" fill="#EB996E"/>
<g opacity="0.78">
<path d="M195.985 113.244C196.078 113.224 195.785 111.533 195.33 109.469C194.875 107.404 194.43 105.748 194.337 105.769C194.243 105.789 194.536 107.479 194.991 109.544C195.446 111.608 195.891 113.265 195.985 113.244Z" fill="#EB996E"/>
</g>
<path d="M198.519 120.214L194.97 117.347C193.418 116.093 192.411 114.288 192.159 112.31L191.966 110.799L202.625 108.644C202.625 108.644 202.677 112.624 199.608 112.673L203.382 114.583L198.519 120.214Z" fill="#FFBE9D"/>
<path d="M202.911 115.39C202.861 115.42 202.629 114.956 201.987 114.36C201.36 113.781 200.227 113.064 198.729 113.046L197.587 113.033L198.661 112.635C199.429 112.352 200.262 112.044 201.143 111.719L201.094 111.742C201.993 111.187 202.792 110.161 202.638 108.981C202.626 108.892 202.607 108.79 202.588 108.73L202.889 108.896C199.901 109.633 197.191 110.259 195.211 110.597C194.223 110.77 193.419 110.884 192.862 110.945C192.305 111.007 191.995 111.02 191.99 110.987C191.98 110.914 193.191 110.683 195.143 110.249C197.097 109.823 199.779 109.145 202.77 108.403L203.001 108.346L203.07 108.569C203.109 108.693 203.124 108.798 203.142 108.915C203.226 109.614 203.042 110.314 202.686 110.864C202.338 111.425 201.843 111.83 201.353 112.146L201.33 112.162L201.305 112.171C200.417 112.476 199.577 112.767 198.803 113.034L198.736 112.624C200.382 112.694 201.55 113.528 202.159 114.188C202.781 114.869 202.938 115.381 202.911 115.39Z" fill="#EB996E"/>
<path d="M202.261 110.437C202.345 110.384 202.523 110.917 203.066 111.41C203.335 111.631 203.794 111.792 204.132 111.565C204.49 111.336 204.656 110.812 204.606 110.238C204.479 109.033 204.414 107.898 204.299 107.119C204.187 106.33 204.064 105.843 204.136 105.819C204.196 105.798 204.442 106.249 204.65 107.049C204.863 107.86 204.981 108.958 205.112 110.211C205.171 110.85 204.971 111.624 204.373 111.966C203.74 112.314 203.117 111.98 202.824 111.676C202.509 111.348 202.391 111.018 202.315 110.801C202.245 110.579 202.23 110.45 202.261 110.437Z" fill="#EB996E"/>
<path d="M165.851 145.769C168.446 145.618 170.849 147.19 172.637 149.077C174.424 150.963 175.808 153.21 177.663 155.031C179.047 156.389 180.723 157.55 181.562 159.3C182.895 162.081 181.779 165.678 183.46 168.265C184.407 169.722 186.085 170.574 187.062 172.011C188.284 173.81 188.195 176.173 187.918 178.332C187.726 179.83 187.423 181.412 186.394 182.518C185.589 183.382 184.446 183.836 183.327 184.217C174.891 187.095 165.562 187.294 157.009 184.779" fill="#263238"/>
<path d="M147.994 163.135C147.06 155.677 152.454 148.862 160.027 148.141C167.164 147.461 173.507 152.775 174.576 159.865C175.514 166.079 176.32 172.352 176.291 174.632C176.204 181.502 172.184 184.177 170.555 184.98C170.182 185.163 169.157 185.372 168.747 185.43C168.721 185.434 168.704 185.458 168.709 185.484L170.234 193.371C170.926 198.538 168.041 203.147 162.882 203.9C157.706 204.655 153.66 200.686 152.87 195.514L147.994 163.135Z" fill="#FFBE9D"/>
<path d="M173.392 163.883C173.278 164.043 172.371 163.556 171.208 163.729C170.044 163.884 169.278 164.607 169.132 164.483C169.06 164.43 169.16 164.155 169.492 163.831C169.818 163.508 170.405 163.155 171.129 163.053C171.854 162.951 172.503 163.129 172.892 163.351C173.291 163.573 173.449 163.809 173.392 163.883Z" fill="#263238"/>
<path d="M163.045 166.125C162.931 166.285 162.023 165.799 160.861 165.972C159.697 166.128 158.931 166.85 158.784 166.726C158.713 166.672 158.811 166.397 159.144 166.073C159.47 165.751 160.057 165.397 160.781 165.295C161.506 165.194 162.155 165.371 162.545 165.593C162.942 165.815 163.102 166.052 163.045 166.125Z" fill="#263238"/>
<path d="M167.068 171.622C167.054 171.556 167.758 171.326 168.908 171.005C169.2 170.931 169.473 170.831 169.494 170.621C169.533 170.396 169.361 170.094 169.167 169.77C168.784 169.092 168.381 168.381 167.96 167.637C166.271 164.595 165.002 162.076 165.125 162.009C165.248 161.942 166.718 164.354 168.407 167.395C168.816 168.146 169.207 168.862 169.579 169.548C169.741 169.868 169.99 170.224 169.904 170.691C169.856 170.925 169.661 171.118 169.479 171.197C169.297 171.283 169.13 171.31 168.985 171.34C167.814 171.575 167.083 171.687 167.068 171.622Z" fill="#263238"/>
<path d="M168.699 185.436C168.699 185.436 164.262 186.46 158.154 183.902C158.154 183.902 160.791 189.579 169.11 187.561L168.699 185.436Z" fill="#EB996E"/>
<path d="M166.986 174.496C166.487 174.004 165.71 173.807 164.994 173.991C164.497 174.119 164.023 174.436 163.776 174.892C163.53 175.348 163.551 175.941 163.887 176.292C164.264 176.687 164.936 176.693 165.467 176.456C165.999 176.217 166.424 175.782 166.824 175.352C166.935 175.233 167.048 175.109 167.107 174.959C167.165 174.81 167.155 174.627 167.041 174.527" fill="#EB996E"/>
<path d="M163.764 172.925C163.952 172.887 164.138 174.148 165.349 174.887C166.559 175.629 167.884 175.291 167.92 175.465C167.949 175.542 167.656 175.755 167.09 175.852C166.536 175.952 165.696 175.892 164.955 175.44C164.216 174.986 163.825 174.295 163.707 173.783C163.581 173.264 163.676 172.93 163.764 172.925Z" fill="#263238"/>
<path d="M162.243 162.34C162.175 162.673 160.992 162.692 159.651 163.056C158.303 163.392 157.261 163.952 157.039 163.694C156.939 163.571 157.087 163.245 157.487 162.874C157.884 162.504 158.545 162.112 159.35 161.9C160.156 161.691 160.925 161.712 161.451 161.842C161.982 161.97 162.271 162.183 162.243 162.34Z" fill="#263238"/>
<path d="M172.217 160.297C172.051 160.591 171.21 160.433 170.245 160.561C169.275 160.654 168.492 160.998 168.264 160.749C168.162 160.627 168.252 160.344 168.572 160.042C168.886 159.742 169.444 159.452 170.109 159.376C170.775 159.301 171.383 159.456 171.757 159.677C172.137 159.899 172.288 160.155 172.217 160.297Z" fill="#263238"/>
<path d="M175.925 158.325C174.503 160.495 169.991 159.155 167.265 157.663C164.395 159.566 160.406 158.74 158.419 155.831C156.859 157.817 153.693 157.161 152.538 154.923C151.383 152.684 152.033 149.605 153.619 147.647C155.206 145.689 157.525 144.7 159.816 144.277C165.248 143.274 171.165 145.379 174.415 150.291C175.914 152.558 176.814 155.61 175.925 158.325Z" fill="#263238"/>
<path d="M154.024 147.493C148.914 146.517 143.981 151.611 143.47 155.257C142.582 161.585 143.438 162.374 142.28 165.409C141.529 167.379 138.93 169.4 137.903 171.432C136.8 173.618 136.805 177.309 137.571 179.634C138.218 181.596 140.854 187.07 140.854 187.07C140.854 187.07 148.457 186.821 152.345 185.827C153.315 185.578 154.348 185.216 155.089 184.543C155.825 183.875 154.302 181.553 154.442 180.569C154.84 177.764 156.941 176.142 156.34 173.374C155.542 169.698 152.652 169.51 152.715 165.75C152.749 163.753 155.723 160.887 155.997 158.909C156.272 156.929 157.419 150.041 154.024 147.493Z" fill="#263238"/>
<path d="M145.377 187.295C145.404 187.268 145.007 186.871 144.366 186.091C143.73 185.312 142.852 184.13 142.103 182.497C141.368 180.877 140.764 178.754 140.998 176.4C141.208 174.078 142.243 171.493 144.361 169.782C145.413 168.928 146.617 168.286 147.641 167.427C148.694 166.597 149.428 165.424 149.77 164.251C150.136 163.079 150.258 161.928 150.4 160.877C150.537 159.823 150.697 158.851 150.981 158.007C151.515 156.293 152.678 155.261 153.58 154.88C154.498 154.479 155.092 154.623 155.087 154.563C155.089 154.552 154.95 154.513 154.678 154.506C154.409 154.495 153.999 154.53 153.514 154.718C152.548 155.063 151.276 156.126 150.681 157.903C150.365 158.773 150.184 159.768 150.031 160.824C149.873 161.879 149.736 163.007 149.375 164.124C149.029 165.248 148.366 166.295 147.359 167.088C146.378 167.905 145.176 168.544 144.076 169.433C141.843 171.241 140.78 173.953 140.585 176.363C140.367 178.812 141.027 180.995 141.815 182.632C142.617 184.284 143.55 185.454 144.232 186.205C144.573 186.584 144.858 186.86 145.056 187.039C145.256 187.218 145.366 187.307 145.377 187.295Z" fill="#455A64"/>
<path d="M182.546 183.986C182.56 183.994 182.625 183.9 182.737 183.713C182.857 183.529 182.996 183.238 183.167 182.859C183.483 182.094 183.827 180.91 183.829 179.409C183.836 177.921 183.477 176.093 182.399 174.404C181.871 173.551 181.148 172.806 180.478 172C179.809 171.2 179.184 170.311 178.956 169.252C178.501 167.118 179.201 164.967 179.056 162.984C178.984 161.006 178.432 159.249 177.653 157.969C176.88 156.678 175.953 155.856 175.275 155.384C174.933 155.148 174.658 154.981 174.46 154.886C174.266 154.785 174.162 154.739 174.154 154.753C174.131 154.793 174.533 155.012 175.17 155.523C175.804 156.03 176.668 156.863 177.378 158.128C178.096 159.382 178.596 161.081 178.643 163C178.682 163.959 178.567 164.958 178.456 166.017C178.353 167.07 178.256 168.206 178.519 169.353C178.769 170.513 179.457 171.474 180.141 172.283C180.83 173.1 181.544 173.827 182.051 174.629C183.099 176.226 183.478 177.975 183.512 179.414C183.549 180.865 183.264 182.029 183.003 182.797C182.73 183.566 182.508 183.965 182.546 183.986Z" fill="#455A64"/>
<path d="M160.909 145.053C160.915 145.148 162.193 144.903 164.205 145.238C166.18 145.569 168.962 146.6 171.033 148.911C173.057 151.256 173.976 154.035 174.312 156.018C174.651 158.032 174.392 159.305 174.481 159.312C174.506 159.317 174.591 159.006 174.666 158.43C174.733 157.853 174.755 157.006 174.626 155.971C174.36 153.924 173.476 151.058 171.368 148.613C169.199 146.193 166.291 145.183 164.252 144.923C163.216 144.788 162.369 144.817 161.793 144.882C161.216 144.945 160.905 145.028 160.909 145.053Z" fill="#455A64"/>
<path d="M168.254 155.151C168.279 155.154 168.338 154.881 168.362 154.378C168.388 153.875 168.347 153.139 168.141 152.257C167.755 150.515 166.492 148.107 164.059 146.661C161.613 145.234 158.896 145.296 157.184 145.804C156.313 146.051 155.648 146.372 155.223 146.638C154.795 146.903 154.585 147.088 154.6 147.108C154.643 147.189 155.552 146.513 157.263 146.111C158.937 145.699 161.522 145.699 163.831 147.048C166.13 148.413 167.383 150.674 167.834 152.337C168.312 154.029 168.161 155.152 168.254 155.151Z" fill="#455A64"/>
<path d="M146.205 232.061C146.205 232.061 149.574 239.742 149.38 243.375C149.186 247.008 145.712 258.809 145.712 258.809L186.898 262.663L187.088 253.137L185.848 213.953L208.812 179.016L191.433 168.944L174.54 191.841L170.264 190.183L151.787 192.526V195.791L151.259 195.855C151.259 195.855 145.385 196.922 139.746 200.366C133.092 204.428 129.686 212.213 130.925 219.911C131.677 224.582 133.133 230.26 135.939 233.541C141.304 239.818 146.205 232.061 146.205 232.061Z" fill="#3085FE"/>
<path d="M140.364 213.772C140.364 213.772 138.257 201.809 138.867 200.949C139.594 199.926 148.249 196.205 148.38 196.582L150.282 209.733L140.364 213.772Z" fill="#FAFAFA"/>
<path d="M175.466 214.437L174.482 237.377H183.143V214.437H175.466Z" fill="#FAFAFA"/>
<path d="M161.135 225.907C161.124 225.895 161.292 225.884 161.626 225.872C162.014 225.861 162.507 225.847 163.117 225.831C164.508 225.809 166.429 225.778 168.812 225.741L168.977 225.738L168.979 225.907C169.031 231.415 169.065 239.644 169.066 248.846V249.1H168.813C168.654 249.1 168.484 249.1 168.311 249.1C165.468 249.097 162.716 249.094 160.15 249.091H159.893L159.906 248.836C160.235 242.221 160.52 236.481 160.728 232.323C160.842 230.342 160.933 228.742 161.001 227.571C161.036 227.064 161.064 226.651 161.086 226.319C161.109 226.037 161.125 225.896 161.135 225.907C161.145 225.917 161.149 226.079 161.146 226.38C161.139 226.726 161.131 227.157 161.121 227.686C161.087 228.872 161.041 230.492 160.984 232.498C160.836 236.618 160.63 242.305 160.395 248.858L160.15 248.603C162.716 248.6 165.468 248.597 168.311 248.594C168.483 248.594 168.654 248.594 168.813 248.594L168.56 248.847C168.561 239.646 168.595 231.417 168.647 225.908L168.813 226.073C166.47 226.035 164.583 226.005 163.215 225.984C162.591 225.967 162.087 225.954 161.688 225.943C161.336 225.929 161.146 225.918 161.135 225.907Z" fill="#FAFAFA"/>
<path d="M194.539 200.24L185.395 194.465L193.426 182.754L202.787 188.182L194.539 200.24Z" fill="#FAFAFA"/>
<g opacity="0.4">
<path d="M185.395 200.949H158.583V209.644H185.395V200.949Z" fill="white"/>
</g>
<path d="M185.005 224.609C184.971 224.603 184.989 224.315 185.052 223.804C185.119 223.294 185.202 222.554 185.284 221.641C185.452 219.814 185.54 217.276 185.287 214.492C185.028 211.707 184.479 209.227 183.981 207.462C183.485 205.695 183.09 204.625 183.166 204.594C183.198 204.581 183.33 204.834 183.543 205.308C183.76 205.778 184.03 206.478 184.324 207.357C184.915 209.113 185.529 211.619 185.792 214.445C186.048 217.269 185.901 219.847 185.64 221.681C185.511 222.598 185.373 223.336 185.245 223.838C185.124 224.342 185.04 224.616 185.005 224.609Z" fill="#263238"/>
<path d="M198.008 172.754C198.06 172.8 197.457 173.566 196.442 174.767C195.426 175.967 193.997 177.602 192.395 179.387C191.795 180.049 191.217 180.687 190.675 181.285L190.533 181.442L190.361 181.325C188.89 180.327 187.633 179.452 186.751 178.814C185.87 178.177 185.364 177.777 185.395 177.73C185.427 177.682 185.991 177.995 186.919 178.562C187.847 179.129 189.139 179.95 190.629 180.922L190.314 180.962C190.851 180.359 191.423 179.716 192.017 179.048C193.619 177.263 195.091 175.666 196.175 174.527C197.259 173.388 197.956 172.707 198.008 172.754Z" fill="#FAFAFA"/>
<path d="M207.481 181.041C207.448 181.103 206.417 180.62 204.778 179.789C203.139 178.958 200.892 177.779 198.423 176.449C195.955 175.119 193.735 173.89 192.139 172.978C190.544 172.066 189.574 171.471 189.607 171.41C189.64 171.348 190.67 171.831 192.31 172.662C193.949 173.493 196.196 174.672 198.665 176.002C201.132 177.331 203.353 178.561 204.948 179.472C206.544 180.385 207.514 180.98 207.481 181.041Z" fill="#263238"/>
<path d="M114.834 419.907L110.419 439.864L102.376 454.641C101.796 455.706 102.239 457.039 103.342 457.546C103.959 457.829 104.669 457.799 105.257 457.459C108.999 455.297 122.724 447.275 122.966 445.796C123.246 444.084 129.02 425.054 129.02 425.054L114.834 419.907Z" fill="#3085FE"/>
<g opacity="0.6">
<path d="M103.342 457.545L123.295 444.457L123.089 445.297C122.91 446.024 122.483 446.666 121.876 447.104C120.252 448.276 115.698 451.414 105.317 457.473C104.713 457.827 103.969 457.854 103.342 457.545Z" fill="white"/>
</g>
<g opacity="0.6">
<path d="M120.792 437.054C120.211 437.276 119.863 437.988 120.061 438.579C120.258 439.169 120.98 439.528 121.565 439.317C122.151 439.106 122.594 438.263 122.331 437.698C122.068 437.134 121.198 436.758 120.681 437.104" fill="white"/>
</g>
<path d="M110.007 449.985C109.881 450.012 109.689 448.863 108.645 448.014C107.628 447.134 106.463 447.145 106.468 447.016C106.463 446.964 106.751 446.871 107.232 446.919C107.709 446.964 108.365 447.194 108.935 447.67C109.503 448.148 109.843 448.753 109.97 449.215C110.101 449.68 110.06 449.981 110.007 449.985Z" fill="#263238"/>
<path d="M107.941 452.296C107.825 452.359 107.347 451.557 106.392 451.012C105.449 450.445 104.516 450.417 104.515 450.286C104.483 450.171 105.542 449.984 106.62 450.624C107.703 451.253 108.057 452.268 107.941 452.296Z" fill="#263238"/>
<path d="M113.474 447.224C113.359 447.295 112.628 446.059 111.218 445.079C109.823 444.078 108.414 443.803 108.442 443.67C108.436 443.557 109.978 443.642 111.477 444.713C112.987 445.767 113.584 447.191 113.474 447.224Z" fill="#263238"/>
<path d="M115.323 441.27C115.241 441.376 114.256 440.648 112.842 440.247C111.433 439.826 110.212 439.911 110.2 439.777C110.169 439.666 111.452 439.367 112.967 439.816C114.487 440.251 115.409 441.193 115.323 441.27Z" fill="#263238"/>
<path d="M116.767 435.444C116.678 435.544 115.738 434.611 114.214 434.311C112.696 433.975 111.461 434.453 111.419 434.326C111.397 434.276 111.674 434.081 112.197 433.929C112.717 433.775 113.486 433.702 114.305 433.871C115.123 434.044 115.8 434.42 116.213 434.768C116.632 435.117 116.807 435.407 116.767 435.444Z" fill="#263238"/>
<path d="M114.52 433.21C114.495 433.204 114.515 432.927 114.677 432.452C114.839 431.982 115.152 431.309 115.756 430.632C116.061 430.315 116.401 429.896 117.019 429.771C117.326 429.707 117.725 429.858 117.895 430.179C118.066 430.492 118.06 430.835 117.99 431.152C117.659 432.407 116.279 433.36 114.817 433.193C113.356 433.001 112.266 431.872 111.969 430.645C111.915 430.334 111.915 429.968 112.151 429.67C112.386 429.369 112.823 429.333 113.094 429.451C113.662 429.684 113.95 430.115 114.235 430.452C114.784 431.169 115.066 431.851 115.211 432.326C115.357 432.804 115.373 433.081 115.347 433.086C115.264 433.121 115.085 431.989 113.986 430.65C113.704 430.336 113.386 429.946 112.971 429.802C112.769 429.731 112.57 429.769 112.456 429.918C112.341 430.059 112.322 430.319 112.375 430.567C112.633 431.574 113.631 432.603 114.869 432.747C116.099 432.9 117.312 432.061 117.586 431.053C117.649 430.809 117.645 430.547 117.549 430.371C117.456 430.196 117.27 430.11 117.069 430.139C116.645 430.199 116.283 430.553 115.986 430.848C114.795 432.102 114.604 433.252 114.52 433.21Z" fill="#263238"/>
<g opacity="0.3">
<path d="M114.319 422.072L113.726 424.917L127.815 429.046L129.02 425.055L114.834 419.907L114.319 422.072Z" fill="black"/>
</g>
<path d="M179.406 427.292L178.213 443.239C178.213 443.239 194.022 449.808 194.088 452.776L163.085 451.574L163.925 426.65L179.406 427.292Z" fill="#3085FE"/>
<g opacity="0.6">
<path d="M168.678 441.524C168.072 441.665 167.631 442.323 167.747 442.935C167.863 443.547 168.528 444.001 169.137 443.871C169.746 443.741 170.299 442.966 170.116 442.372C169.933 441.777 169.122 441.287 168.562 441.559" fill="white"/>
</g>
<g opacity="0.6">
<path d="M163.085 451.573L163.268 449.064L192.925 451.156C192.925 451.156 194.282 451.81 194.088 452.776L163.085 451.573Z" fill="white"/>
</g>
<path d="M178.721 443.101C178.711 443.252 177.951 443.292 177.187 443.75C176.411 444.188 176.002 444.828 175.865 444.763C175.726 444.728 175.987 443.831 176.921 443.293C177.852 442.747 178.759 442.963 178.721 443.101Z" fill="#263238"/>
<path d="M181.921 444.572C181.95 444.72 181.284 444.951 180.745 445.572C180.188 446.177 180.032 446.863 179.882 446.852C179.738 446.87 179.668 445.979 180.353 445.22C181.031 444.456 181.924 444.427 181.921 444.572Z" fill="#263238"/>
<path d="M183.617 448.536C183.478 448.563 183.296 447.797 183.718 446.984C184.133 446.167 184.86 445.868 184.919 445.996C185 446.124 184.523 446.552 184.187 447.225C183.836 447.89 183.768 448.526 183.617 448.536Z" fill="#263238"/>
<path d="M178.59 439.437C178.521 439.572 177.835 439.336 176.977 439.361C176.119 439.368 175.442 439.63 175.368 439.497C175.284 439.384 175.956 438.849 176.967 438.834C177.977 438.81 178.669 439.32 178.59 439.437Z" fill="#263238"/>
<g opacity="0.3">
<path d="M179.166 430.45L178.957 433.292L163.725 432.562L163.827 429.276L179.166 430.45Z" fill="black"/>
</g>
<path d="M178.772 436.215C178.771 436.277 178.169 436.348 177.22 436.147C176.747 436.046 176.193 435.868 175.614 435.585C175.326 435.442 175.032 435.274 174.742 435.077C174.602 434.98 174.437 434.88 174.287 434.694C174.125 434.53 174.045 434.125 174.249 433.886C174.417 433.654 174.702 433.562 174.926 433.566C175.155 433.567 175.338 433.62 175.505 433.669C175.847 433.766 176.167 433.893 176.458 434.038C177.04 434.33 177.508 434.69 177.854 435.033C178.547 435.728 178.77 436.302 178.718 436.33C178.647 436.376 178.315 435.89 177.604 435.311C177.25 435.024 176.795 434.723 176.249 434.477C175.977 434.356 175.682 434.249 175.369 434.167C175.044 434.068 174.765 434.055 174.675 434.198C174.641 434.252 174.637 434.274 174.702 434.373C174.769 434.465 174.899 434.556 175.036 434.653C175.303 434.842 175.574 435.008 175.838 435.153C176.369 435.442 176.879 435.646 177.317 435.787C178.195 436.069 178.778 436.133 178.772 436.215Z" fill="#263238"/>
<path d="M178.566 436.424C178.511 436.446 178.232 435.891 178.214 434.909C178.207 434.422 178.28 433.834 178.492 433.217C178.599 432.909 178.741 432.595 178.924 432.29C179.118 431.991 179.356 431.588 179.945 431.544C180.252 431.544 180.498 431.795 180.577 432.002C180.671 432.216 180.685 432.397 180.714 432.578C180.757 432.942 180.737 433.297 180.674 433.624C180.552 434.28 180.259 434.819 179.949 435.202C179.312 435.982 178.673 436.138 178.662 436.086C178.614 436.008 179.154 435.737 179.647 434.983C179.89 434.611 180.112 434.117 180.194 433.543C180.236 433.257 180.243 432.953 180.2 432.645C180.164 432.314 180.051 432.043 179.926 432.072C179.772 432.064 179.501 432.302 179.363 432.56C179.194 432.832 179.056 433.112 178.947 433.387C178.73 433.94 178.625 434.473 178.586 434.925C178.509 435.831 178.649 436.404 178.566 436.424Z" fill="#263238"/>
<path d="M140.126 223.04L148.149 223.484C148.656 226.085 150.417 230.062 150.417 230.062C156.875 218.853 161.881 203.835 163.124 197.799C162.943 197.196 162.728 196.529 162.46 195.784C162.152 194.924 162.417 193.294 162.563 192.39C162.779 191.045 163.155 189.238 163.268 188.401C163.612 185.851 164.023 185.45 164.912 185.739C166.122 186.132 164.416 192.902 165.408 193.048C165.941 193.127 166.592 190.808 166.781 188.905C166.97 187.001 167.831 181.148 168.459 180.757C169.382 180.185 170.185 181.09 169.952 182.986C169.717 184.903 169.42 190.624 170.425 190.701C171.415 190.777 172.247 181.072 172.247 181.072C172.247 181.072 172.09 178.96 173.255 179.011C175.355 179.102 173.715 189.334 173.535 190.303C173.409 190.977 174.5 191.101 174.596 190.369C174.695 189.617 175.202 180.664 177.34 180.736C178.981 180.791 176.069 189.168 176.991 191.11C177.912 193.051 178.553 184.515 180.12 184.633C180.703 184.676 181.135 184.79 180.063 189.621C179.487 192.218 177.794 196.992 176.316 200.944C173.832 214.34 162.933 257.191 145.845 249.347C136.283 244.958 131.822 223.226 131.822 223.226L140.126 223.04Z" fill="#FFBE9D"/>
<path d="M176.315 200.949C176.307 200.946 176.334 200.847 176.396 200.656C176.47 200.44 176.564 200.162 176.683 199.812C176.95 199.04 177.324 197.958 177.801 196.579C178.277 195.172 178.862 193.45 179.444 191.427C179.742 190.417 179.983 189.323 180.209 188.149C180.318 187.563 180.429 186.959 180.497 186.339C180.525 186.031 180.558 185.714 180.54 185.41C180.517 185.091 180.468 184.831 180.216 184.826C179.956 184.756 179.782 184.971 179.604 185.241C179.44 185.513 179.313 185.827 179.199 186.147C178.97 186.79 178.791 187.476 178.613 188.176C178.435 188.877 178.27 189.598 178.058 190.332C177.93 190.704 177.873 191.061 177.568 191.459C177.511 191.507 177.46 191.572 177.344 191.595C177.219 191.627 177.125 191.579 177.037 191.526C176.919 191.421 176.863 191.316 176.811 191.218C176.72 191.011 176.663 190.8 176.639 190.594C176.493 188.955 176.867 187.371 177.122 185.725C177.262 184.905 177.411 184.075 177.519 183.235C177.57 182.815 177.615 182.391 177.62 181.975C177.635 181.588 177.567 181.064 177.398 180.991C177.189 180.912 176.81 181.149 176.611 181.495C176.386 181.836 176.218 182.24 176.076 182.653C175.793 183.484 175.608 184.371 175.448 185.267C175.292 186.166 175.17 187.082 175.071 188.011C175.025 188.477 174.979 188.944 174.934 189.414L174.872 190.123C174.855 190.315 174.855 190.716 174.548 190.947C174.264 191.159 173.885 191.183 173.582 190.985C173.43 190.887 173.311 190.705 173.288 190.52C173.269 190.427 173.286 190.34 173.292 190.258L173.323 190.084C173.396 189.61 173.468 189.134 173.541 188.656C173.675 187.698 173.792 186.728 173.885 185.75C173.977 184.772 174.045 183.784 174.06 182.794C174.062 181.813 174.054 180.786 173.773 179.887C173.68 179.615 173.529 179.367 173.361 179.296C173.187 179.234 172.937 179.297 172.809 179.472C172.527 179.871 172.479 180.525 172.501 181.059L172.502 181.085L172.501 181.1C172.327 183.02 172.118 184.906 171.842 186.76C171.7 187.687 171.548 188.605 171.315 189.511C171.257 189.738 171.188 189.964 171.108 190.191C171 190.418 170.969 190.648 170.645 190.896C170.364 191.031 170.156 190.878 170.045 190.765C169.925 190.64 169.877 190.517 169.822 190.396C169.727 190.155 169.681 189.923 169.639 189.692C169.38 187.85 169.487 186.079 169.59 184.341C169.624 183.468 169.838 182.604 169.723 181.837C169.667 181.457 169.519 181.077 169.267 180.907C169.143 180.825 169.001 180.807 168.848 180.843C168.772 180.866 168.695 180.893 168.62 180.939C168.546 181.001 168.562 180.977 168.505 181.08C168.188 181.748 168.033 182.591 167.861 183.355C167.701 184.136 167.563 184.913 167.439 185.681C167.315 186.448 167.204 187.206 167.106 187.953C167.005 188.693 166.954 189.444 166.808 190.174C166.669 190.9 166.502 191.608 166.237 192.286C166.169 192.456 166.093 192.623 166.001 192.788C165.887 192.942 165.823 193.141 165.509 193.237C165.331 193.287 165.176 193.164 165.095 193.063C165.027 192.957 164.993 192.857 164.967 192.761C164.925 192.572 164.907 192.392 164.9 192.217C164.883 190.825 165.089 189.548 165.158 188.316C165.196 187.705 165.225 187.1 165.154 186.542C165.117 186.28 165.033 185.972 164.883 185.91C164.665 185.823 164.381 185.777 164.218 185.896C163.856 186.156 163.731 186.754 163.613 187.232C163.497 187.737 163.445 188.238 163.352 188.721C163.012 190.653 162.652 192.313 162.478 193.668C162.398 194.346 162.366 194.958 162.452 195.467C162.566 195.962 162.73 196.399 162.826 196.742C162.922 197.068 162.999 197.328 163.06 197.531C163.11 197.71 163.133 197.802 163.124 197.805C163.116 197.807 163.078 197.719 163.013 197.546C162.941 197.346 162.848 197.092 162.733 196.773C162.62 196.425 162.45 196.026 162.309 195.494C162.203 194.959 162.223 194.336 162.289 193.647C162.437 192.267 162.767 190.62 163.081 188.683C163.168 188.202 163.214 187.691 163.326 187.171C163.385 186.911 163.441 186.646 163.541 186.379C163.644 186.122 163.755 185.825 164.052 185.63C164.369 185.433 164.719 185.504 165.016 185.617C165.399 185.836 165.413 186.204 165.48 186.492C165.563 187.103 165.537 187.713 165.504 188.336C165.445 189.576 165.251 190.879 165.279 192.198C165.286 192.36 165.306 192.52 165.338 192.665C165.373 192.824 165.454 192.884 165.437 192.854C165.466 192.86 165.59 192.719 165.661 192.59C165.738 192.45 165.807 192.298 165.868 192.139C166.112 191.502 166.275 190.806 166.405 190.098C166.542 189.392 166.587 188.655 166.687 187.897C166.78 187.145 166.887 186.383 167.008 185.61C167.13 184.837 167.263 184.054 167.423 183.262C167.604 182.466 167.72 181.679 168.107 180.852C168.13 180.768 168.299 180.582 168.393 180.537C168.496 180.475 168.613 180.429 168.737 180.394C168.986 180.328 169.291 180.364 169.517 180.516C169.967 180.833 170.108 181.326 170.184 181.764C170.252 182.213 170.229 182.667 170.178 183.099C170.13 183.517 170.096 183.944 170.064 184.373C169.965 186.081 169.871 187.871 170.121 189.604C170.159 189.815 170.206 190.028 170.278 190.209C170.315 190.293 170.359 190.383 170.4 190.421C170.42 190.449 170.434 190.448 170.44 190.453L170.443 190.454L170.444 190.457C170.431 190.649 170.442 190.497 170.439 190.535C170.437 190.5 170.428 190.506 170.405 190.465C170.447 190.431 170.578 190.206 170.642 190.017C170.714 189.812 170.778 189.601 170.834 189.383C171.056 188.511 171.206 187.599 171.346 186.682C171.618 184.844 171.825 182.959 171.997 181.053V181.093C171.987 180.465 171.976 179.806 172.411 179.156C172.664 178.834 173.122 178.661 173.55 178.823C173.975 179.021 174.132 179.401 174.252 179.717C174.576 180.762 174.564 181.787 174.567 182.798C174.552 183.809 174.482 184.807 174.388 185.794C174.294 186.781 174.175 187.757 174.037 188.722C173.962 189.206 173.888 189.686 173.814 190.165C173.754 190.469 173.769 190.479 173.859 190.568C173.958 190.642 174.147 190.631 174.239 190.553C174.343 190.482 174.355 190.34 174.377 190.075L174.441 189.366C174.487 188.894 174.535 188.422 174.582 187.955C174.685 187.019 174.81 186.093 174.971 185.18C175.136 184.268 175.326 183.367 175.626 182.495C175.779 182.059 175.954 181.629 176.22 181.227C176.356 181.03 176.513 180.832 176.744 180.686C176.981 180.55 177.24 180.427 177.594 180.563C177.929 180.746 177.986 181.057 178.04 181.283C178.075 181.521 178.09 181.753 178.082 181.977C178.075 182.427 178.027 182.862 177.972 183.291C177.859 184.149 177.706 184.98 177.561 185.8C177.295 187.428 176.927 189.047 177.055 190.534C177.074 190.717 177.123 190.885 177.185 191.033C177.222 191.107 177.264 191.168 177.291 191.195C177.294 191.187 177.284 191.181 177.27 191.231C177.263 191.298 177.272 191.217 177.262 191.228C177.231 191.177 177.255 191.192 177.267 191.173C177.44 190.962 177.56 190.552 177.668 190.215C177.88 189.503 178.049 188.781 178.233 188.078C178.417 187.374 178.603 186.683 178.845 186.018C178.967 185.685 179.101 185.358 179.29 185.048C179.393 184.896 179.495 184.74 179.662 184.615C179.736 184.549 179.846 184.501 179.954 184.471C180.081 184.451 180.183 184.454 180.267 184.47C180.459 184.479 180.719 184.646 180.783 184.849C180.862 185.04 180.88 185.219 180.889 185.389C180.905 185.734 180.867 186.056 180.835 186.376C180.759 187.012 180.64 187.619 180.524 188.208C180.287 189.383 180.029 190.492 179.716 191.503C179.105 193.53 178.493 195.243 177.987 196.641C177.479 198.039 177.066 199.116 176.779 199.845C176.641 200.186 176.531 200.458 176.446 200.67C176.367 200.859 176.323 200.952 176.315 200.949Z" fill="#EB996E"/>
<path d="M131.73 223.969C133.282 229.444 136.314 237.905 139.574 246.824C140.045 248.114 141.838 248.198 142.425 246.957L150.416 230.062C150.416 230.062 148.492 216.182 148.655 216.671C148.819 217.161 132.167 218.467 132.167 218.467L131.73 223.969Z" fill="#3085FE"/>
<path d="M153.33 225.312C153.296 225.347 153.122 225.154 152.72 225.038C152.343 224.925 151.638 224.926 151.177 225.447L150.966 225.687L150.846 225.383C150.418 224.297 149.885 222.878 149.327 221.325C148.039 217.739 147.101 214.794 147.233 214.747C147.365 214.699 148.516 217.567 149.805 221.154C150.363 222.706 150.855 224.14 151.216 225.25L150.885 225.185C151.202 224.857 151.604 224.719 151.942 224.692C152.285 224.66 152.579 224.736 152.796 224.83C153.236 225.035 153.356 225.299 153.33 225.312Z" fill="#263238"/>
<path d="M142.004 241.388C141.943 241.353 142.39 240.441 143.162 238.993C143.934 237.546 145.031 235.564 146.27 233.39C147.509 231.215 148.655 229.261 149.507 227.858C150.36 226.457 150.917 225.607 150.977 225.642C151.038 225.677 150.59 226.588 149.819 228.037C149.047 229.484 147.95 231.467 146.711 233.641C145.472 235.815 144.326 237.769 143.474 239.172C142.622 240.573 142.065 241.422 142.004 241.388Z" fill="#263238"/>
<path d="M136.686 238.849C136.663 238.811 137.17 238.462 138.079 237.878C138.99 237.295 140.304 236.477 141.896 235.503L141.809 235.766C140.924 233.693 139.89 231.269 138.777 228.661C137.394 225.37 136.155 222.359 135.252 220.105L135.519 220.196C134.256 220.882 133.227 221.429 132.509 221.797C131.791 222.166 131.385 222.354 131.367 222.321C131.348 222.288 131.72 222.038 132.406 221.614C133.093 221.191 134.093 220.594 135.334 219.867L135.514 219.762L135.601 219.958C136.578 222.182 137.862 225.174 139.245 228.464C140.329 231.084 141.336 233.519 142.198 235.602L142.27 235.773L142.112 235.865C140.496 236.8 139.151 237.564 138.204 238.087C137.256 238.608 136.708 238.886 136.686 238.849Z" fill="#FAFAFA"/>
<path d="M180.021 431.309C182.98 431.217 185.382 428.895 185.564 425.941C187.233 398.981 194.733 276.346 193.226 272.496C191.534 268.169 187.088 253.138 187.088 253.138L147.32 251.271C147.32 251.271 137.418 266.913 135.993 272.9C134.716 278.267 98.6861 391.789 94.2048 415.931C93.745 418.41 95.2265 420.831 97.641 421.558L180.021 431.309Z" fill="#263238"/>
<path d="M155.169 252.142C155.169 252.142 155.117 252.29 154.991 252.568C154.854 252.864 154.665 253.271 154.422 253.794C153.906 254.89 153.162 256.469 152.208 258.492C151.772 259.534 151.287 260.689 150.757 261.952C150.221 263.215 149.636 264.585 149.106 266.098C148.56 267.602 147.941 269.2 147.346 270.914C146.784 272.641 146.191 274.466 145.569 276.382C145.008 278.318 144.42 280.346 143.809 282.459C143.232 284.582 142.685 286.805 142.089 289.099C141.555 291.408 141.003 293.797 140.434 296.257C139.916 298.729 139.34 301.263 138.827 303.88C137.758 309.104 136.711 314.604 135.595 320.301C134.464 325.995 133.303 331.894 131.904 337.894C131.246 340.904 130.465 343.848 129.741 346.76C128.944 349.653 128.177 352.511 127.324 355.289C125.631 360.849 123.782 366.144 121.891 371.137C118.078 381.113 114.137 389.889 110.69 397.185C107.236 404.481 104.292 410.311 102.246 414.333C101.221 416.322 100.421 417.874 99.8657 418.951C99.5959 419.461 99.3864 419.857 99.2335 420.145C99.0884 420.413 99.0027 420.545 99.0027 420.545C99.0027 420.545 99.0572 420.398 99.1877 420.122C99.33 419.828 99.5248 419.425 99.7751 418.905C100.31 417.818 101.081 416.25 102.07 414.243C104.062 410.195 106.954 404.341 110.365 397.032C113.769 389.722 117.672 380.939 121.454 370.97C123.33 365.981 125.165 360.692 126.848 355.143C127.697 352.37 128.46 349.518 129.253 346.631C129.975 343.723 130.753 340.785 131.411 337.779C132.807 331.789 133.971 325.894 135.108 320.203C136.231 314.509 137.288 309.01 138.37 303.785C138.89 301.168 139.473 298.631 139.999 296.158C140.577 293.697 141.139 291.307 141.681 288.996C142.287 286.701 142.845 284.477 143.433 282.353C144.057 280.239 144.655 278.21 145.227 276.274C145.863 274.358 146.469 272.534 147.042 270.807C147.65 269.093 148.282 267.497 148.842 265.994C149.385 264.485 149.985 263.116 150.535 261.858C151.081 260.599 151.579 259.447 152.029 258.41C153.002 256.373 153.804 254.812 154.332 253.748C154.594 253.235 154.797 252.835 154.945 252.544C155.087 252.275 155.169 252.142 155.169 252.142Z" fill="#455A64"/>
<path d="M120.055 423.928C120.055 423.928 120.081 423.775 120.156 423.482C120.24 423.169 120.355 422.739 120.503 422.187C120.824 421.028 121.288 419.358 121.882 417.22C123.086 412.883 124.817 406.648 126.954 398.952C129.077 391.235 131.554 382.033 134.24 371.797C135.56 366.673 136.946 361.294 138.381 355.719C139.778 350.133 141.224 344.35 142.704 338.427C144.133 332.488 145.528 326.691 146.875 321.092C148.182 315.483 149.442 310.074 150.643 304.919C152.998 294.601 155.06 285.296 156.749 277.472C158.415 269.661 159.766 263.333 160.705 258.933C161.169 256.762 161.53 255.068 161.781 253.892C161.905 253.334 162.003 252.9 162.073 252.584C162.141 252.29 162.19 252.142 162.19 252.142C162.19 252.142 162.176 252.297 162.124 252.595C162.066 252.914 161.985 253.351 161.882 253.914C161.653 255.094 161.323 256.795 160.899 258.974C160.457 261.176 159.918 263.859 159.293 266.97C158.647 270.087 157.912 273.632 157.101 277.548C155.456 285.383 153.431 294.697 151.1 305.023C149.919 310.183 148.693 315.602 147.36 321.206C146.016 326.808 144.624 332.608 143.199 338.549C141.714 344.472 140.265 350.256 138.865 355.842C137.454 361.426 136.034 366.797 134.693 371.916C131.981 382.147 129.467 391.342 127.3 399.048C126.207 402.895 125.219 406.378 124.349 409.44C123.464 412.488 122.699 415.116 122.073 417.273C121.44 419.401 120.945 421.061 120.602 422.214C120.434 422.761 120.303 423.186 120.208 423.496C120.114 423.784 120.055 423.928 120.055 423.928Z" fill="#455A64"/>
<path d="M167.445 252.214C167.445 252.214 167.478 252.366 167.519 252.667C167.559 252.991 167.614 253.435 167.685 254.006C167.755 254.603 167.84 255.33 167.94 256.184C168.04 257.046 168.06 258.048 168.133 259.172C168.164 259.735 168.197 260.329 168.231 260.953C168.233 261.579 168.234 262.235 168.235 262.92C168.236 263.605 168.236 264.321 168.236 265.064C168.23 265.808 168.172 266.579 168.14 267.379C168.099 268.178 168.057 269.005 168.013 269.859C167.935 270.711 167.855 271.589 167.773 272.492C167.64 274.304 167.333 276.199 167.09 278.199C166.484 282.181 165.683 286.523 164.667 291.148C163.643 295.771 162.441 300.684 161.192 305.855C159.948 311.025 158.657 316.457 157.579 322.139C156.522 327.824 155.604 333.744 154.834 339.832C154.056 345.92 153.4 351.879 152.768 357.634C152.141 363.391 151.505 368.942 150.84 374.223C150.478 376.86 150.127 379.432 149.784 381.931C149.38 384.42 149.018 386.843 148.611 389.175C148.166 391.501 147.78 393.756 147.329 395.908C146.848 398.053 146.413 400.118 145.95 402.078C145.439 404.025 144.952 405.88 144.491 407.636C143.999 409.382 143.454 411.006 142.987 412.535C142.743 413.296 142.531 414.04 142.283 414.74C142.024 415.436 141.776 416.106 141.537 416.75C141.06 418.032 140.623 419.206 140.229 420.262C139.366 422.342 138.622 423.927 138.146 425.011C137.907 425.534 137.721 425.941 137.587 426.237C137.458 426.513 137.38 426.647 137.38 426.647C137.38 426.647 137.426 426.497 137.539 426.215C137.663 425.914 137.833 425.5 138.052 424.968C138.497 423.87 139.211 422.276 140.045 420.189C140.426 419.129 140.848 417.953 141.309 416.667C141.541 416.024 141.783 415.353 142.034 414.655C142.274 413.954 142.48 413.21 142.718 412.448C143.171 410.917 143.702 409.294 144.181 407.548C144.63 405.793 145.104 403.939 145.603 401.993C146.03 400.029 146.479 397.972 146.946 395.829C147.387 393.679 147.762 391.426 148.197 389.103C148.595 386.773 148.947 384.353 149.343 381.865C149.678 379.368 150.023 376.799 150.376 374.164C151.029 368.886 151.654 363.337 152.275 357.58C152.9 351.823 153.552 345.862 154.332 339.766C155.102 333.672 156.025 327.742 157.091 322.045C158.178 316.351 159.481 310.914 160.737 305.744C161.998 300.575 163.215 295.669 164.255 291.057C165.287 286.444 166.107 282.116 166.735 278.147C166.988 276.154 167.306 274.266 167.45 272.461C167.539 271.561 167.626 270.685 167.71 269.837C167.759 268.987 167.808 268.163 167.855 267.365C167.894 266.568 167.958 265.8 167.972 265.058C167.978 264.316 167.985 263.603 167.991 262.92C167.997 262.236 168.003 261.582 168.008 260.958C167.981 260.336 167.957 259.742 167.933 259.18C167.875 258.058 167.87 257.058 167.786 256.197C167.706 255.342 167.636 254.614 167.58 254.017C167.53 253.445 167.491 252.998 167.463 252.674C167.444 252.372 167.445 252.214 167.445 252.214Z" fill="#455A64"/>
<path d="M163.103 430.148C163.103 430.148 163.059 429.998 163 429.699C162.939 429.378 162.855 428.937 162.748 428.371C162.64 427.778 162.508 427.056 162.353 426.208C162.204 425.352 161.996 424.369 161.893 423.243C161.763 422.119 161.619 420.871 161.462 419.509C161.277 418.145 161.266 416.649 161.15 415.049C161.109 414.248 161.047 413.419 161.017 412.563C161.011 411.706 161.006 410.823 160.999 409.913C160.994 409.003 160.989 408.067 160.982 407.106C161.017 406.145 161.053 405.161 161.09 404.152C161.13 403.143 161.172 402.109 161.214 401.053C161.298 399.999 161.383 398.923 161.471 397.824C161.615 395.623 161.891 393.347 162.164 390.988C162.411 388.625 162.828 386.205 163.169 383.699C163.595 381.206 163.989 378.632 164.493 376.012C166.412 365.509 169.077 354.081 171.503 342.019C173.921 329.952 175.608 318.338 176.62 307.725C177.669 297.114 178.074 287.511 178.206 279.449C178.252 275.418 178.239 271.77 178.191 268.567C178.128 265.364 178.051 262.606 177.955 260.352C177.888 258.097 177.77 256.35 177.726 255.163C177.703 254.587 177.685 254.138 177.672 253.813C177.663 253.508 177.671 253.351 177.671 253.351C177.671 253.351 177.698 253.506 177.724 253.809C177.749 254.134 177.783 254.581 177.828 255.156C177.905 256.341 178.055 258.088 178.153 260.342C178.279 262.595 178.384 265.355 178.474 268.56C178.55 271.766 178.588 275.416 178.565 279.453C178.477 287.524 178.11 297.14 177.085 307.768C176.096 318.399 174.421 330.035 172 342.118C169.571 354.192 166.893 365.612 164.952 376.096C164.443 378.712 164.042 381.279 163.609 383.767C163.261 386.267 162.836 388.683 162.581 391.039C162.3 393.391 162.013 395.662 161.86 397.857C161.768 398.952 161.677 400.026 161.588 401.077C161.54 402.13 161.493 403.16 161.448 404.166C161.405 405.172 161.363 406.155 161.323 407.113C161.323 408.071 161.322 409.004 161.322 409.912C161.321 410.819 161.32 411.701 161.32 412.555C161.343 413.409 161.398 414.235 161.433 415.035C161.535 416.631 161.531 418.126 161.702 419.487C161.842 420.849 161.972 422.096 162.087 423.219C162.175 424.344 162.368 425.327 162.501 426.184C162.637 427.036 162.753 427.759 162.847 428.354C162.934 428.923 163.001 429.367 163.05 429.69C163.094 429.991 163.103 430.148 163.103 430.148Z" fill="#455A64"/>
<path d="M184.928 253.036C184.928 253.036 184.985 253.181 185.072 253.471C185.163 253.783 185.287 254.212 185.447 254.764C185.61 255.341 185.808 256.044 186.041 256.87C186.298 257.698 186.509 258.674 186.728 259.777C186.943 260.879 187.24 262.097 187.456 263.448C187.648 264.804 187.856 266.276 188.079 267.857C188.206 269.45 188.342 271.154 188.486 272.959C188.513 274.769 188.632 276.685 188.589 278.696C188.556 282.718 188.267 287.119 187.743 291.818C187.186 296.513 186.426 301.509 185.485 306.736C184.511 311.956 183.488 317.435 182.429 323.114C181.362 328.79 180.424 334.694 179.58 340.759C178.719 346.824 178.039 352.766 177.474 358.514C176.889 364.261 176.501 369.819 176.163 375.115C175.87 380.413 175.63 385.452 175.534 390.171C175.405 394.889 175.382 399.287 175.396 403.3C175.419 407.314 175.474 410.945 175.578 414.132C175.65 417.321 175.79 420.064 175.874 422.308C175.983 424.532 176.068 426.267 176.128 427.472C176.152 428.045 176.171 428.491 176.184 428.816C176.194 429.119 176.186 429.275 176.186 429.275C176.186 429.275 176.159 429.121 176.133 428.819C176.106 428.495 176.071 428.051 176.026 427.478C175.943 426.299 175.802 424.56 175.677 422.317C175.563 420.074 175.393 417.33 175.295 414.14C175.165 410.951 175.085 407.318 175.039 403.301C175.001 399.285 175.004 394.883 175.114 390.16C175.193 385.436 175.416 380.392 175.697 375.087C176.024 369.784 176.402 364.219 176.98 358.464C177.538 352.709 178.216 346.759 179.078 340.688C179.924 334.617 180.867 328.703 181.941 323.023C183.01 317.347 184.043 311.87 185.026 306.652C185.98 301.432 186.753 296.45 187.327 291.769C187.867 287.084 188.176 282.699 188.233 278.69C188.287 276.686 188.18 274.778 188.166 272.972C188.037 271.172 187.914 269.474 187.799 267.885C187.592 266.307 187.398 264.839 187.22 263.485C187.018 262.136 186.737 260.919 186.536 259.816C186.332 258.712 186.138 257.735 185.896 256.905C185.682 256.075 185.5 255.368 185.35 254.789C185.21 254.233 185.102 253.799 185.023 253.484C184.951 253.191 184.928 253.036 184.928 253.036Z" fill="#455A64"/>
<path d="M370.334 453.005L247.775 452.439C233.035 452.371 221.139 440.369 221.201 425.629L222.501 118.37C222.563 103.622 234.572 91.7178 249.321 91.7859L371.88 92.3518C386.621 92.42 398.516 104.422 398.454 119.162L397.155 426.422C397.092 441.17 385.084 453.074 370.334 453.005Z" fill="#263238"/>
<path d="M370.691 100.981L346.929 100.871C343.743 100.856 341.148 103.545 341.134 106.876L341.115 111.186C341.102 114.517 338.506 117.207 335.32 117.192L289.003 116.978C285.817 116.963 283.244 114.25 283.258 110.919L283.276 106.609C283.29 103.278 280.718 100.566 277.531 100.551L269.174 100.512L248.376 100.417C238.047 100.369 229.636 108.705 229.593 119.036L228.324 418.942C228.281 429.266 236.612 437.671 246.936 437.72L369.25 438.284C379.579 438.331 387.989 429.995 388.034 419.666L389.302 119.757C389.345 109.433 381.014 101.028 370.691 100.981Z" fill="#FAFAFA"/>
<path d="M245.438 132.859C245.31 132.859 245.181 132.808 245.086 132.709L243.223 130.763C243.134 130.669 243.084 130.545 243.087 130.416C243.09 130.286 243.145 130.164 243.237 130.074L245.101 128.292C245.296 128.107 245.605 128.113 245.789 128.307C245.975 128.502 245.968 128.81 245.774 128.996L244.262 130.441L245.788 132.035C245.974 132.229 245.967 132.537 245.773 132.723C245.68 132.814 245.559 132.859 245.438 132.859Z" fill="#263238"/>
<path d="M360.936 420.524H259.82C251.147 420.524 244.117 413.493 244.117 404.82V402.011C244.117 393.338 251.148 386.308 259.82 386.308H360.936C369.61 386.308 376.64 393.339 376.64 402.011V404.82C376.64 413.493 369.609 420.524 360.936 420.524Z" fill="#3085FE"/>
<path d="M294.617 399.449H297.696C300.117 399.449 301.748 401.006 301.748 403.231C301.748 405.457 300.117 407.013 297.696 407.013H294.617V399.449ZM297.653 406.321C299.662 406.321 300.959 405.046 300.959 403.23C300.959 401.416 299.663 400.14 297.653 400.14H295.416V406.321H297.653Z" fill="#FAFAFA"/>
<path d="M302.867 403.231C302.867 401.027 304.553 399.385 306.843 399.385C309.112 399.385 310.808 401.017 310.808 403.231C310.808 405.446 309.112 407.077 306.843 407.077C304.552 407.077 302.867 405.435 302.867 403.231ZM310.009 403.231C310.009 401.426 308.658 400.098 306.843 400.098C305.017 400.098 303.655 401.426 303.655 403.231C303.655 405.035 305.017 406.364 306.843 406.364C308.658 406.363 310.009 405.035 310.009 403.231Z" fill="#FAFAFA"/>
<path d="M318.918 399.449V407.013H318.259L313.397 400.876V407.013H312.598V399.449H313.257L318.13 405.587V399.449H318.918Z" fill="#FAFAFA"/>
<path d="M326.728 406.321V407.012H321.379V399.448H326.565V400.14H322.179V402.831H326.091V403.512H322.179V406.321H326.728Z" fill="#FAFAFA"/>
<path d="M260.021 283.421C260.021 284.802 259.022 285.634 257.373 285.634H255.632V287.681H254.947V281.2H257.373C259.022 281.199 260.021 282.032 260.021 283.421ZM259.337 283.421C259.337 282.385 258.651 281.792 257.355 281.792H255.632V285.032H257.355C258.651 285.032 259.337 284.44 259.337 283.421Z" fill="#263238"/>
<path d="M265.847 282.811V287.681H265.218V286.792C264.875 287.383 264.245 287.727 263.467 287.727C262.226 287.727 261.412 287.033 261.412 285.635V282.812H262.07V285.571C262.07 286.607 262.607 287.135 263.533 287.135C264.551 287.135 265.19 286.478 265.19 285.366V282.812H265.847V282.811Z" fill="#263238"/>
<path d="M270.145 282.773V283.411C270.089 283.411 270.034 283.403 269.987 283.403C268.968 283.403 268.348 284.05 268.348 285.199V287.68H267.69V282.81H268.32V283.763C268.626 283.115 269.246 282.773 270.145 282.773Z" fill="#263238"/>
<path d="M270.794 285.245C270.794 283.792 271.849 282.773 273.303 282.773C274.127 282.773 274.821 283.097 275.21 283.736L274.719 284.07C274.386 283.579 273.867 283.347 273.303 283.347C272.238 283.347 271.46 284.107 271.46 285.245C271.46 286.394 272.238 287.143 273.303 287.143C273.868 287.143 274.386 286.922 274.719 286.431L275.21 286.764C274.821 287.393 274.127 287.727 273.303 287.727C271.849 287.727 270.794 286.699 270.794 285.245Z" fill="#263238"/>
<path d="M280.906 284.856V287.68H280.248V284.92C280.248 283.893 279.712 283.365 278.785 283.365C277.739 283.365 277.082 284.013 277.082 285.124V287.68H276.424V280.809H277.082V283.661C277.443 283.096 278.081 282.773 278.906 282.773C280.09 282.774 280.906 283.458 280.906 284.856Z" fill="#263238"/>
<path d="M286.369 284.662V287.68H285.74V286.922C285.444 287.421 284.869 287.727 284.063 287.727C282.962 287.727 282.286 287.153 282.286 286.31C282.286 285.56 282.767 284.931 284.166 284.931H285.711V284.634C285.711 283.801 285.239 283.347 284.331 283.347C283.702 283.347 283.11 283.57 282.711 283.922L282.414 283.431C282.905 283.014 283.628 282.773 284.397 282.773C285.656 282.773 286.369 283.403 286.369 284.662ZM285.712 286.218V285.422H284.185C283.24 285.422 282.936 285.792 282.936 286.292C282.936 286.856 283.389 287.208 284.167 287.208C284.906 287.208 285.453 286.856 285.712 286.218Z" fill="#263238"/>
<path d="M287.482 287.124L287.778 286.606C288.167 286.911 288.824 287.153 289.51 287.153C290.436 287.153 290.815 286.838 290.815 286.357C290.815 285.088 287.657 286.089 287.657 284.162C287.657 283.367 288.343 282.773 289.584 282.773C290.213 282.773 290.899 282.95 291.306 283.227L291.019 283.755C290.593 283.458 290.084 283.338 289.584 283.338C288.705 283.338 288.315 283.681 288.315 284.143C288.315 285.458 291.473 284.467 291.473 286.338C291.473 287.18 290.732 287.727 289.463 287.727C288.658 287.727 287.88 287.467 287.482 287.124Z" fill="#263238"/>
<path d="M296.927 285.449H292.853C292.927 286.468 293.704 287.143 294.77 287.143C295.362 287.143 295.89 286.93 296.26 286.505L296.63 286.931C296.195 287.45 295.519 287.727 294.75 287.727C293.232 287.727 292.194 286.69 292.194 285.245C292.194 283.801 293.203 282.773 294.574 282.773C295.944 282.773 296.935 283.782 296.935 285.245C296.937 285.3 296.927 285.374 296.927 285.449ZM292.853 284.958H296.307C296.223 284.005 295.528 283.338 294.575 283.338C293.63 283.338 292.937 284.004 292.853 284.958Z" fill="#263238"/>
<path d="M307.854 282.811L306.011 287.681H305.39L303.853 283.689L302.316 287.681H301.696L299.863 282.811H300.492L302.019 286.949L303.584 282.811H304.149L305.705 286.949L307.252 282.811H307.854Z" fill="#263238"/>
<path d="M312.375 284.662V287.68H311.745V286.922C311.448 287.421 310.874 287.727 310.068 287.727C308.967 287.727 308.291 287.153 308.291 286.31C308.291 285.56 308.773 284.931 310.171 284.931H311.717V284.634C311.717 283.801 311.246 283.347 310.338 283.347C309.709 283.347 309.116 283.57 308.717 283.922L308.421 283.431C308.912 283.014 309.634 282.773 310.402 282.773C311.662 282.773 312.375 283.403 312.375 284.662ZM311.717 286.218V285.422H310.19C309.245 285.422 308.94 285.792 308.94 286.292C308.94 286.856 309.394 287.208 310.172 287.208C310.912 287.208 311.458 286.856 311.717 286.218Z" fill="#263238"/>
<path d="M313.486 287.124L313.783 286.606C314.171 286.911 314.829 287.153 315.514 287.153C316.439 287.153 316.819 286.838 316.819 286.357C316.819 285.088 313.662 286.089 313.662 284.162C313.662 283.367 314.347 282.773 315.588 282.773C316.218 282.773 316.903 282.95 317.31 283.227L317.024 283.755C316.597 283.458 316.088 283.338 315.588 283.338C314.708 283.338 314.319 283.681 314.319 284.143C314.319 285.458 317.477 284.467 317.477 286.338C317.477 287.18 316.735 287.727 315.467 287.727C314.662 287.727 313.884 287.467 313.486 287.124Z" fill="#263238"/>
<path d="M320.442 287.124L320.739 286.606C321.127 286.911 321.786 287.153 322.47 287.153C323.396 287.153 323.775 286.838 323.775 286.357C323.775 285.088 320.619 286.089 320.619 284.162C320.619 283.367 321.303 282.773 322.544 282.773C323.174 282.773 323.859 282.95 324.266 283.227L323.98 283.755C323.553 283.458 323.044 283.338 322.544 283.338C321.665 283.338 321.275 283.681 321.275 284.143C321.275 285.458 324.433 284.467 324.433 286.338C324.433 287.18 323.692 287.727 322.423 287.727C321.618 287.727 320.841 287.467 320.442 287.124Z" fill="#263238"/>
<path d="M330.035 282.811V287.681H329.406V286.792C329.063 287.383 328.434 287.727 327.656 287.727C326.416 287.727 325.601 287.033 325.601 285.635V282.812H326.258V285.571C326.258 286.607 326.796 287.135 327.721 287.135C328.74 287.135 329.379 286.478 329.379 285.366V282.812H330.035V282.811Z" fill="#263238"/>
<path d="M331.388 285.245C331.388 283.792 332.444 282.773 333.897 282.773C334.721 282.773 335.416 283.097 335.804 283.736L335.313 284.07C334.98 283.579 334.462 283.347 333.897 283.347C332.832 283.347 332.054 284.107 332.054 285.245C332.054 286.394 332.832 287.143 333.897 287.143C334.462 287.143 334.98 286.922 335.313 286.431L335.804 286.764C335.415 287.393 334.721 287.727 333.897 287.727C332.444 287.727 331.388 286.699 331.388 285.245Z" fill="#263238"/>
<path d="M336.519 285.245C336.519 283.792 337.575 282.773 339.028 282.773C339.852 282.773 340.547 283.097 340.935 283.736L340.445 284.07C340.111 283.579 339.593 283.347 339.028 283.347C337.963 283.347 337.185 284.107 337.185 285.245C337.185 286.394 337.963 287.143 339.028 287.143C339.593 287.143 340.111 286.922 340.445 286.431L340.935 286.764C340.547 287.393 339.852 287.727 339.028 287.727C337.575 287.727 336.519 286.699 336.519 285.245Z" fill="#263238"/>
<path d="M346.381 285.449H342.307C342.381 286.468 343.158 287.143 344.223 287.143C344.816 287.143 345.344 286.93 345.714 286.505L346.085 286.931C345.649 287.45 344.972 287.727 344.204 287.727C342.685 287.727 341.649 286.69 341.649 285.245C341.649 283.801 342.658 282.773 344.029 282.773C345.398 282.773 346.39 283.782 346.39 285.245C346.391 285.3 346.381 285.374 346.381 285.449ZM342.307 284.958H345.76C345.677 284.005 344.982 283.338 344.03 283.338C343.085 283.338 342.39 284.004 342.307 284.958Z" fill="#263238"/>
<path d="M347.058 287.124L347.355 286.606C347.743 286.911 348.401 287.153 349.086 287.153C350.011 287.153 350.391 286.838 350.391 286.357C350.391 285.088 347.234 286.089 347.234 284.162C347.234 283.367 347.919 282.773 349.161 282.773C349.791 282.773 350.476 282.95 350.883 283.227L350.596 283.755C350.17 283.458 349.66 283.338 349.161 283.338C348.281 283.338 347.892 283.681 347.892 284.143C347.892 285.458 351.049 284.467 351.049 286.338C351.049 287.18 350.308 287.727 349.039 287.727C348.234 287.727 347.456 287.467 347.058 287.124Z" fill="#263238"/>
<path d="M351.586 287.124L351.883 286.606C352.271 286.911 352.929 287.153 353.614 287.153C354.539 287.153 354.919 286.838 354.919 286.357C354.919 285.088 351.762 286.089 351.762 284.162C351.762 283.367 352.447 282.773 353.689 282.773C354.318 282.773 355.004 282.95 355.411 283.227L355.124 283.755C354.698 283.458 354.188 283.338 353.689 283.338C352.809 283.338 352.42 283.681 352.42 284.143C352.42 285.458 355.577 284.467 355.577 286.338C355.577 287.18 354.836 287.727 353.568 287.727C352.762 287.727 351.985 287.467 351.586 287.124Z" fill="#263238"/>
<path d="M357.541 282.236V282.811H359.041V283.366H357.56V287.681H356.903V283.366H356.031V282.811H356.903V282.209C356.903 281.339 357.421 280.764 358.375 280.764C358.736 280.764 359.106 280.866 359.347 281.071L359.125 281.562C358.94 281.404 358.681 281.32 358.402 281.32C357.837 281.318 357.541 281.634 357.541 282.236Z" fill="#263238"/>
<path d="M364.32 282.811V287.681H363.69V286.792C363.347 287.383 362.718 287.727 361.94 287.727C360.699 287.727 359.885 287.033 359.885 285.635V282.812H360.542V285.571C360.542 286.607 361.08 287.135 362.005 287.135C363.024 287.135 363.663 286.478 363.663 285.366V282.812H364.32V282.811Z" fill="#263238"/>
<path d="M366.164 280.81H366.821V287.681H366.164V280.81Z" fill="#263238"/>
<path d="M263.987 256.956H259.874V255.006H270.406V256.956H266.293V267.417H263.987V256.956Z" fill="#3085FE"/>
<path d="M281.255 261.991V267.417H279.039V262.275C279.039 260.591 278.206 259.776 276.787 259.776C275.209 259.776 274.145 260.732 274.145 262.63V267.418H271.929V254.262H274.145V259.049C274.873 258.268 275.989 257.843 277.301 257.843C279.57 257.842 281.255 259.137 281.255 261.991Z" fill="#3085FE"/>
<path d="M291.998 261.868V267.418H289.905V266.264C289.374 267.081 288.345 267.541 286.926 267.541C284.763 267.541 283.398 266.354 283.398 264.705C283.398 263.127 284.462 261.885 287.335 261.885H289.782V261.743C289.782 260.449 289.002 259.687 287.424 259.687C286.36 259.687 285.26 260.042 284.551 260.627L283.683 259.013C284.694 258.233 286.164 257.843 287.69 257.843C290.42 257.843 291.998 259.138 291.998 261.868ZM289.781 264.457V263.357H287.493C285.986 263.357 285.578 263.925 285.578 264.616C285.578 265.414 286.252 265.928 287.387 265.928C288.469 265.928 289.409 265.432 289.781 264.457Z" fill="#3085FE"/>
<path d="M304.158 261.993V267.418H301.942V262.276C301.942 260.592 301.109 259.777 299.69 259.777C298.112 259.777 297.049 260.733 297.049 262.631V267.419H294.833V257.95H296.943V259.174C297.669 258.305 298.822 257.844 300.205 257.844C302.474 257.843 304.158 259.138 304.158 261.993Z" fill="#3085FE"/>
<path d="M310.84 263.356L309.192 264.916V267.416H306.976V254.26H309.192V262.203L313.784 257.947H316.443L312.489 261.918L316.814 267.416H314.119L310.84 263.356Z" fill="#3085FE"/>
<path d="M332.007 257.949L327.574 268.18C326.704 270.325 325.499 270.98 323.922 270.98C322.982 270.98 321.989 270.662 321.385 270.112L322.272 268.479C322.698 268.887 323.3 269.136 323.903 269.136C324.683 269.136 325.144 268.764 325.57 267.824L325.729 267.451L321.599 257.947H323.903L326.883 264.95L329.879 257.947H332.007V257.949Z" fill="#3085FE"/>
<path d="M332.341 262.684C332.341 259.847 334.469 257.843 337.376 257.843C340.32 257.843 342.43 259.847 342.43 262.684C342.43 265.52 340.321 267.541 337.376 267.541C334.468 267.541 332.341 265.52 332.341 262.684ZM340.195 262.684C340.195 260.876 338.99 259.723 337.375 259.723C335.78 259.723 334.574 260.876 334.574 262.684C334.574 264.492 335.78 265.645 337.375 265.645C338.99 265.645 340.195 264.492 340.195 262.684Z" fill="#3085FE"/>
<path d="M353.722 257.949V267.416H351.612V266.211C350.902 267.08 349.786 267.54 348.562 267.54C346.134 267.54 344.485 266.211 344.485 263.356V257.949H346.7V263.054C346.7 264.775 347.517 265.589 348.916 265.589C350.459 265.589 351.505 264.632 351.505 262.734V257.947H353.722V257.949Z" fill="#3085FE"/>
<path d="M356.219 266.158C356.219 265.396 356.822 264.793 357.656 264.793C358.471 264.793 359.056 265.396 359.056 266.158C359.056 266.92 358.471 267.54 357.656 267.54C356.822 267.54 356.219 266.92 356.219 266.158ZM356.343 255.006H358.967L358.524 263.303H356.769L356.343 255.006Z" fill="#3085FE"/>
<path d="M311.256 236.427C325.339 236.427 336.756 225.011 336.756 210.927C336.756 196.843 325.339 185.426 311.256 185.426C297.173 185.426 285.755 196.843 285.755 210.927C285.755 225.011 297.173 236.427 311.256 236.427Z" fill="#3085FE"/>
<path d="M323.814 200.169C324.141 200.434 319.377 206.84 313.176 214.477C311.855 216.081 310.587 217.619 309.421 219.033L308.907 219.656L308.356 219.089C303.514 214.099 300.208 210.394 300.441 210.159C300.676 209.925 304.381 213.232 309.371 218.074L308.306 218.129C309.452 216.697 310.697 215.142 311.995 213.518C318.195 205.881 323.488 199.905 323.814 200.169Z" fill="white"/>
<path d="M347.479 200.654C346.723 197.975 343.241 198.235 343.241 198.235L343.336 200.099C345.348 199.752 346.599 202.11 346.599 202.11L347.479 200.654Z" fill="#3085FE"/>
<path d="M273.618 206.271C272.862 203.593 269.38 203.853 269.38 203.853L269.476 205.716C271.488 205.369 272.739 207.727 272.739 207.727L273.618 206.271Z" fill="#E0E0E0"/>
<path d="M314.3 169.217C318.338 170.44 320.851 165.782 320.851 165.782L318.395 164.383C317.194 167.236 313.161 166.905 313.161 166.905L314.3 169.217Z" fill="#E0E0E0"/>
<path d="M291.889 174.23C290.01 174.43 289.786 176.789 289.786 176.789L291.043 176.938C291.041 175.551 292.763 174.984 292.763 174.984L291.889 174.23Z" fill="#3085FE"/>
<path d="M369.358 191.484C369.63 189.614 367.401 188.811 367.401 188.811L366.944 189.992C368.288 190.334 368.41 192.143 368.41 192.143L369.358 191.484Z" fill="#E0E0E0"/>
<path d="M302.855 149.613C303.127 147.743 300.898 146.94 300.898 146.94L300.441 148.122C301.785 148.464 301.907 150.272 301.907 150.272L302.855 149.613Z" fill="#3085FE"/>
<path d="M256.416 179.78C256.078 182.712 259.963 183.422 259.963 183.422L260.664 181.503C258.333 181.293 257.997 178.546 257.997 178.546L256.416 179.78Z" fill="#3085FE"/>
<path d="M342.869 169.153C344.755 169.262 345.359 166.969 345.359 166.969L344.143 166.617C343.92 167.986 342.129 168.266 342.129 168.266L342.869 169.153Z" fill="#3085FE"/>
<path d="M353.178 176.847C353.178 176.931 352.48 176.999 351.62 176.999C350.759 176.999 350.062 176.931 350.062 176.847C350.062 176.763 350.759 176.695 351.62 176.695C352.48 176.695 353.178 176.763 353.178 176.847Z" fill="#E0E0E0"/>
<path d="M354.832 172.609C354.916 172.609 354.984 173.317 354.984 174.19C354.984 175.063 354.916 175.771 354.832 175.771C354.749 175.771 354.68 175.063 354.68 174.19C354.68 173.317 354.748 172.609 354.832 172.609Z" fill="#E0E0E0"/>
<path d="M356.594 176.746C356.594 176.662 357.292 176.594 358.152 176.594C359.013 176.594 359.71 176.662 359.71 176.746C359.71 176.829 359.013 176.898 358.152 176.898C357.292 176.898 356.594 176.829 356.594 176.746Z" fill="#E0E0E0"/>
<path d="M354.94 180.984C354.856 180.984 354.788 180.276 354.788 179.403C354.788 178.53 354.856 177.822 354.94 177.822C355.023 177.822 355.091 178.53 355.091 179.403C355.091 180.277 355.023 180.984 354.94 180.984Z" fill="#E0E0E0"/>
<path d="M357.458 179.166C357.394 179.22 357.093 178.967 356.787 178.6C356.481 178.234 356.286 177.893 356.35 177.84C356.414 177.786 356.714 178.039 357.021 178.406C357.327 178.772 357.523 179.113 357.458 179.166Z" fill="#E0E0E0"/>
<path d="M357.312 174.36C357.372 174.419 357.163 174.727 356.846 175.047C356.528 175.368 356.222 175.579 356.163 175.521C356.104 175.461 356.312 175.154 356.629 174.833C356.947 174.513 357.253 174.301 357.312 174.36Z" fill="#E0E0E0"/>
<path d="M353.741 175.585C353.688 175.649 353.399 175.498 353.097 175.246C352.794 174.995 352.593 174.738 352.647 174.673C352.7 174.609 352.989 174.76 353.291 175.012C353.593 175.264 353.795 175.52 353.741 175.585Z" fill="#E0E0E0"/>
<path d="M353.601 177.702C353.664 177.759 353.479 178.062 353.192 178.377C352.904 178.694 352.619 178.904 352.558 178.848C352.496 178.791 352.68 178.489 352.968 178.173C353.254 177.857 353.539 177.646 353.601 177.702Z" fill="#E0E0E0"/>
<path d="M268.328 168.165C268.328 168.249 267.63 168.317 266.77 168.317C265.909 168.317 265.212 168.249 265.212 168.165C265.212 168.081 265.909 168.013 266.77 168.013C267.629 168.013 268.328 168.081 268.328 168.165Z" fill="#3085FE"/>
<path d="M269.981 163.927C270.065 163.927 270.133 164.635 270.133 165.508C270.133 166.381 270.065 167.089 269.981 167.089C269.898 167.089 269.829 166.381 269.829 165.508C269.829 164.635 269.898 163.927 269.981 163.927Z" fill="#3085FE"/>
<path d="M271.744 168.064C271.744 167.98 272.442 167.912 273.302 167.912C274.163 167.912 274.86 167.98 274.86 168.064C274.86 168.147 274.163 168.216 273.302 168.216C272.442 168.216 271.744 168.147 271.744 168.064Z" fill="#3085FE"/>
<path d="M270.089 172.302C270.006 172.302 269.938 171.594 269.938 170.721C269.938 169.848 270.006 169.14 270.089 169.14C270.173 169.14 270.241 169.848 270.241 170.721C270.241 171.595 270.173 172.302 270.089 172.302Z" fill="#3085FE"/>
<path d="M272.607 170.484C272.543 170.538 272.242 170.284 271.937 169.918C271.631 169.552 271.435 169.211 271.5 169.158C271.564 169.104 271.864 169.357 272.17 169.723C272.477 170.09 272.671 170.431 272.607 170.484Z" fill="#3085FE"/>
<path d="M272.462 165.678C272.522 165.738 272.313 166.046 271.996 166.366C271.678 166.687 271.372 166.898 271.312 166.839C271.252 166.78 271.461 166.472 271.779 166.152C272.096 165.83 272.402 165.619 272.462 165.678Z" fill="#3085FE"/>
<path d="M268.891 166.903C268.837 166.967 268.548 166.816 268.246 166.564C267.943 166.312 267.742 166.055 267.796 165.991C267.849 165.927 268.139 166.078 268.441 166.33C268.742 166.581 268.945 166.837 268.891 166.903Z" fill="#3085FE"/>
<path d="M268.75 169.02C268.812 169.077 268.629 169.38 268.34 169.695C268.052 170.012 267.767 170.222 267.706 170.166C267.644 170.109 267.827 169.807 268.116 169.491C268.404 169.175 268.689 168.964 268.75 169.02Z" fill="#3085FE"/>
<path d="M376.124 127.642C376.124 127.782 373.044 127.895 369.246 127.895C365.446 127.895 362.366 127.781 362.366 127.642C362.366 127.503 365.446 127.389 369.246 127.389C373.043 127.388 376.124 127.502 376.124 127.642Z" fill="#263238"/>
<path d="M376.124 130.507C376.124 130.647 373.044 130.76 369.246 130.76C365.446 130.76 362.366 130.646 362.366 130.507C362.366 130.367 365.446 130.254 369.246 130.254C373.043 130.254 376.124 130.368 376.124 130.507Z" fill="#263238"/>
<path d="M376.124 133.374C376.124 133.514 373.044 133.627 369.246 133.627C365.446 133.627 362.366 133.513 362.366 133.374C362.366 133.235 365.446 133.121 369.246 133.121C373.043 133.121 376.124 133.234 376.124 133.374Z" fill="#263238"/>
<path d="M295.605 368.843L327.68 369.094L327.996 328.608L295.921 328.358L295.605 368.843Z" fill="#EBEBEB"/>
<path d="M315.465 329.802L314.895 369.002L309.828 368.963L310.914 329.766L315.465 329.802Z" fill="#FAFAFA"/>
<path d="M277.521 329.505L295.923 329.65L327.997 329.9L295.888 334.125L295.617 368.852L277.223 368.708L277.521 329.505Z" fill="#E0E0E0"/>
<path d="M287.539 329.584L286.808 368.783L281.347 368.74L282.24 329.542L287.539 329.584Z" fill="#FAFAFA"/>
<path d="M302.101 317.653C302.109 317.9 301.572 318.156 300.586 318.398C299.6 318.635 298.162 318.871 296.335 318.964C295.421 319.009 294.409 319.012 293.313 318.931C292.764 318.888 292.195 318.832 291.609 318.737C291.012 318.64 290.455 318.552 289.731 318.339C289.374 318.225 288.993 318.086 288.579 317.841C288.174 317.603 287.714 317.244 287.361 316.698C286.999 316.156 286.84 315.472 286.834 314.934C286.822 314.386 286.909 313.942 286.988 313.571C287.293 312.28 287.603 310.952 288.22 309.51C288.531 308.798 288.916 308.094 289.392 307.441C289.641 307.113 289.884 306.817 290.185 306.505C290.492 306.194 290.841 305.899 291.254 305.641C291.667 305.385 292.155 305.167 292.706 305.058C293.252 304.948 293.856 304.969 294.367 305.1C295.401 305.372 296.05 305.898 296.563 306.314C298.512 307.96 299.889 309.814 300.776 311.489C301.667 313.169 302.064 314.663 302.196 315.703C302.319 316.751 302.194 317.347 301.963 317.4C301.444 317.525 300.691 315.46 298.646 312.862C297.623 311.574 296.259 310.161 294.53 308.918C294.127 308.623 293.764 308.447 293.598 308.435C293.514 308.428 293.486 308.438 293.422 308.456C293.36 308.476 293.265 308.519 293.143 308.603C293.021 308.689 292.879 308.812 292.737 308.965C292.594 309.124 292.427 309.335 292.283 309.532C291.994 309.947 291.738 310.418 291.509 310.94C291.058 311.976 290.727 313.213 290.407 314.381C290.341 314.628 290.313 314.808 290.308 314.885L290.304 314.923L290.302 314.928C290.281 314.931 290.229 314.944 290.204 314.951C290.091 314.98 290.06 315.009 290.136 314.963C290.15 314.954 290.223 314.905 290.253 314.876C290.253 314.876 290.252 314.882 290.26 314.892C290.274 314.91 290.3 314.941 290.352 314.977C290.445 315.05 290.615 315.136 290.807 315.215C291.192 315.367 291.751 315.521 292.236 315.647C292.733 315.779 293.226 315.885 293.706 315.983C294.668 316.177 295.588 316.315 296.439 316.43C298.143 316.656 299.564 316.81 300.551 317.001C301.538 317.19 302.093 317.405 302.101 317.653Z" fill="#E0E0E0"/>
<path d="M301.439 317.947C301.35 317.438 303.748 316.686 307.493 315.588C309.356 315.022 311.545 314.336 313.806 313.324C314.363 313.082 314.872 312.813 315.172 312.563C315.32 312.444 315.387 312.335 315.368 312.344C315.345 312.351 315.329 312.488 315.324 312.418C315.311 312.357 315.238 312.152 315.094 311.856C314.942 311.541 314.788 311.222 314.634 310.902C314.328 310.276 314.009 309.69 313.659 309.157C313.307 308.629 312.933 308.169 312.517 307.793C312.314 307.6 312.089 307.433 311.871 307.277C311.672 307.141 311.471 307.032 311.286 306.961C310.906 306.817 310.636 306.798 310.34 306.872C310.034 306.947 309.634 307.182 309.207 307.531C307.367 309.073 305.879 310.774 304.823 312.294C302.674 315.352 302.106 317.741 301.571 317.663C301.337 317.632 301.161 316.979 301.244 315.8C301.329 314.628 301.709 312.935 302.629 311.026C303.546 309.11 304.974 307.026 307.028 305.049C307.582 304.538 308.291 303.958 309.299 303.611C310.311 303.251 311.517 303.308 312.473 303.657C312.96 303.826 313.402 304.053 313.809 304.313C314.19 304.565 314.558 304.832 314.896 305.139C315.584 305.742 316.163 306.45 316.648 307.18C317.129 307.912 317.514 308.649 317.844 309.35C318.002 309.696 318.159 310.04 318.314 310.381C318.471 310.742 318.684 311.207 318.789 311.851C318.906 312.483 318.795 313.36 318.429 313.981C318.079 314.611 317.635 314.998 317.24 315.291C316.437 315.862 315.703 316.141 315.047 316.385C312.443 317.339 310.029 317.801 308.021 318.068C303.995 318.559 301.519 318.413 301.439 317.947Z" fill="#EBEBEB"/>
<path d="M271.673 329.453L318.819 329.821L318.924 316.42L271.778 316.052L271.673 329.453Z" fill="#E0E0E0"/>
<path d="M289.008 329.587L331.623 329.92L331.728 316.52L289.113 316.187L289.008 329.587Z" fill="#EBEBEB"/>
<path d="M318.664 316.426L318.363 329.889L313.394 329.786L313.74 316.387L318.664 316.426Z" fill="#FAFAFA"/>
<path d="M283.351 316.217L282.87 329.559L277.406 329.515L277.699 316.106L283.351 316.217Z" fill="#FAFAFA"/>
<path d="M330.35 368.108L348.525 368.249L348.704 345.307L330.529 345.166L330.35 368.108Z" fill="#EBEBEB"/>
<path d="M341.608 345.987L341.285 368.2L338.414 368.177L339.029 345.967L341.608 345.987Z" fill="#FAFAFA"/>
<path d="M320.107 345.819L330.534 345.901L348.709 346.043L330.514 348.436L330.361 368.115L319.938 368.033L320.107 345.819Z" fill="#E0E0E0"/>
<path d="M325.784 345.864L325.37 368.076L322.275 368.051L322.781 345.84L325.784 345.864Z" fill="#FAFAFA"/>
<path d="M334.035 339.103C334.039 339.438 332.843 339.853 330.761 340.024C329.697 340.085 328.484 340.101 326.951 339.712C326.545 339.572 325.965 339.392 325.479 338.69C325.246 338.343 325.144 337.902 325.14 337.566C325.132 337.222 325.185 336.952 325.231 336.733C325.402 335.992 325.576 335.234 325.938 334.388C326.12 333.971 326.348 333.555 326.63 333.169C326.913 332.798 327.239 332.412 327.755 332.088C328.238 331.763 329.045 331.568 329.707 331.755C330.354 331.927 330.742 332.251 331.039 332.494C332.16 333.456 332.941 334.537 333.434 335.513C334.416 337.5 334.272 338.909 333.956 338.959C333.594 339.043 333.104 337.899 331.927 336.484C331.338 335.781 330.565 335.011 329.601 334.335C329.38 334.176 329.195 334.102 329.162 334.114L329.155 334.118L329.159 334.067L329.166 334.13C329.166 334.135 329.139 334.147 329.091 334.182C328.996 334.246 328.833 334.424 328.675 334.648C328.524 334.866 328.387 335.116 328.264 335.399C328.02 335.957 327.831 336.652 327.649 337.305L327.596 337.53C327.634 337.531 327.472 337.536 327.434 337.545C327.371 337.552 327.328 337.561 327.292 337.571C327.228 337.587 327.212 337.604 327.254 337.578C327.29 337.556 327.347 337.511 327.434 337.42L327.485 337.362L327.486 337.366C327.49 337.37 327.493 337.376 327.503 337.383C327.533 337.412 327.615 337.457 327.712 337.5C328.719 337.867 329.905 338.082 330.835 338.23C332.753 338.517 334.031 338.739 334.035 339.103Z" fill="#E0E0E0"/>
<path d="M333.66 339.269C333.592 338.882 334.943 338.364 337.036 337.68C338.078 337.328 339.295 336.917 340.541 336.338C340.847 336.2 341.112 336.049 341.23 335.94C341.29 335.891 341.289 335.858 341.24 335.929C341.188 335.997 341.165 336.178 341.174 336.196C341.054 335.946 340.932 335.693 340.809 335.437C340.637 335.09 340.464 334.774 340.279 334.492C340.093 334.213 339.902 333.978 339.693 333.788C339.479 333.589 339.254 333.435 339.118 333.383C338.962 333.322 338.904 333.315 338.809 333.328C338.707 333.343 338.512 333.44 338.283 333.621C337.262 334.45 336.413 335.375 335.8 336.197C334.551 337.846 334.137 339.162 333.734 339.11C333.385 339.098 333.094 337.495 334.109 335.219C334.614 334.093 335.418 332.873 336.603 331.708C336.93 331.403 337.364 331.038 338.006 330.814C338.653 330.581 339.431 330.616 340.032 330.836C340.339 330.941 340.615 331.082 340.866 331.242C341.098 331.395 341.321 331.556 341.526 331.741C341.944 332.106 342.292 332.532 342.58 332.967C342.867 333.401 343.091 333.835 343.281 334.24L343.549 334.832C343.638 335.043 343.774 335.334 343.843 335.758C343.922 336.173 343.845 336.774 343.598 337.189C343.362 337.612 343.072 337.859 342.823 338.043C342.316 338.4 341.878 338.559 341.496 338.698C339.986 339.232 338.595 339.471 337.442 339.592C335.134 339.807 333.723 339.633 333.66 339.269Z" fill="#E0E0E0"/>
<path d="M316.788 345.785L343.504 345.993L343.563 338.399L316.847 338.191L316.788 345.785Z" fill="#E0E0E0"/>
<path d="M326.61 345.862L350.758 346.05L350.817 338.457L326.669 338.269L326.61 345.862Z" fill="#EBEBEB"/>
<path d="M343.42 338.408L343.25 346.036L340.434 345.978L340.63 338.385L343.42 338.408Z" fill="#FAFAFA"/>
<path d="M323.41 338.289L323.138 345.849L320.042 345.825L320.208 338.227L323.41 338.289Z" fill="#FAFAFA"/>
</svg>
